G04 #@! TF.FileFunction,Copper,L1,Top,Signal*
%FSLAX46Y46*%
G04 Gerber Fmt 4.6, Leading zero omitted, Abs format (unit mm)*
G04 Created by KiCad (PCBNEW 4.0.7-e2-6376~58~ubuntu16.04.1) date Sun May 27 17:23:25 2018*
%MOMM*%
%LPD*%
G01*
G04 APERTURE LIST*
%ADD10C,0.100000*%
%ADD11R,1.700000X1.700000*%
%ADD12O,1.700000X1.700000*%
%ADD13R,1.727200X1.727200*%
%ADD14O,1.727200X1.727200*%
%ADD15R,1.200000X1.200000*%
%ADD16R,1.450000X0.450000*%
%ADD17C,1.500000*%
%ADD18R,1.550000X0.600000*%
%ADD19C,1.000000*%
%ADD20R,2.000000X2.000000*%
%ADD21R,1.000000X0.250000*%
%ADD22R,0.250000X1.000000*%
%ADD23R,0.800000X0.750000*%
%ADD24R,0.750000X0.800000*%
%ADD25R,0.900000X0.500000*%
%ADD26R,0.500000X0.900000*%
%ADD27R,1.800000X1.100000*%
%ADD28R,1.849120X1.849120*%
%ADD29C,1.849120*%
%ADD30R,0.900000X0.800000*%
%ADD31R,0.650000X1.060000*%
%ADD32C,0.600000*%
%ADD33C,0.762000*%
%ADD34C,0.254000*%
G04 APERTURE END LIST*
D10*
D11*
X132715000Y-56515000D03*
D12*
X132715000Y-53975000D03*
X135255000Y-56515000D03*
X135255000Y-53975000D03*
X137795000Y-56515000D03*
X137795000Y-53975000D03*
X140335000Y-56515000D03*
X140335000Y-53975000D03*
X142875000Y-56515000D03*
X142875000Y-53975000D03*
X145415000Y-56515000D03*
X145415000Y-53975000D03*
X147955000Y-56515000D03*
X147955000Y-53975000D03*
X150495000Y-56515000D03*
X150495000Y-53975000D03*
X153035000Y-56515000D03*
X153035000Y-53975000D03*
X155575000Y-56515000D03*
X155575000Y-53975000D03*
X158115000Y-56515000D03*
X158115000Y-53975000D03*
X160655000Y-56515000D03*
X160655000Y-53975000D03*
X163195000Y-56515000D03*
X163195000Y-53975000D03*
X165735000Y-56515000D03*
X165735000Y-53975000D03*
X168275000Y-56515000D03*
X168275000Y-53975000D03*
X170815000Y-56515000D03*
X170815000Y-53975000D03*
X173355000Y-56515000D03*
X173355000Y-53975000D03*
X175895000Y-56515000D03*
X175895000Y-53975000D03*
X178435000Y-56515000D03*
X178435000Y-53975000D03*
X180975000Y-56515000D03*
X180975000Y-53975000D03*
D13*
X136525000Y-88773000D03*
D14*
X133985000Y-88773000D03*
X136525000Y-86233000D03*
X133985000Y-86233000D03*
X136525000Y-83693000D03*
X133985000Y-83693000D03*
X136525000Y-81153000D03*
X133985000Y-81153000D03*
X136525000Y-78613000D03*
X133985000Y-78613000D03*
X136525000Y-76073000D03*
X133985000Y-76073000D03*
X136525000Y-73533000D03*
X133985000Y-73533000D03*
X136525000Y-70993000D03*
X133985000Y-70993000D03*
D15*
X180721000Y-97958000D03*
X180721000Y-95758000D03*
X183362600Y-97958000D03*
X183362600Y-95758000D03*
D13*
X146939000Y-88773000D03*
D14*
X144399000Y-88773000D03*
X146939000Y-86233000D03*
X144399000Y-86233000D03*
X146939000Y-83693000D03*
X144399000Y-83693000D03*
X146939000Y-81153000D03*
X144399000Y-81153000D03*
X146939000Y-78613000D03*
X144399000Y-78613000D03*
X146939000Y-76073000D03*
X144399000Y-76073000D03*
X146939000Y-73533000D03*
X144399000Y-73533000D03*
X146939000Y-70993000D03*
X144399000Y-70993000D03*
D11*
X176276000Y-101981000D03*
D12*
X173736000Y-101981000D03*
X176276000Y-99441000D03*
X173736000Y-99441000D03*
X176276000Y-96901000D03*
X173736000Y-96901000D03*
D16*
X160557000Y-77220000D03*
X160557000Y-76570000D03*
X160557000Y-75920000D03*
X160557000Y-75270000D03*
X160557000Y-74620000D03*
X160557000Y-73970000D03*
X160557000Y-73320000D03*
X160557000Y-72670000D03*
X160557000Y-72020000D03*
X160557000Y-71370000D03*
X154657000Y-71370000D03*
X154657000Y-72020000D03*
X154657000Y-72670000D03*
X154657000Y-73320000D03*
X154657000Y-73970000D03*
X154657000Y-74620000D03*
X154657000Y-75270000D03*
X154657000Y-75920000D03*
X154657000Y-76570000D03*
X154657000Y-77220000D03*
X160303000Y-88650000D03*
X160303000Y-88000000D03*
X160303000Y-87350000D03*
X160303000Y-86700000D03*
X160303000Y-86050000D03*
X160303000Y-85400000D03*
X160303000Y-84750000D03*
X160303000Y-84100000D03*
X160303000Y-83450000D03*
X160303000Y-82800000D03*
X154403000Y-82800000D03*
X154403000Y-83450000D03*
X154403000Y-84100000D03*
X154403000Y-84750000D03*
X154403000Y-85400000D03*
X154403000Y-86050000D03*
X154403000Y-86700000D03*
X154403000Y-87350000D03*
X154403000Y-88000000D03*
X154403000Y-88650000D03*
D17*
X182511700Y-81292700D03*
X182511700Y-76412700D03*
D18*
X186600000Y-64211200D03*
X186600000Y-62941200D03*
X186600000Y-61671200D03*
X186600000Y-60401200D03*
X181200000Y-60401200D03*
X181200000Y-61671200D03*
X181200000Y-62941200D03*
X181200000Y-64211200D03*
D19*
X130810000Y-62484000D03*
X186690000Y-96012000D03*
D20*
X145161000Y-63119000D03*
X183642000Y-85852000D03*
X155100000Y-80000000D03*
X129600000Y-98500000D03*
D11*
X163750000Y-60500000D03*
D12*
X161210000Y-60500000D03*
X158670000Y-60500000D03*
D21*
X176040000Y-81780000D03*
X176040000Y-81280000D03*
X176040000Y-80780000D03*
X176040000Y-80280000D03*
X176040000Y-79780000D03*
X176040000Y-79280000D03*
X176040000Y-78780000D03*
X176040000Y-78280000D03*
X176040000Y-77780000D03*
X176040000Y-77280000D03*
X176040000Y-76780000D03*
X176040000Y-76280000D03*
X176040000Y-75780000D03*
X176040000Y-75280000D03*
X176040000Y-74780000D03*
X176040000Y-74280000D03*
D22*
X174090000Y-72330000D03*
X173590000Y-72330000D03*
X173090000Y-72330000D03*
X172590000Y-72330000D03*
X172090000Y-72330000D03*
X171590000Y-72330000D03*
X171090000Y-72330000D03*
X170590000Y-72330000D03*
X170090000Y-72330000D03*
X169590000Y-72330000D03*
X169090000Y-72330000D03*
X168590000Y-72330000D03*
X168090000Y-72330000D03*
X167590000Y-72330000D03*
X167090000Y-72330000D03*
X166590000Y-72330000D03*
D21*
X164640000Y-74280000D03*
X164640000Y-74780000D03*
X164640000Y-75280000D03*
X164640000Y-75780000D03*
X164640000Y-76280000D03*
X164640000Y-76780000D03*
X164640000Y-77280000D03*
X164640000Y-77780000D03*
X164640000Y-78280000D03*
X164640000Y-78780000D03*
X164640000Y-79280000D03*
X164640000Y-79780000D03*
X164640000Y-80280000D03*
X164640000Y-80780000D03*
X164640000Y-81280000D03*
X164640000Y-81780000D03*
D22*
X166590000Y-83730000D03*
X167090000Y-83730000D03*
X167590000Y-83730000D03*
X168090000Y-83730000D03*
X168590000Y-83730000D03*
X169090000Y-83730000D03*
X169590000Y-83730000D03*
X170090000Y-83730000D03*
X170590000Y-83730000D03*
X171090000Y-83730000D03*
X171590000Y-83730000D03*
X172090000Y-83730000D03*
X172590000Y-83730000D03*
X173090000Y-83730000D03*
X173590000Y-83730000D03*
X174090000Y-83730000D03*
D23*
X164000000Y-92900000D03*
X165500000Y-92900000D03*
D24*
X186580000Y-81290000D03*
X186580000Y-79790000D03*
X186580000Y-76420000D03*
X186580000Y-77920000D03*
X162810000Y-80810000D03*
X162810000Y-82310000D03*
D23*
X166800000Y-70490000D03*
X165300000Y-70490000D03*
X173800000Y-85500000D03*
X175300000Y-85500000D03*
X175000000Y-70500000D03*
X173500000Y-70500000D03*
X179700000Y-66500000D03*
X181200000Y-66500000D03*
D25*
X180695600Y-91762000D03*
X180695600Y-90262000D03*
D26*
X177600000Y-80300000D03*
X179100000Y-80300000D03*
D25*
X183337200Y-91762000D03*
X183337200Y-90262000D03*
X174400000Y-91762000D03*
X174400000Y-90262000D03*
X172600000Y-90262000D03*
X172600000Y-91762000D03*
X178000000Y-64300000D03*
X178000000Y-62800000D03*
X175700000Y-64300000D03*
X175700000Y-62800000D03*
D26*
X183100000Y-66500000D03*
X184600000Y-66500000D03*
X183200000Y-68500000D03*
X184700000Y-68500000D03*
D27*
X160400000Y-96600000D03*
X154200000Y-96600000D03*
X160400000Y-92900000D03*
X154200000Y-92900000D03*
D24*
X178000000Y-76800000D03*
X178000000Y-75300000D03*
D23*
X173800000Y-87000000D03*
X175300000Y-87000000D03*
X165300000Y-69000000D03*
X166800000Y-69000000D03*
D24*
X178000000Y-83600000D03*
X178000000Y-82100000D03*
D28*
X134204960Y-103900000D03*
D29*
X137700000Y-103900000D03*
D26*
X177600000Y-78700000D03*
X179100000Y-78700000D03*
D11*
X152980000Y-104600000D03*
D12*
X155520000Y-104600000D03*
X158060000Y-104600000D03*
X160600000Y-104600000D03*
X163140000Y-104600000D03*
D30*
X143200000Y-101300000D03*
X143200000Y-99400000D03*
X141200000Y-100350000D03*
D26*
X149000000Y-101600000D03*
X150500000Y-101600000D03*
X149000000Y-99400000D03*
X150500000Y-99400000D03*
D31*
X145550000Y-101600000D03*
X146500000Y-101600000D03*
X147450000Y-101600000D03*
X147450000Y-99400000D03*
X145550000Y-99400000D03*
X146500000Y-99400000D03*
D32*
X185900000Y-85800000D03*
X183700000Y-83700000D03*
X185300000Y-79800000D03*
X185300000Y-77900000D03*
X178000000Y-85000000D03*
X152781000Y-90297000D03*
X152908000Y-78613000D03*
X158623000Y-71374000D03*
X161417000Y-81600000D03*
X163100000Y-70600000D03*
X173500000Y-69300000D03*
X162306000Y-97790000D03*
X166800000Y-74700000D03*
X164719000Y-90424000D03*
X150876000Y-72263000D03*
X153932270Y-94967730D03*
X156845000Y-88700000D03*
X156845000Y-77220000D03*
X168600000Y-73800000D03*
X171700000Y-89200000D03*
X167300000Y-79000000D03*
X166600000Y-79600000D03*
X166100000Y-81100000D03*
X166100000Y-83800000D03*
D33*
X183642000Y-85852000D02*
X185848000Y-85852000D01*
X185848000Y-85852000D02*
X185900000Y-85800000D01*
X183642000Y-85852000D02*
X183642000Y-83758000D01*
X183642000Y-83758000D02*
X183700000Y-83700000D01*
X186580000Y-79790000D02*
X185310000Y-79790000D01*
X185310000Y-79790000D02*
X185300000Y-79800000D01*
X186580000Y-77920000D02*
X185320000Y-77920000D01*
X185320000Y-77920000D02*
X185300000Y-77900000D01*
X178000000Y-83600000D02*
X178000000Y-85000000D01*
D34*
X173590000Y-83730000D02*
X173590000Y-85290000D01*
X173590000Y-85290000D02*
X173800000Y-85500000D01*
X176040000Y-76280000D02*
X177480000Y-76280000D01*
X177480000Y-76280000D02*
X178000000Y-76800000D01*
X174829000Y-71300000D02*
X173600000Y-71300000D01*
X173600000Y-71300000D02*
X173590000Y-71310000D01*
X173590000Y-71310000D02*
X173590000Y-71576000D01*
X173590000Y-71576000D02*
X173590000Y-72330000D01*
X175000000Y-70500000D02*
X175000000Y-71129000D01*
X175000000Y-71129000D02*
X174829000Y-71300000D01*
X166800000Y-70490000D02*
X166790000Y-70490000D01*
X166790000Y-70490000D02*
X165300000Y-69000000D01*
X167090000Y-72330000D02*
X167090000Y-70780000D01*
X167090000Y-70780000D02*
X166800000Y-70490000D01*
X176040000Y-76280000D02*
X175320638Y-76280000D01*
X175320638Y-76280000D02*
X173590000Y-74549362D01*
X173590000Y-74549362D02*
X173590000Y-73084000D01*
X173590000Y-73084000D02*
X173590000Y-72330000D01*
X163195000Y-56515000D02*
X163195000Y-57717081D01*
X163195000Y-57717081D02*
X163817919Y-58340000D01*
X186580000Y-77920000D02*
X186580000Y-79790000D01*
X164640000Y-81280000D02*
X163780000Y-81280000D01*
X163780000Y-81280000D02*
X162810000Y-80310000D01*
X152781000Y-88643000D02*
X152781000Y-90297000D01*
X154403000Y-88000000D02*
X153424000Y-88000000D01*
X153424000Y-88000000D02*
X152781000Y-88643000D01*
X158877000Y-82804000D02*
X158888000Y-82815000D01*
X158888000Y-82815000D02*
X158888000Y-83450000D01*
X159320000Y-82804000D02*
X158877000Y-82804000D01*
X160303000Y-82800000D02*
X159324000Y-82800000D01*
X159324000Y-82800000D02*
X159320000Y-82804000D01*
X158395000Y-84100000D02*
X158877000Y-84100000D01*
X158877000Y-84100000D02*
X160303000Y-84100000D01*
X158888000Y-83450000D02*
X158877000Y-83461000D01*
X158877000Y-83461000D02*
X158877000Y-84100000D01*
X160303000Y-83450000D02*
X158888000Y-83450000D01*
X152908000Y-77340000D02*
X152908000Y-78613000D01*
X160557000Y-71370000D02*
X158627000Y-71370000D01*
X158627000Y-71370000D02*
X158623000Y-71374000D01*
X152908000Y-78613000D02*
X158395000Y-84100000D01*
X154657000Y-76570000D02*
X153678000Y-76570000D01*
X153678000Y-76570000D02*
X152908000Y-77340000D01*
X147955000Y-53340000D02*
X147955000Y-53467000D01*
X147955000Y-53340000D02*
X147701000Y-53340000D01*
X137795000Y-53340000D02*
X137795000Y-53467000D01*
X160303000Y-84100000D02*
X159030000Y-84100000D01*
X159030000Y-84100000D02*
X159004000Y-84074000D01*
X154403000Y-88000000D02*
X156326000Y-88000000D01*
X164640000Y-77280000D02*
X162246000Y-77280000D01*
X162246000Y-77280000D02*
X161536000Y-76570000D01*
X161536000Y-76570000D02*
X160557000Y-76570000D01*
X164640000Y-76780000D02*
X162603408Y-76780000D01*
X161743408Y-75920000D02*
X161536000Y-75920000D01*
X162603408Y-76780000D02*
X161743408Y-75920000D01*
X161536000Y-75920000D02*
X160557000Y-75920000D01*
X162707210Y-76237210D02*
X161740000Y-75270000D01*
X161740000Y-75270000D02*
X160557000Y-75270000D01*
X164640000Y-76280000D02*
X164590000Y-76280000D01*
X164590000Y-76280000D02*
X164547210Y-76237210D01*
X164547210Y-76237210D02*
X162707210Y-76237210D01*
X164640000Y-74280000D02*
X163886000Y-74280000D01*
X163886000Y-74280000D02*
X162276000Y-72670000D01*
X162276000Y-72670000D02*
X161536000Y-72670000D01*
X161536000Y-72670000D02*
X160557000Y-72670000D01*
X164640000Y-75780000D02*
X162896592Y-75780000D01*
X162896592Y-75780000D02*
X161736592Y-74620000D01*
X161736592Y-74620000D02*
X161536000Y-74620000D01*
X161536000Y-74620000D02*
X160557000Y-74620000D01*
X160303000Y-88000000D02*
X166806960Y-88000000D01*
X166806960Y-88000000D02*
X169590000Y-85216960D01*
X169590000Y-85216960D02*
X169590000Y-84484000D01*
X169590000Y-84484000D02*
X169590000Y-83730000D01*
X160303000Y-87350000D02*
X166810368Y-87350000D01*
X166810368Y-87350000D02*
X169090000Y-85070368D01*
X169090000Y-85070368D02*
X169090000Y-84484000D01*
X169090000Y-84484000D02*
X169090000Y-83730000D01*
X160303000Y-85400000D02*
X166820592Y-85400000D01*
X166820592Y-85400000D02*
X167590000Y-84630592D01*
X167590000Y-84630592D02*
X167590000Y-84484000D01*
X167590000Y-84484000D02*
X167590000Y-83730000D01*
X160303000Y-86050000D02*
X166817184Y-86050000D01*
X166817184Y-86050000D02*
X168090000Y-84777184D01*
X168090000Y-84777184D02*
X168090000Y-84484000D01*
X168090000Y-84484000D02*
X168090000Y-83730000D01*
X163696617Y-74737209D02*
X162279408Y-73320000D01*
X162279408Y-73320000D02*
X160557000Y-73320000D01*
X164640000Y-74780000D02*
X164280000Y-74780000D01*
X164280000Y-74780000D02*
X164237210Y-74737210D01*
X164237210Y-74737210D02*
X163696617Y-74737209D01*
X164640000Y-75280000D02*
X163043184Y-75280000D01*
X163043184Y-75280000D02*
X161733184Y-73970000D01*
X161733184Y-73970000D02*
X161536000Y-73970000D01*
X161536000Y-73970000D02*
X160557000Y-73970000D01*
D33*
X164719000Y-102616000D02*
X164719000Y-100203000D01*
X164719000Y-100203000D02*
X162306000Y-97790000D01*
D34*
X178000000Y-64300000D02*
X175700000Y-64300000D01*
X181200000Y-64211200D02*
X178088800Y-64211200D01*
X178088800Y-64211200D02*
X178000000Y-64300000D01*
D33*
X181200000Y-66500000D02*
X181200000Y-64211200D01*
X180406000Y-71192400D02*
X181200000Y-70398400D01*
X181200000Y-70398400D02*
X181200000Y-66500000D01*
D34*
X183100000Y-66500000D02*
X183100000Y-66300000D01*
X183100000Y-66300000D02*
X181200000Y-64400000D01*
X181200000Y-64400000D02*
X181200000Y-64211200D01*
D33*
X178689000Y-97155000D02*
X178689000Y-88189000D01*
X178689000Y-88189000D02*
X177500000Y-87000000D01*
X177500000Y-87000000D02*
X176825000Y-87000000D01*
X176825000Y-87000000D02*
X175300000Y-87000000D01*
X175300000Y-87000000D02*
X175300000Y-85500000D01*
D34*
X176040000Y-81780000D02*
X176040000Y-82159000D01*
X176040000Y-82159000D02*
X174469000Y-83730000D01*
X174469000Y-83730000D02*
X174090000Y-83730000D01*
X176040000Y-81780000D02*
X177680000Y-81780000D01*
X177680000Y-81780000D02*
X178000000Y-82100000D01*
D33*
X175325000Y-85500000D02*
X175300000Y-85500000D01*
D34*
X174090000Y-83730000D02*
X174090000Y-84484000D01*
X174090000Y-84484000D02*
X174306000Y-84700000D01*
X174306000Y-84700000D02*
X175129000Y-84700000D01*
X175129000Y-84700000D02*
X175300000Y-84871000D01*
X175300000Y-84871000D02*
X175300000Y-85500000D01*
X162110000Y-82310000D02*
X161417000Y-81617000D01*
X162810000Y-82310000D02*
X162110000Y-82310000D01*
X161417000Y-81617000D02*
X161417000Y-81600000D01*
X176040000Y-75780000D02*
X177520000Y-75780000D01*
X177520000Y-75780000D02*
X178000000Y-75300000D01*
D33*
X180406000Y-72136000D02*
X180406000Y-72869000D01*
X180406000Y-72869000D02*
X178000000Y-75275000D01*
X178000000Y-75275000D02*
X178000000Y-75300000D01*
D34*
X163100000Y-70600000D02*
X165190000Y-70600000D01*
X165190000Y-70600000D02*
X165300000Y-70490000D01*
X173500000Y-70500000D02*
X173500000Y-69300000D01*
X173090000Y-72330000D02*
X173090000Y-70910000D01*
X173090000Y-70910000D02*
X173500000Y-70500000D01*
X165300000Y-70490000D02*
X165300000Y-71040000D01*
X165300000Y-71040000D02*
X166590000Y-72330000D01*
D33*
X188468000Y-94214600D02*
X188468000Y-72390000D01*
X188468000Y-72390000D02*
X188214000Y-72136000D01*
X188214000Y-72136000D02*
X180406000Y-72136000D01*
X180406000Y-72136000D02*
X180406000Y-71192400D01*
D34*
X164640000Y-81780000D02*
X163340000Y-81780000D01*
X163340000Y-81780000D02*
X162810000Y-82310000D01*
D33*
X188468000Y-94214600D02*
X188468000Y-94234000D01*
X188468000Y-94234000D02*
X186690000Y-96012000D01*
X183362600Y-97958000D02*
X184724600Y-97958000D01*
X184724600Y-97958000D02*
X188468000Y-94214600D01*
X168275000Y-106172000D02*
X164719000Y-102616000D01*
X170747081Y-106172000D02*
X168275000Y-106172000D01*
X173736000Y-101981000D02*
X173736000Y-103183081D01*
X173736000Y-103183081D02*
X170747081Y-106172000D01*
X178689000Y-97288000D02*
X178689000Y-97155000D01*
X178689000Y-97155000D02*
X178689000Y-100584000D01*
X180721000Y-97958000D02*
X179359000Y-97958000D01*
X179359000Y-97958000D02*
X178689000Y-97288000D01*
D34*
X178689000Y-98806000D02*
X178689000Y-99314000D01*
D33*
X179359000Y-97958000D02*
X178689000Y-98628000D01*
X178689000Y-98628000D02*
X178689000Y-98806000D01*
X178689000Y-100584000D02*
X178689000Y-101180000D01*
X178689000Y-101180000D02*
X177888000Y-101981000D01*
X177888000Y-101981000D02*
X176276000Y-101981000D01*
D34*
X178689000Y-99314000D02*
X178689000Y-100584000D01*
D33*
X173736000Y-101981000D02*
X176276000Y-101981000D01*
X183362600Y-97958000D02*
X180721000Y-97958000D01*
D34*
X180721000Y-97958000D02*
X179867000Y-97958000D01*
X179867000Y-97958000D02*
X178689000Y-99136000D01*
X178689000Y-99136000D02*
X178689000Y-99314000D01*
X153035000Y-55880000D02*
X153035000Y-56108600D01*
X160020000Y-66730000D02*
X155575000Y-62285000D01*
X155575000Y-62285000D02*
X155575000Y-56515000D01*
X163153302Y-66730000D02*
X160020000Y-66730000D01*
X166219362Y-66740000D02*
X163163302Y-66740000D01*
X163163302Y-66740000D02*
X163153302Y-66730000D01*
X171090000Y-72330000D02*
X171090000Y-71610638D01*
X171090000Y-71610638D02*
X166219362Y-66740000D01*
X155575000Y-55880000D02*
X155575000Y-57082081D01*
X155575000Y-55880000D02*
X155575000Y-56134000D01*
X156530000Y-62593408D02*
X156530000Y-58100000D01*
X156530000Y-58100000D02*
X158115000Y-56515000D01*
X160209382Y-66272790D02*
X156530000Y-62593408D01*
X171590000Y-72330000D02*
X171570000Y-72330000D01*
X171547209Y-71421255D02*
X166398744Y-66272790D01*
X171570000Y-72330000D02*
X171547210Y-72307210D01*
X171547210Y-72307210D02*
X171547209Y-71421255D01*
X166398744Y-66272790D02*
X160209382Y-66272790D01*
X158115000Y-55880000D02*
X158115000Y-56515000D01*
X162685580Y-65815580D02*
X160029799Y-63159799D01*
X160029799Y-63159799D02*
X160029799Y-58342282D01*
X160029799Y-58342282D02*
X160655000Y-57717081D01*
X160655000Y-57717081D02*
X160655000Y-56515000D01*
X166588126Y-65815580D02*
X162685580Y-65815580D01*
X172090000Y-72330000D02*
X172090000Y-71317454D01*
X172090000Y-71317454D02*
X166588126Y-65815580D01*
X160655000Y-55880000D02*
X160655000Y-57082081D01*
X160655000Y-56007000D02*
X160655000Y-55880000D01*
X164098370Y-65358370D02*
X161210000Y-62470000D01*
X161210000Y-62470000D02*
X161210000Y-61702081D01*
X166777508Y-65358370D02*
X164098370Y-65358370D01*
X172590000Y-72330000D02*
X172590000Y-71170862D01*
X172590000Y-71170862D02*
X166777508Y-65358370D01*
X161210000Y-60500000D02*
X161210000Y-61702081D01*
X160400000Y-92900000D02*
X154200000Y-92900000D01*
X164000000Y-92900000D02*
X160400000Y-92900000D01*
X164000000Y-91143000D02*
X164000000Y-92900000D01*
X166800000Y-74700000D02*
X170880000Y-78780000D01*
X170880000Y-78780000D02*
X176040000Y-78780000D01*
X176000000Y-78820000D02*
X176040000Y-78780000D01*
X164719000Y-90424000D02*
X164000000Y-91143000D01*
X176040000Y-79780000D02*
X177080000Y-79780000D01*
X177080000Y-79780000D02*
X177600000Y-80300000D01*
X176040000Y-79280000D02*
X177020000Y-79280000D01*
X177020000Y-79280000D02*
X177600000Y-78700000D01*
X180695600Y-91762000D02*
X180695600Y-95732600D01*
X180695600Y-95732600D02*
X180721000Y-95758000D01*
X183337200Y-91762000D02*
X183337200Y-95732600D01*
X183337200Y-95732600D02*
X183362600Y-95758000D01*
X154657000Y-75920000D02*
X153442000Y-75920000D01*
X150749000Y-78613000D02*
X146939000Y-78613000D01*
X153442000Y-75920000D02*
X150749000Y-78613000D01*
X146939000Y-78613000D02*
X146685000Y-78613000D01*
X146685000Y-78613000D02*
X145415000Y-79883000D01*
X145415000Y-79883000D02*
X143129000Y-79883000D01*
X143129000Y-79883000D02*
X141605000Y-81407000D01*
X141605000Y-81407000D02*
X141605000Y-84074000D01*
X141605000Y-84074000D02*
X138176000Y-87503000D01*
X138176000Y-87503000D02*
X135255000Y-87503000D01*
X135255000Y-87503000D02*
X133985000Y-88773000D01*
X154657000Y-75270000D02*
X153330000Y-75270000D01*
X146431000Y-77343000D02*
X145161000Y-78613000D01*
X151257000Y-77343000D02*
X146431000Y-77343000D01*
X153330000Y-75270000D02*
X151257000Y-77343000D01*
X145161000Y-78613000D02*
X144399000Y-78613000D01*
X144399000Y-78613000D02*
X142748000Y-78613000D01*
X135255000Y-84963000D02*
X133985000Y-86233000D01*
X139192000Y-84963000D02*
X135255000Y-84963000D01*
X140462000Y-83693000D02*
X139192000Y-84963000D01*
X140462000Y-80899000D02*
X140462000Y-83693000D01*
X142748000Y-78613000D02*
X140462000Y-80899000D01*
X154657000Y-74620000D02*
X152837000Y-74620000D01*
X151384000Y-76073000D02*
X146939000Y-76073000D01*
X152837000Y-74620000D02*
X151384000Y-76073000D01*
X146939000Y-76073000D02*
X146812000Y-76073000D01*
X146812000Y-76073000D02*
X145542000Y-77343000D01*
X145542000Y-77343000D02*
X142748000Y-77343000D01*
X142748000Y-77343000D02*
X137668000Y-82423000D01*
X137668000Y-82423000D02*
X135255000Y-82423000D01*
X135255000Y-82423000D02*
X133985000Y-83693000D01*
X154657000Y-72020000D02*
X152284000Y-72020000D01*
X151257000Y-70993000D02*
X146939000Y-70993000D01*
X152284000Y-72020000D02*
X151257000Y-70993000D01*
X154657000Y-73970000D02*
X151328000Y-73970000D01*
X145669000Y-74803000D02*
X144399000Y-76073000D01*
X150495000Y-74803000D02*
X145669000Y-74803000D01*
X151328000Y-73970000D02*
X150495000Y-74803000D01*
X144399000Y-76073000D02*
X141224000Y-76073000D01*
X135255000Y-79883000D02*
X133985000Y-81153000D01*
X137414000Y-79883000D02*
X135255000Y-79883000D01*
X141224000Y-76073000D02*
X137414000Y-79883000D01*
X146939000Y-88773000D02*
X146939000Y-89890600D01*
X146939000Y-89890600D02*
X145567390Y-91262210D01*
X145567390Y-91262210D02*
X133033617Y-91262209D01*
X133033617Y-91262209D02*
X131622790Y-89851382D01*
X131622790Y-89851382D02*
X131622790Y-78689210D01*
X131622790Y-78689210D02*
X132969000Y-77343000D01*
X154403000Y-87350000D02*
X152807000Y-87350000D01*
X151384000Y-88773000D02*
X146939000Y-88773000D01*
X152807000Y-87350000D02*
X151384000Y-88773000D01*
X135255000Y-77343000D02*
X136525000Y-78613000D01*
X132969000Y-77343000D02*
X135255000Y-77343000D01*
X154403000Y-86700000D02*
X151933000Y-86700000D01*
X145669000Y-87503000D02*
X144399000Y-88773000D01*
X151130000Y-87503000D02*
X145669000Y-87503000D01*
X151933000Y-86700000D02*
X151130000Y-87503000D01*
X144399000Y-88773000D02*
X144399000Y-89027000D01*
X144399000Y-89027000D02*
X142621000Y-90805000D01*
X142621000Y-90805000D02*
X133223000Y-90805000D01*
X133223000Y-90805000D02*
X132080000Y-89662000D01*
X132080000Y-89662000D02*
X132080000Y-80518000D01*
X132080000Y-80518000D02*
X133985000Y-78613000D01*
X154403000Y-84750000D02*
X150282000Y-84750000D01*
X149225000Y-83693000D02*
X146939000Y-83693000D01*
X150282000Y-84750000D02*
X149225000Y-83693000D01*
X154403000Y-85400000D02*
X149408000Y-85400000D01*
X145669000Y-84963000D02*
X144399000Y-83693000D01*
X148971000Y-84963000D02*
X145669000Y-84963000D01*
X149408000Y-85400000D02*
X148971000Y-84963000D01*
X154657000Y-72670000D02*
X151283000Y-72670000D01*
X151283000Y-72670000D02*
X150876000Y-72263000D01*
X144399000Y-73533000D02*
X144145000Y-73533000D01*
X144145000Y-73533000D02*
X142875000Y-74803000D01*
X142875000Y-74803000D02*
X135255000Y-74803000D01*
X135255000Y-74803000D02*
X133985000Y-73533000D01*
X154657000Y-73320000D02*
X150581000Y-73320000D01*
X150368000Y-73533000D02*
X146939000Y-73533000D01*
X150581000Y-73320000D02*
X150368000Y-73533000D01*
X146939000Y-73533000D02*
X146939000Y-73406000D01*
X146939000Y-73406000D02*
X145796000Y-72263000D01*
X135255000Y-72263000D02*
X133985000Y-70993000D01*
X145796000Y-72263000D02*
X135255000Y-72263000D01*
D33*
X143250000Y-99400000D02*
X145200000Y-97450000D01*
X145200000Y-97450000D02*
X147682270Y-94967730D01*
D34*
X146500000Y-99400000D02*
X146500000Y-98616000D01*
X146500000Y-98616000D02*
X145334000Y-97450000D01*
X145334000Y-97450000D02*
X145200000Y-97450000D01*
D33*
X143200000Y-99400000D02*
X143250000Y-99400000D01*
X147682270Y-94967730D02*
X153932270Y-94967730D01*
X132715000Y-53975000D02*
X135255000Y-53975000D01*
D34*
X156845000Y-88650000D02*
X157810210Y-88650000D01*
X157810210Y-88650000D02*
X160303000Y-88650000D01*
D33*
X130810000Y-54190000D02*
X131025000Y-53975000D01*
X131025000Y-53975000D02*
X132715000Y-53975000D01*
X130810000Y-62484000D02*
X130810000Y-54190000D01*
X130810000Y-62506800D02*
X135613200Y-67310000D01*
X150074000Y-68794000D02*
X155154000Y-68794000D01*
X135613200Y-67310000D02*
X148590000Y-67310000D01*
X148590000Y-67310000D02*
X150074000Y-68794000D01*
X155154000Y-68794000D02*
X156845000Y-70485000D01*
X156845000Y-70485000D02*
X156845000Y-77220000D01*
D34*
X154657000Y-77220000D02*
X156845000Y-77220000D01*
X156845000Y-77220000D02*
X160557000Y-77220000D01*
X154403000Y-88650000D02*
X156845000Y-88650000D01*
X178000000Y-62800000D02*
X178000000Y-62296000D01*
X178000000Y-62296000D02*
X176172000Y-60468000D01*
X176172000Y-60468000D02*
X176168000Y-60468000D01*
X176168000Y-60468000D02*
X174080000Y-58380000D01*
X165735000Y-57775000D02*
X165735000Y-56515000D01*
X174080000Y-58380000D02*
X166340000Y-58380000D01*
X166340000Y-58380000D02*
X165735000Y-57775000D01*
X181200000Y-60401200D02*
X180725000Y-60401200D01*
X180725000Y-60401200D02*
X178326200Y-62800000D01*
X178326200Y-62800000D02*
X178000000Y-62800000D01*
X165735000Y-53975000D02*
X164500000Y-55210000D01*
X164500000Y-55210000D02*
X164500000Y-57500000D01*
X164500000Y-57500000D02*
X166000000Y-59000000D01*
X166000000Y-59000000D02*
X172500000Y-59000000D01*
X172500000Y-59000000D02*
X175700000Y-62200000D01*
X175700000Y-62200000D02*
X175700000Y-62800000D01*
X179000000Y-63500000D02*
X179000000Y-63396200D01*
X179000000Y-63396200D02*
X180725000Y-61671200D01*
X180725000Y-61671200D02*
X181200000Y-61671200D01*
X177104000Y-63500000D02*
X179000000Y-63500000D01*
X175700000Y-62800000D02*
X176404000Y-62800000D01*
X176404000Y-62800000D02*
X177104000Y-63500000D01*
X154403000Y-86050000D02*
X150678000Y-86050000D01*
X150495000Y-86233000D02*
X146939000Y-86233000D01*
X150678000Y-86050000D02*
X150495000Y-86233000D01*
X154403000Y-84100000D02*
X151791000Y-84100000D01*
X148844000Y-81153000D02*
X146939000Y-81153000D01*
X151791000Y-84100000D02*
X148844000Y-81153000D01*
X176276000Y-99441000D02*
X175006000Y-98171000D01*
X174400000Y-93000000D02*
X174400000Y-91762000D01*
X175006000Y-98171000D02*
X175006000Y-93606000D01*
X175006000Y-93606000D02*
X174400000Y-93000000D01*
X173736000Y-99441000D02*
X172085000Y-97790000D01*
X172085000Y-97790000D02*
X172085000Y-94415000D01*
X172085000Y-94415000D02*
X172600000Y-93900000D01*
X172600000Y-93900000D02*
X172600000Y-91762000D01*
X180695600Y-90262000D02*
X180649008Y-90262000D01*
X180649008Y-90262000D02*
X179820000Y-89432992D01*
X179820000Y-89432992D02*
X179820000Y-81920000D01*
X179820000Y-81920000D02*
X179180000Y-81280000D01*
X179180000Y-81280000D02*
X176040000Y-81280000D01*
X172090000Y-83730000D02*
X172090000Y-87448000D01*
X172090000Y-87448000D02*
X174400000Y-89758000D01*
X174400000Y-89758000D02*
X174400000Y-90262000D01*
X168600000Y-73800000D02*
X168600000Y-72340000D01*
X168600000Y-72340000D02*
X168590000Y-72330000D01*
X171700000Y-89200000D02*
X171700000Y-89362000D01*
X171700000Y-89362000D02*
X172600000Y-90262000D01*
X168620000Y-72360000D02*
X168590000Y-72330000D01*
X160303000Y-86700000D02*
X166813776Y-86700000D01*
X166813776Y-86700000D02*
X168590000Y-84923776D01*
X168590000Y-84923776D02*
X168590000Y-84484000D01*
X168590000Y-84484000D02*
X168590000Y-83730000D01*
X160303000Y-84750000D02*
X166824000Y-84750000D01*
X166824000Y-84750000D02*
X167090000Y-84484000D01*
X167090000Y-84484000D02*
X167090000Y-83730000D01*
X166175318Y-78780000D02*
X167080000Y-78780000D01*
X167080000Y-78780000D02*
X167300000Y-79000000D01*
X164640000Y-78780000D02*
X166175318Y-78780000D01*
X165394000Y-79280000D02*
X166280000Y-79280000D01*
X166280000Y-79280000D02*
X166600000Y-79600000D01*
X165394000Y-79280000D02*
X164640000Y-79280000D01*
X184600000Y-66500000D02*
X184600000Y-66900000D01*
X184600000Y-66900000D02*
X183200000Y-68300000D01*
X183200000Y-68300000D02*
X183200000Y-68500000D01*
X181200000Y-62941200D02*
X182393408Y-62941200D01*
X182393408Y-62941200D02*
X184600000Y-65147792D01*
X184600000Y-65147792D02*
X184600000Y-65796000D01*
X184600000Y-65796000D02*
X184600000Y-66500000D01*
X159295201Y-58672718D02*
X159295201Y-55334799D01*
X159295201Y-55334799D02*
X160655000Y-53975000D01*
X159295201Y-58672718D02*
X158670000Y-59297919D01*
X158670000Y-59297919D02*
X158670000Y-60500000D01*
X162000000Y-55170000D02*
X162000000Y-57646000D01*
X162000000Y-57646000D02*
X163750000Y-59396000D01*
X163750000Y-59396000D02*
X163750000Y-60500000D01*
X163195000Y-53975000D02*
X162000000Y-55170000D01*
X163195000Y-53340000D02*
X163195000Y-53467000D01*
X167590000Y-72330000D02*
X167590000Y-69765000D01*
X167590000Y-69765000D02*
X166825000Y-69000000D01*
X166825000Y-69000000D02*
X166800000Y-69000000D01*
X179100000Y-80300000D02*
X181519000Y-80300000D01*
X181519000Y-80300000D02*
X182511700Y-81292700D01*
X186580000Y-81290000D02*
X182514400Y-81290000D01*
X182514400Y-81290000D02*
X182511700Y-81292700D01*
X179100000Y-78700000D02*
X180224400Y-78700000D01*
X180224400Y-78700000D02*
X182511700Y-76412700D01*
X186580000Y-76420000D02*
X182519000Y-76420000D01*
X182519000Y-76420000D02*
X182511700Y-76412700D01*
X164640000Y-80780000D02*
X165780000Y-80780000D01*
X165780000Y-80780000D02*
X166100000Y-81100000D01*
X166590000Y-83730000D02*
X166170000Y-83730000D01*
X166170000Y-83730000D02*
X166100000Y-83800000D01*
D33*
X141200000Y-100350000D02*
X136068400Y-100350000D01*
X136068400Y-100350000D02*
X134204960Y-102213440D01*
X134204960Y-102213440D02*
X134204960Y-103900000D01*
D34*
X141200000Y-100350000D02*
X144805000Y-100350000D01*
X144805000Y-100350000D02*
X145550000Y-99605000D01*
X145550000Y-99605000D02*
X145550000Y-99400000D01*
D33*
X141200000Y-100350000D02*
X141200000Y-100400000D01*
D34*
X147450000Y-99400000D02*
X149000000Y-99400000D01*
X143200000Y-101300000D02*
X144501592Y-101300000D01*
X144501592Y-101300000D02*
X145301592Y-100500000D01*
X145301592Y-100500000D02*
X147134000Y-100500000D01*
X147134000Y-100500000D02*
X147450000Y-100184000D01*
X147450000Y-100184000D02*
X147450000Y-99400000D01*
X147450000Y-101600000D02*
X149000000Y-101600000D01*
X146500000Y-101600000D02*
X147450000Y-101600000D01*
X145550000Y-101600000D02*
X146500000Y-101600000D01*
G36*
X187358336Y-52281228D02*
X188119906Y-52790094D01*
X188628772Y-53551666D01*
X188820000Y-54513037D01*
X188820000Y-71342463D01*
X188602807Y-71197338D01*
X188528512Y-71182560D01*
X188214000Y-71120000D01*
X181915241Y-71120000D01*
X181918421Y-71116820D01*
X182138662Y-70787207D01*
X182216000Y-70398400D01*
X182216000Y-67030255D01*
X182216861Y-67026003D01*
X182246838Y-67185317D01*
X182385910Y-67401441D01*
X182579583Y-67533772D01*
X182498559Y-67585910D01*
X182353569Y-67798110D01*
X182302560Y-68050000D01*
X182302560Y-68950000D01*
X182346838Y-69185317D01*
X182485910Y-69401441D01*
X182698110Y-69546431D01*
X182950000Y-69597440D01*
X183450000Y-69597440D01*
X183685317Y-69553162D01*
X183901441Y-69414090D01*
X183947969Y-69345994D01*
X184090302Y-69488327D01*
X184323691Y-69585000D01*
X184416250Y-69585000D01*
X184575000Y-69426250D01*
X184575000Y-68627000D01*
X184825000Y-68627000D01*
X184825000Y-69426250D01*
X184983750Y-69585000D01*
X185076309Y-69585000D01*
X185309698Y-69488327D01*
X185488327Y-69309699D01*
X185585000Y-69076310D01*
X185585000Y-68785750D01*
X185426250Y-68627000D01*
X184825000Y-68627000D01*
X184575000Y-68627000D01*
X184553000Y-68627000D01*
X184553000Y-68373000D01*
X184575000Y-68373000D01*
X184575000Y-68353000D01*
X184825000Y-68353000D01*
X184825000Y-68373000D01*
X185426250Y-68373000D01*
X185585000Y-68214250D01*
X185585000Y-67923690D01*
X185488327Y-67690301D01*
X185309698Y-67511673D01*
X185212415Y-67471377D01*
X185301441Y-67414090D01*
X185446431Y-67201890D01*
X185497440Y-66950000D01*
X185497440Y-66050000D01*
X185453162Y-65814683D01*
X185362000Y-65673013D01*
X185362000Y-65147792D01*
X185311950Y-64896176D01*
X185465302Y-65049527D01*
X185698691Y-65146200D01*
X186314250Y-65146200D01*
X186473000Y-64987450D01*
X186473000Y-64338200D01*
X186727000Y-64338200D01*
X186727000Y-64987450D01*
X186885750Y-65146200D01*
X187501309Y-65146200D01*
X187734698Y-65049527D01*
X187913327Y-64870899D01*
X188010000Y-64637510D01*
X188010000Y-64496950D01*
X187851250Y-64338200D01*
X186727000Y-64338200D01*
X186473000Y-64338200D01*
X185348750Y-64338200D01*
X185190000Y-64496950D01*
X185190000Y-64637510D01*
X185242386Y-64763981D01*
X185138815Y-64608976D01*
X183756789Y-63226950D01*
X185190000Y-63226950D01*
X185190000Y-63367510D01*
X185276442Y-63576200D01*
X185190000Y-63784890D01*
X185190000Y-63925450D01*
X185348750Y-64084200D01*
X186473000Y-64084200D01*
X186473000Y-63068200D01*
X186727000Y-63068200D01*
X186727000Y-64084200D01*
X187851250Y-64084200D01*
X188010000Y-63925450D01*
X188010000Y-63784890D01*
X187923558Y-63576200D01*
X188010000Y-63367510D01*
X188010000Y-63226950D01*
X187851250Y-63068200D01*
X186727000Y-63068200D01*
X186473000Y-63068200D01*
X185348750Y-63068200D01*
X185190000Y-63226950D01*
X183756789Y-63226950D01*
X182932223Y-62402385D01*
X182781693Y-62301804D01*
X182685013Y-62237204D01*
X182573082Y-62214939D01*
X182622440Y-61971200D01*
X182622440Y-61956950D01*
X185190000Y-61956950D01*
X185190000Y-62097510D01*
X185276442Y-62306200D01*
X185190000Y-62514890D01*
X185190000Y-62655450D01*
X185348750Y-62814200D01*
X186473000Y-62814200D01*
X186473000Y-61798200D01*
X186727000Y-61798200D01*
X186727000Y-62814200D01*
X187851250Y-62814200D01*
X188010000Y-62655450D01*
X188010000Y-62514890D01*
X187923558Y-62306200D01*
X188010000Y-62097510D01*
X188010000Y-61956950D01*
X187851250Y-61798200D01*
X186727000Y-61798200D01*
X186473000Y-61798200D01*
X185348750Y-61798200D01*
X185190000Y-61956950D01*
X182622440Y-61956950D01*
X182622440Y-61371200D01*
X182578162Y-61135883D01*
X182514322Y-61036672D01*
X182571431Y-60953090D01*
X182622440Y-60701200D01*
X182622440Y-60686950D01*
X185190000Y-60686950D01*
X185190000Y-60827510D01*
X185276442Y-61036200D01*
X185190000Y-61244890D01*
X185190000Y-61385450D01*
X185348750Y-61544200D01*
X186473000Y-61544200D01*
X186473000Y-60528200D01*
X186727000Y-60528200D01*
X186727000Y-61544200D01*
X187851250Y-61544200D01*
X188010000Y-61385450D01*
X188010000Y-61244890D01*
X187923558Y-61036200D01*
X188010000Y-60827510D01*
X188010000Y-60686950D01*
X187851250Y-60528200D01*
X186727000Y-60528200D01*
X186473000Y-60528200D01*
X185348750Y-60528200D01*
X185190000Y-60686950D01*
X182622440Y-60686950D01*
X182622440Y-60101200D01*
X182598674Y-59974890D01*
X185190000Y-59974890D01*
X185190000Y-60115450D01*
X185348750Y-60274200D01*
X186473000Y-60274200D01*
X186473000Y-59624950D01*
X186727000Y-59624950D01*
X186727000Y-60274200D01*
X187851250Y-60274200D01*
X188010000Y-60115450D01*
X188010000Y-59974890D01*
X187913327Y-59741501D01*
X187734698Y-59562873D01*
X187501309Y-59466200D01*
X186885750Y-59466200D01*
X186727000Y-59624950D01*
X186473000Y-59624950D01*
X186314250Y-59466200D01*
X185698691Y-59466200D01*
X185465302Y-59562873D01*
X185286673Y-59741501D01*
X185190000Y-59974890D01*
X182598674Y-59974890D01*
X182578162Y-59865883D01*
X182439090Y-59649759D01*
X182226890Y-59504769D01*
X181975000Y-59453760D01*
X180425000Y-59453760D01*
X180189683Y-59498038D01*
X179973559Y-59637110D01*
X179828569Y-59849310D01*
X179777560Y-60101200D01*
X179777560Y-60271009D01*
X178415100Y-61633469D01*
X176710815Y-59929185D01*
X176698760Y-59921130D01*
X174618815Y-57841185D01*
X174562366Y-57803467D01*
X174371605Y-57676004D01*
X174302976Y-57662353D01*
X174405054Y-57594147D01*
X174625000Y-57264974D01*
X174844946Y-57594147D01*
X175326715Y-57916054D01*
X175895000Y-58029093D01*
X176463285Y-57916054D01*
X176945054Y-57594147D01*
X177165000Y-57264974D01*
X177384946Y-57594147D01*
X177866715Y-57916054D01*
X178435000Y-58029093D01*
X179003285Y-57916054D01*
X179485054Y-57594147D01*
X179712702Y-57253447D01*
X179779817Y-57396358D01*
X180208076Y-57786645D01*
X180618110Y-57956476D01*
X180848000Y-57835155D01*
X180848000Y-56642000D01*
X181102000Y-56642000D01*
X181102000Y-57835155D01*
X181331890Y-57956476D01*
X181741924Y-57786645D01*
X182170183Y-57396358D01*
X182416486Y-56871892D01*
X182295819Y-56642000D01*
X181102000Y-56642000D01*
X180848000Y-56642000D01*
X180828000Y-56642000D01*
X180828000Y-56388000D01*
X180848000Y-56388000D01*
X180848000Y-56368000D01*
X181102000Y-56368000D01*
X181102000Y-56388000D01*
X182295819Y-56388000D01*
X182416486Y-56158108D01*
X182170183Y-55633642D01*
X181741924Y-55243355D01*
X181741899Y-55243345D01*
X182025054Y-55054147D01*
X182061233Y-55000000D01*
X183860000Y-55000000D01*
X184022898Y-55818943D01*
X184486791Y-56513209D01*
X185181057Y-56977102D01*
X186000000Y-57140000D01*
X186818943Y-56977102D01*
X187513209Y-56513209D01*
X187977102Y-55818943D01*
X188140000Y-55000000D01*
X187977102Y-54181057D01*
X187513209Y-53486791D01*
X186818943Y-53022898D01*
X186000000Y-52860000D01*
X185181057Y-53022898D01*
X184486791Y-53486791D01*
X184022898Y-54181057D01*
X183860000Y-55000000D01*
X182061233Y-55000000D01*
X182346961Y-54572378D01*
X182460000Y-54004093D01*
X182460000Y-53945907D01*
X182346961Y-53377622D01*
X182025054Y-52895853D01*
X181543285Y-52573946D01*
X180975000Y-52460907D01*
X180406715Y-52573946D01*
X179924946Y-52895853D01*
X179705000Y-53225026D01*
X179485054Y-52895853D01*
X179003285Y-52573946D01*
X178435000Y-52460907D01*
X177866715Y-52573946D01*
X177384946Y-52895853D01*
X177165000Y-53225026D01*
X176945054Y-52895853D01*
X176463285Y-52573946D01*
X175895000Y-52460907D01*
X175326715Y-52573946D01*
X174844946Y-52895853D01*
X174617298Y-53236553D01*
X174550183Y-53093642D01*
X174121924Y-52703355D01*
X173711890Y-52533524D01*
X173482000Y-52654845D01*
X173482000Y-53848000D01*
X173502000Y-53848000D01*
X173502000Y-54102000D01*
X173482000Y-54102000D01*
X173482000Y-54122000D01*
X173228000Y-54122000D01*
X173228000Y-54102000D01*
X173208000Y-54102000D01*
X173208000Y-53848000D01*
X173228000Y-53848000D01*
X173228000Y-52654845D01*
X172998110Y-52533524D01*
X172588076Y-52703355D01*
X172159817Y-53093642D01*
X172092702Y-53236553D01*
X171865054Y-52895853D01*
X171383285Y-52573946D01*
X170815000Y-52460907D01*
X170246715Y-52573946D01*
X169764946Y-52895853D01*
X169545000Y-53225026D01*
X169325054Y-52895853D01*
X168843285Y-52573946D01*
X168275000Y-52460907D01*
X167706715Y-52573946D01*
X167224946Y-52895853D01*
X167005000Y-53225026D01*
X166785054Y-52895853D01*
X166303285Y-52573946D01*
X165735000Y-52460907D01*
X165166715Y-52573946D01*
X164684946Y-52895853D01*
X164465000Y-53225026D01*
X164245054Y-52895853D01*
X163763285Y-52573946D01*
X163195000Y-52460907D01*
X162626715Y-52573946D01*
X162144946Y-52895853D01*
X161925000Y-53225026D01*
X161705054Y-52895853D01*
X161223285Y-52573946D01*
X160655000Y-52460907D01*
X160086715Y-52573946D01*
X159604946Y-52895853D01*
X159385000Y-53225026D01*
X159165054Y-52895853D01*
X158683285Y-52573946D01*
X158115000Y-52460907D01*
X157546715Y-52573946D01*
X157064946Y-52895853D01*
X156837298Y-53236553D01*
X156770183Y-53093642D01*
X156341924Y-52703355D01*
X155931890Y-52533524D01*
X155702000Y-52654845D01*
X155702000Y-53848000D01*
X155722000Y-53848000D01*
X155722000Y-54102000D01*
X155702000Y-54102000D01*
X155702000Y-54122000D01*
X155448000Y-54122000D01*
X155448000Y-54102000D01*
X155428000Y-54102000D01*
X155428000Y-53848000D01*
X155448000Y-53848000D01*
X155448000Y-52654845D01*
X155218110Y-52533524D01*
X154808076Y-52703355D01*
X154379817Y-53093642D01*
X154312702Y-53236553D01*
X154085054Y-52895853D01*
X153603285Y-52573946D01*
X153035000Y-52460907D01*
X152466715Y-52573946D01*
X151984946Y-52895853D01*
X151765000Y-53225026D01*
X151545054Y-52895853D01*
X151063285Y-52573946D01*
X150495000Y-52460907D01*
X149926715Y-52573946D01*
X149444946Y-52895853D01*
X149217298Y-53236553D01*
X149150183Y-53093642D01*
X148721924Y-52703355D01*
X148311890Y-52533524D01*
X148082000Y-52654845D01*
X148082000Y-53848000D01*
X148102000Y-53848000D01*
X148102000Y-54102000D01*
X148082000Y-54102000D01*
X148082000Y-54122000D01*
X147828000Y-54122000D01*
X147828000Y-54102000D01*
X147808000Y-54102000D01*
X147808000Y-53848000D01*
X147828000Y-53848000D01*
X147828000Y-52654845D01*
X147598110Y-52533524D01*
X147188076Y-52703355D01*
X146759817Y-53093642D01*
X146692702Y-53236553D01*
X146465054Y-52895853D01*
X145983285Y-52573946D01*
X145415000Y-52460907D01*
X144846715Y-52573946D01*
X144364946Y-52895853D01*
X144145000Y-53225026D01*
X143925054Y-52895853D01*
X143443285Y-52573946D01*
X142875000Y-52460907D01*
X142306715Y-52573946D01*
X141824946Y-52895853D01*
X141605000Y-53225026D01*
X141385054Y-52895853D01*
X140903285Y-52573946D01*
X140335000Y-52460907D01*
X139766715Y-52573946D01*
X139284946Y-52895853D01*
X139057298Y-53236553D01*
X138990183Y-53093642D01*
X138561924Y-52703355D01*
X138151890Y-52533524D01*
X137922000Y-52654845D01*
X137922000Y-53848000D01*
X137942000Y-53848000D01*
X137942000Y-54102000D01*
X137922000Y-54102000D01*
X137922000Y-54122000D01*
X137668000Y-54122000D01*
X137668000Y-54102000D01*
X137648000Y-54102000D01*
X137648000Y-53848000D01*
X137668000Y-53848000D01*
X137668000Y-52654845D01*
X137438110Y-52533524D01*
X137028076Y-52703355D01*
X136599817Y-53093642D01*
X136532702Y-53236553D01*
X136305054Y-52895853D01*
X135823285Y-52573946D01*
X135255000Y-52460907D01*
X134686715Y-52573946D01*
X134204946Y-52895853D01*
X134162753Y-52959000D01*
X133807247Y-52959000D01*
X133765054Y-52895853D01*
X133283285Y-52573946D01*
X132715000Y-52460907D01*
X132146715Y-52573946D01*
X131664946Y-52895853D01*
X131622753Y-52959000D01*
X131025000Y-52959000D01*
X130703762Y-53022898D01*
X130636193Y-53036338D01*
X130306580Y-53256579D01*
X130091580Y-53471580D01*
X129871338Y-53801193D01*
X129871338Y-53801194D01*
X129837375Y-53971940D01*
X129513209Y-53486791D01*
X128818943Y-53022898D01*
X128000000Y-52860000D01*
X127181057Y-53022898D01*
X126486791Y-53486791D01*
X126022898Y-54181057D01*
X125860000Y-55000000D01*
X126022898Y-55818943D01*
X126486791Y-56513209D01*
X127181057Y-56977102D01*
X128000000Y-57140000D01*
X128818943Y-56977102D01*
X129513209Y-56513209D01*
X129794000Y-56092975D01*
X129794000Y-61971136D01*
X129675197Y-62257244D01*
X129674803Y-62708775D01*
X129847233Y-63126086D01*
X130166235Y-63445645D01*
X130415516Y-63549156D01*
X134894780Y-68028421D01*
X135224393Y-68248662D01*
X135613200Y-68326000D01*
X148169160Y-68326000D01*
X149355580Y-69512421D01*
X149685193Y-69732662D01*
X149749700Y-69745493D01*
X150074000Y-69810000D01*
X154733160Y-69810000D01*
X155430551Y-70507392D01*
X155382000Y-70497560D01*
X153932000Y-70497560D01*
X153696683Y-70541838D01*
X153480559Y-70680910D01*
X153335569Y-70893110D01*
X153284560Y-71145000D01*
X153284560Y-71258000D01*
X152599631Y-71258000D01*
X151795815Y-70454185D01*
X151734478Y-70413201D01*
X151548605Y-70289004D01*
X151257000Y-70231000D01*
X148217184Y-70231000D01*
X147998670Y-69903971D01*
X147512489Y-69579115D01*
X146939000Y-69465041D01*
X146365511Y-69579115D01*
X145879330Y-69903971D01*
X145663336Y-70227228D01*
X145605821Y-70104510D01*
X145173947Y-69710312D01*
X144758026Y-69538042D01*
X144526000Y-69659183D01*
X144526000Y-70866000D01*
X144546000Y-70866000D01*
X144546000Y-71120000D01*
X144526000Y-71120000D01*
X144526000Y-71140000D01*
X144272000Y-71140000D01*
X144272000Y-71120000D01*
X143064531Y-71120000D01*
X142944032Y-71352027D01*
X143013852Y-71501000D01*
X137910148Y-71501000D01*
X137979968Y-71352027D01*
X137859469Y-71120000D01*
X136652000Y-71120000D01*
X136652000Y-71140000D01*
X136398000Y-71140000D01*
X136398000Y-71120000D01*
X136378000Y-71120000D01*
X136378000Y-70866000D01*
X136398000Y-70866000D01*
X136398000Y-69659183D01*
X136652000Y-69659183D01*
X136652000Y-70866000D01*
X137859469Y-70866000D01*
X137979968Y-70633973D01*
X142944032Y-70633973D01*
X143064531Y-70866000D01*
X144272000Y-70866000D01*
X144272000Y-69659183D01*
X144039974Y-69538042D01*
X143624053Y-69710312D01*
X143192179Y-70104510D01*
X142944032Y-70633973D01*
X137979968Y-70633973D01*
X137731821Y-70104510D01*
X137299947Y-69710312D01*
X136884026Y-69538042D01*
X136652000Y-69659183D01*
X136398000Y-69659183D01*
X136165974Y-69538042D01*
X135750053Y-69710312D01*
X135318179Y-70104510D01*
X135260664Y-70227228D01*
X135044670Y-69903971D01*
X134558489Y-69579115D01*
X133985000Y-69465041D01*
X133411511Y-69579115D01*
X132925330Y-69903971D01*
X132600474Y-70390152D01*
X132486400Y-70963641D01*
X132486400Y-71022359D01*
X132600474Y-71595848D01*
X132925330Y-72082029D01*
X133196172Y-72263000D01*
X132925330Y-72443971D01*
X132600474Y-72930152D01*
X132486400Y-73503641D01*
X132486400Y-73562359D01*
X132600474Y-74135848D01*
X132925330Y-74622029D01*
X133196172Y-74803000D01*
X132925330Y-74983971D01*
X132600474Y-75470152D01*
X132486400Y-76043641D01*
X132486400Y-76102359D01*
X132600474Y-76675848D01*
X132607197Y-76685909D01*
X132430184Y-76804185D01*
X131083975Y-78150395D01*
X130918794Y-78397605D01*
X130860790Y-78689210D01*
X130860790Y-89851382D01*
X130918794Y-90142987D01*
X131001113Y-90266185D01*
X131083975Y-90390197D01*
X132494802Y-91801025D01*
X132640773Y-91898559D01*
X132742012Y-91966205D01*
X133033617Y-92024209D01*
X145567390Y-92024210D01*
X145858995Y-91966206D01*
X146106205Y-91801025D01*
X146106206Y-91801024D01*
X147477815Y-90429416D01*
X147574952Y-90284040D01*
X147802600Y-90284040D01*
X148037917Y-90239762D01*
X148254041Y-90100690D01*
X148399031Y-89888490D01*
X148450040Y-89636600D01*
X148450040Y-89535000D01*
X151384000Y-89535000D01*
X151675605Y-89476996D01*
X151922815Y-89311815D01*
X153107628Y-88127002D01*
X153113073Y-88127002D01*
X153081569Y-88173110D01*
X153066442Y-88247808D01*
X153043000Y-88271250D01*
X153043000Y-88351310D01*
X153044667Y-88355335D01*
X153030560Y-88425000D01*
X153030560Y-88875000D01*
X153074838Y-89110317D01*
X153213910Y-89326441D01*
X153426110Y-89471431D01*
X153678000Y-89522440D01*
X155128000Y-89522440D01*
X155363317Y-89478162D01*
X155466136Y-89412000D01*
X156234621Y-89412000D01*
X156314673Y-89492192D01*
X156658201Y-89634838D01*
X157030167Y-89635162D01*
X157373943Y-89493117D01*
X157455202Y-89412000D01*
X159239130Y-89412000D01*
X159326110Y-89471431D01*
X159578000Y-89522440D01*
X161028000Y-89522440D01*
X161263317Y-89478162D01*
X161479441Y-89339090D01*
X161624431Y-89126890D01*
X161675440Y-88875000D01*
X161675440Y-88762000D01*
X166806960Y-88762000D01*
X167098565Y-88703996D01*
X167345775Y-88538815D01*
X170128815Y-85755775D01*
X170226765Y-85609183D01*
X170293996Y-85508565D01*
X170352000Y-85216960D01*
X170352000Y-84854557D01*
X170465000Y-84877440D01*
X170715000Y-84877440D01*
X170844589Y-84853056D01*
X170965000Y-84877440D01*
X171215000Y-84877440D01*
X171328000Y-84856178D01*
X171328000Y-87448000D01*
X171386004Y-87739605D01*
X171497776Y-87906883D01*
X171551185Y-87986815D01*
X171829482Y-88265112D01*
X171514833Y-88264838D01*
X171171057Y-88406883D01*
X171032099Y-88545599D01*
X171011583Y-88442460D01*
X170945104Y-88281965D01*
X170916021Y-88211752D01*
X170699248Y-87887328D01*
X170522672Y-87710753D01*
X170522671Y-87710752D01*
X170198248Y-87493979D01*
X170087244Y-87448000D01*
X169967540Y-87398417D01*
X169584857Y-87322297D01*
X169460000Y-87322297D01*
X168952460Y-87398417D01*
X168832756Y-87448000D01*
X168721752Y-87493979D01*
X168397328Y-87710752D01*
X168397327Y-87710753D01*
X168220752Y-87887329D01*
X168003979Y-88211752D01*
X167974896Y-88281965D01*
X167908417Y-88442460D01*
X167832297Y-88825143D01*
X167832297Y-88888178D01*
X167820000Y-88950000D01*
X167820000Y-103950000D01*
X167832297Y-104011822D01*
X167832297Y-104074857D01*
X167886327Y-104346487D01*
X165735000Y-102195160D01*
X165735000Y-100203000D01*
X165657662Y-99814194D01*
X165535643Y-99631580D01*
X165437420Y-99484579D01*
X163024420Y-97071580D01*
X162694807Y-96851338D01*
X162306000Y-96774001D01*
X161917193Y-96851338D01*
X161907239Y-96857989D01*
X161776250Y-96727000D01*
X160527000Y-96727000D01*
X160527000Y-97626250D01*
X160685750Y-97785000D01*
X161290996Y-97785000D01*
X161290001Y-97790000D01*
X161367338Y-98178807D01*
X161587580Y-98508420D01*
X163703000Y-100623841D01*
X163703000Y-102616000D01*
X163738461Y-102794274D01*
X163780338Y-103004807D01*
X164000580Y-103334420D01*
X167556579Y-106890420D01*
X167640452Y-106946462D01*
X167886194Y-107110662D01*
X168275000Y-107188000D01*
X170747081Y-107188000D01*
X171071381Y-107123493D01*
X171135888Y-107110662D01*
X171465501Y-106890420D01*
X173855921Y-104500000D01*
X183860000Y-104500000D01*
X184022898Y-105318943D01*
X184486791Y-106013209D01*
X185181057Y-106477102D01*
X186000000Y-106640000D01*
X186818943Y-106477102D01*
X187513209Y-106013209D01*
X187977102Y-105318943D01*
X188140000Y-104500000D01*
X187977102Y-103681057D01*
X187513209Y-102986791D01*
X186818943Y-102522898D01*
X186000000Y-102360000D01*
X185181057Y-102522898D01*
X184486791Y-102986791D01*
X184022898Y-103681057D01*
X183860000Y-104500000D01*
X173855921Y-104500000D01*
X174454421Y-103901501D01*
X174674662Y-103571888D01*
X174703396Y-103427431D01*
X174752000Y-103183081D01*
X174752000Y-103073247D01*
X174815147Y-103031054D01*
X174815971Y-103029821D01*
X174822838Y-103066317D01*
X174961910Y-103282441D01*
X175174110Y-103427431D01*
X175426000Y-103478440D01*
X177126000Y-103478440D01*
X177361317Y-103434162D01*
X177577441Y-103295090D01*
X177722431Y-103082890D01*
X177739824Y-102997000D01*
X177888000Y-102997000D01*
X178215482Y-102931860D01*
X178276807Y-102919662D01*
X178606420Y-102699420D01*
X179407420Y-101898421D01*
X179627662Y-101568807D01*
X179658710Y-101412715D01*
X179705000Y-101180000D01*
X179705000Y-99197630D01*
X179797279Y-99105351D01*
X179869110Y-99154431D01*
X180121000Y-99205440D01*
X181321000Y-99205440D01*
X181556317Y-99161162D01*
X181772441Y-99022090D01*
X181805299Y-98974000D01*
X182275704Y-98974000D01*
X182298510Y-99009441D01*
X182510710Y-99154431D01*
X182762600Y-99205440D01*
X183962600Y-99205440D01*
X184197917Y-99161162D01*
X184414041Y-99022090D01*
X184446899Y-98974000D01*
X184724600Y-98974000D01*
X185085645Y-98902184D01*
X185113407Y-98896662D01*
X185443020Y-98676420D01*
X187012709Y-97106731D01*
X187332086Y-96974767D01*
X187651645Y-96655765D01*
X187771346Y-96367494D01*
X188820000Y-95318841D01*
X188820000Y-104886963D01*
X188628772Y-105848334D01*
X188119906Y-106609906D01*
X187358336Y-107118772D01*
X186396963Y-107310000D01*
X127523037Y-107310000D01*
X126561666Y-107118772D01*
X125800094Y-106609906D01*
X125291228Y-105848336D01*
X125100000Y-104886963D01*
X125100000Y-104500000D01*
X125860000Y-104500000D01*
X126022898Y-105318943D01*
X126486791Y-106013209D01*
X127181057Y-106477102D01*
X128000000Y-106640000D01*
X128818943Y-106477102D01*
X129513209Y-106013209D01*
X129977102Y-105318943D01*
X130140000Y-104500000D01*
X129977102Y-103681057D01*
X129513209Y-102986791D01*
X129496222Y-102975440D01*
X132632960Y-102975440D01*
X132632960Y-104824560D01*
X132677238Y-105059877D01*
X132816310Y-105276001D01*
X133028510Y-105420991D01*
X133280400Y-105472000D01*
X135129520Y-105472000D01*
X135364837Y-105427722D01*
X135580961Y-105288650D01*
X135725951Y-105076450D01*
X135741850Y-104997938D01*
X136781667Y-104997938D01*
X136871086Y-105256968D01*
X137453472Y-105470887D01*
X138073391Y-105445652D01*
X138528914Y-105256968D01*
X138618333Y-104997938D01*
X137700000Y-104079605D01*
X136781667Y-104997938D01*
X135741850Y-104997938D01*
X135776960Y-104824560D01*
X135776960Y-103653472D01*
X136129113Y-103653472D01*
X136154348Y-104273391D01*
X136343032Y-104728914D01*
X136602062Y-104818333D01*
X137520395Y-103900000D01*
X137879605Y-103900000D01*
X138797938Y-104818333D01*
X139056968Y-104728914D01*
X139270887Y-104146528D01*
X139254746Y-103750000D01*
X151482560Y-103750000D01*
X151482560Y-105450000D01*
X151526838Y-105685317D01*
X151665910Y-105901441D01*
X151878110Y-106046431D01*
X152130000Y-106097440D01*
X153830000Y-106097440D01*
X154065317Y-106053162D01*
X154281441Y-105914090D01*
X154426431Y-105701890D01*
X154440086Y-105634459D01*
X154469946Y-105679147D01*
X154951715Y-106001054D01*
X155520000Y-106114093D01*
X156088285Y-106001054D01*
X156570054Y-105679147D01*
X156790000Y-105349974D01*
X157009946Y-105679147D01*
X157491715Y-106001054D01*
X158060000Y-106114093D01*
X158628285Y-106001054D01*
X159110054Y-105679147D01*
X159330000Y-105349974D01*
X159549946Y-105679147D01*
X160031715Y-106001054D01*
X160600000Y-106114093D01*
X161168285Y-106001054D01*
X161650054Y-105679147D01*
X161877702Y-105338447D01*
X161944817Y-105481358D01*
X162373076Y-105871645D01*
X162783110Y-106041476D01*
X163013000Y-105920155D01*
X163013000Y-104727000D01*
X163267000Y-104727000D01*
X163267000Y-105920155D01*
X163496890Y-106041476D01*
X163906924Y-105871645D01*
X164335183Y-105481358D01*
X164581486Y-104956892D01*
X164460819Y-104727000D01*
X163267000Y-104727000D01*
X163013000Y-104727000D01*
X162993000Y-104727000D01*
X162993000Y-104473000D01*
X163013000Y-104473000D01*
X163013000Y-103279845D01*
X163267000Y-103279845D01*
X163267000Y-104473000D01*
X164460819Y-104473000D01*
X164581486Y-104243108D01*
X164335183Y-103718642D01*
X163906924Y-103328355D01*
X163496890Y-103158524D01*
X163267000Y-103279845D01*
X163013000Y-103279845D01*
X162783110Y-103158524D01*
X162373076Y-103328355D01*
X161944817Y-103718642D01*
X161877702Y-103861553D01*
X161650054Y-103520853D01*
X161168285Y-103198946D01*
X160600000Y-103085907D01*
X160031715Y-103198946D01*
X159549946Y-103520853D01*
X159330000Y-103850026D01*
X159110054Y-103520853D01*
X158628285Y-103198946D01*
X158060000Y-103085907D01*
X157491715Y-103198946D01*
X157009946Y-103520853D01*
X156790000Y-103850026D01*
X156570054Y-103520853D01*
X156088285Y-103198946D01*
X155520000Y-103085907D01*
X154951715Y-103198946D01*
X154469946Y-103520853D01*
X154442150Y-103562452D01*
X154433162Y-103514683D01*
X154294090Y-103298559D01*
X154081890Y-103153569D01*
X153830000Y-103102560D01*
X152130000Y-103102560D01*
X151894683Y-103146838D01*
X151678559Y-103285910D01*
X151533569Y-103498110D01*
X151482560Y-103750000D01*
X139254746Y-103750000D01*
X139245652Y-103526609D01*
X139056968Y-103071086D01*
X138797938Y-102981667D01*
X137879605Y-103900000D01*
X137520395Y-103900000D01*
X136602062Y-102981667D01*
X136343032Y-103071086D01*
X136129113Y-103653472D01*
X135776960Y-103653472D01*
X135776960Y-102975440D01*
X135744337Y-102802062D01*
X136781667Y-102802062D01*
X137700000Y-103720395D01*
X138618333Y-102802062D01*
X138528914Y-102543032D01*
X137946528Y-102329113D01*
X137326609Y-102354348D01*
X136871086Y-102543032D01*
X136781667Y-102802062D01*
X135744337Y-102802062D01*
X135732682Y-102740123D01*
X135593610Y-102523999D01*
X135437742Y-102417499D01*
X136489241Y-101366000D01*
X140594745Y-101366000D01*
X140750000Y-101397440D01*
X141106692Y-101397440D01*
X141200000Y-101416000D01*
X141293308Y-101397440D01*
X141650000Y-101397440D01*
X141885317Y-101353162D01*
X142101441Y-101214090D01*
X142102560Y-101212452D01*
X142102560Y-101700000D01*
X142146838Y-101935317D01*
X142285910Y-102151441D01*
X142498110Y-102296431D01*
X142750000Y-102347440D01*
X143650000Y-102347440D01*
X143885317Y-102303162D01*
X144101441Y-102164090D01*
X144171196Y-102062000D01*
X144501592Y-102062000D01*
X144577560Y-102046889D01*
X144577560Y-102130000D01*
X144621838Y-102365317D01*
X144760910Y-102581441D01*
X144973110Y-102726431D01*
X145225000Y-102777440D01*
X145875000Y-102777440D01*
X146030507Y-102748179D01*
X146175000Y-102777440D01*
X146825000Y-102777440D01*
X146980507Y-102748179D01*
X147125000Y-102777440D01*
X147775000Y-102777440D01*
X148010317Y-102733162D01*
X148226441Y-102594090D01*
X148288525Y-102503228D01*
X148498110Y-102646431D01*
X148750000Y-102697440D01*
X149250000Y-102697440D01*
X149485317Y-102653162D01*
X149701441Y-102514090D01*
X149747969Y-102445994D01*
X149890302Y-102588327D01*
X150123691Y-102685000D01*
X150216250Y-102685000D01*
X150375000Y-102526250D01*
X150375000Y-101727000D01*
X150625000Y-101727000D01*
X150625000Y-102526250D01*
X150783750Y-102685000D01*
X150876309Y-102685000D01*
X151109698Y-102588327D01*
X151288327Y-102409699D01*
X151385000Y-102176310D01*
X151385000Y-101885750D01*
X151226250Y-101727000D01*
X150625000Y-101727000D01*
X150375000Y-101727000D01*
X150353000Y-101727000D01*
X150353000Y-101473000D01*
X150375000Y-101473000D01*
X150375000Y-100673750D01*
X150625000Y-100673750D01*
X150625000Y-101473000D01*
X151226250Y-101473000D01*
X151385000Y-101314250D01*
X151385000Y-101023690D01*
X151288327Y-100790301D01*
X151109698Y-100611673D01*
X150876309Y-100515000D01*
X150783750Y-100515000D01*
X150625000Y-100673750D01*
X150375000Y-100673750D01*
X150216250Y-100515000D01*
X150123691Y-100515000D01*
X149890302Y-100611673D01*
X149749064Y-100752910D01*
X149714090Y-100698559D01*
X149501890Y-100553569D01*
X149250000Y-100502560D01*
X148750000Y-100502560D01*
X148514683Y-100546838D01*
X148298559Y-100685910D01*
X148290252Y-100698067D01*
X148239090Y-100618559D01*
X148115089Y-100533833D01*
X148153996Y-100475605D01*
X148161956Y-100435585D01*
X148226441Y-100394090D01*
X148288525Y-100303228D01*
X148498110Y-100446431D01*
X148750000Y-100497440D01*
X149250000Y-100497440D01*
X149485317Y-100453162D01*
X149701441Y-100314090D01*
X149747969Y-100245994D01*
X149890302Y-100388327D01*
X150123691Y-100485000D01*
X150216250Y-100485000D01*
X150375000Y-100326250D01*
X150375000Y-99527000D01*
X150625000Y-99527000D01*
X150625000Y-100326250D01*
X150783750Y-100485000D01*
X150876309Y-100485000D01*
X151109698Y-100388327D01*
X151288327Y-100209699D01*
X151385000Y-99976310D01*
X151385000Y-99685750D01*
X151226250Y-99527000D01*
X150625000Y-99527000D01*
X150375000Y-99527000D01*
X150353000Y-99527000D01*
X150353000Y-99273000D01*
X150375000Y-99273000D01*
X150375000Y-98473750D01*
X150625000Y-98473750D01*
X150625000Y-99273000D01*
X151226250Y-99273000D01*
X151385000Y-99114250D01*
X151385000Y-98823690D01*
X151288327Y-98590301D01*
X151109698Y-98411673D01*
X150876309Y-98315000D01*
X150783750Y-98315000D01*
X150625000Y-98473750D01*
X150375000Y-98473750D01*
X150216250Y-98315000D01*
X150123691Y-98315000D01*
X149890302Y-98411673D01*
X149749064Y-98552910D01*
X149714090Y-98498559D01*
X149501890Y-98353569D01*
X149250000Y-98302560D01*
X148750000Y-98302560D01*
X148514683Y-98346838D01*
X148298559Y-98485910D01*
X148290252Y-98498067D01*
X148239090Y-98418559D01*
X148026890Y-98273569D01*
X147775000Y-98222560D01*
X147135952Y-98222560D01*
X147038815Y-98077185D01*
X146524235Y-97562605D01*
X147201090Y-96885750D01*
X152665000Y-96885750D01*
X152665000Y-97276310D01*
X152761673Y-97509699D01*
X152940302Y-97688327D01*
X153173691Y-97785000D01*
X153914250Y-97785000D01*
X154073000Y-97626250D01*
X154073000Y-96727000D01*
X154327000Y-96727000D01*
X154327000Y-97626250D01*
X154485750Y-97785000D01*
X155226309Y-97785000D01*
X155459698Y-97688327D01*
X155638327Y-97509699D01*
X155735000Y-97276310D01*
X155735000Y-96885750D01*
X158865000Y-96885750D01*
X158865000Y-97276310D01*
X158961673Y-97509699D01*
X159140302Y-97688327D01*
X159373691Y-97785000D01*
X160114250Y-97785000D01*
X160273000Y-97626250D01*
X160273000Y-96727000D01*
X159023750Y-96727000D01*
X158865000Y-96885750D01*
X155735000Y-96885750D01*
X155576250Y-96727000D01*
X154327000Y-96727000D01*
X154073000Y-96727000D01*
X152823750Y-96727000D01*
X152665000Y-96885750D01*
X147201090Y-96885750D01*
X148103111Y-95983730D01*
X152665000Y-95983730D01*
X152665000Y-96314250D01*
X152823750Y-96473000D01*
X154073000Y-96473000D01*
X154073000Y-96453000D01*
X154327000Y-96453000D01*
X154327000Y-96473000D01*
X155576250Y-96473000D01*
X155735000Y-96314250D01*
X155735000Y-95923690D01*
X158865000Y-95923690D01*
X158865000Y-96314250D01*
X159023750Y-96473000D01*
X160273000Y-96473000D01*
X160273000Y-95573750D01*
X160527000Y-95573750D01*
X160527000Y-96473000D01*
X161776250Y-96473000D01*
X161935000Y-96314250D01*
X161935000Y-95923690D01*
X161838327Y-95690301D01*
X161659698Y-95511673D01*
X161426309Y-95415000D01*
X160685750Y-95415000D01*
X160527000Y-95573750D01*
X160273000Y-95573750D01*
X160114250Y-95415000D01*
X159373691Y-95415000D01*
X159140302Y-95511673D01*
X158961673Y-95690301D01*
X158865000Y-95923690D01*
X155735000Y-95923690D01*
X155638327Y-95690301D01*
X155459698Y-95511673D01*
X155226309Y-95415000D01*
X154831867Y-95415000D01*
X154870932Y-95356536D01*
X154948270Y-94967730D01*
X154870932Y-94578924D01*
X154650690Y-94249310D01*
X154423401Y-94097440D01*
X155100000Y-94097440D01*
X155335317Y-94053162D01*
X155551441Y-93914090D01*
X155696431Y-93701890D01*
X155704509Y-93662000D01*
X158892451Y-93662000D01*
X158896838Y-93685317D01*
X159035910Y-93901441D01*
X159248110Y-94046431D01*
X159500000Y-94097440D01*
X161300000Y-94097440D01*
X161535317Y-94053162D01*
X161751441Y-93914090D01*
X161896431Y-93701890D01*
X161904509Y-93662000D01*
X163094443Y-93662000D01*
X163135910Y-93726441D01*
X163348110Y-93871431D01*
X163600000Y-93922440D01*
X164400000Y-93922440D01*
X164635317Y-93878162D01*
X164738646Y-93811671D01*
X164740302Y-93813327D01*
X164973691Y-93910000D01*
X165214250Y-93910000D01*
X165373000Y-93751250D01*
X165373000Y-93027000D01*
X165627000Y-93027000D01*
X165627000Y-93751250D01*
X165785750Y-93910000D01*
X166026309Y-93910000D01*
X166259698Y-93813327D01*
X166438327Y-93634699D01*
X166535000Y-93401310D01*
X166535000Y-93185750D01*
X166376250Y-93027000D01*
X165627000Y-93027000D01*
X165373000Y-93027000D01*
X165353000Y-93027000D01*
X165353000Y-92773000D01*
X165373000Y-92773000D01*
X165373000Y-92048750D01*
X165627000Y-92048750D01*
X165627000Y-92773000D01*
X166376250Y-92773000D01*
X166535000Y-92614250D01*
X166535000Y-92398690D01*
X166438327Y-92165301D01*
X166259698Y-91986673D01*
X166026309Y-91890000D01*
X165785750Y-91890000D01*
X165627000Y-92048750D01*
X165373000Y-92048750D01*
X165214250Y-91890000D01*
X164973691Y-91890000D01*
X164762000Y-91977685D01*
X164762000Y-91458630D01*
X164861506Y-91359125D01*
X164904167Y-91359162D01*
X165247943Y-91217117D01*
X165511192Y-90954327D01*
X165653838Y-90610799D01*
X165654162Y-90238833D01*
X165512117Y-89895057D01*
X165249327Y-89631808D01*
X164905799Y-89489162D01*
X164533833Y-89488838D01*
X164190057Y-89630883D01*
X163926808Y-89893673D01*
X163784162Y-90237201D01*
X163784124Y-90281246D01*
X163461185Y-90604185D01*
X163296004Y-90851395D01*
X163238000Y-91143000D01*
X163238000Y-92003356D01*
X163148559Y-92060910D01*
X163095886Y-92138000D01*
X161907549Y-92138000D01*
X161903162Y-92114683D01*
X161764090Y-91898559D01*
X161551890Y-91753569D01*
X161300000Y-91702560D01*
X159500000Y-91702560D01*
X159264683Y-91746838D01*
X159048559Y-91885910D01*
X158903569Y-92098110D01*
X158895491Y-92138000D01*
X155707549Y-92138000D01*
X155703162Y-92114683D01*
X155564090Y-91898559D01*
X155351890Y-91753569D01*
X155100000Y-91702560D01*
X153300000Y-91702560D01*
X153064683Y-91746838D01*
X152848559Y-91885910D01*
X152703569Y-92098110D01*
X152652560Y-92350000D01*
X152652560Y-93450000D01*
X152696838Y-93685317D01*
X152835910Y-93901441D01*
X152909510Y-93951730D01*
X147682270Y-93951730D01*
X147357970Y-94016237D01*
X147293463Y-94029068D01*
X146963850Y-94249309D01*
X144481582Y-96731578D01*
X144481579Y-96731580D01*
X142860600Y-98352560D01*
X142750000Y-98352560D01*
X142514683Y-98396838D01*
X142298559Y-98535910D01*
X142153569Y-98748110D01*
X142102560Y-99000000D01*
X142102560Y-99490681D01*
X141901890Y-99353569D01*
X141650000Y-99302560D01*
X140750000Y-99302560D01*
X140582911Y-99334000D01*
X136068400Y-99334000D01*
X135744100Y-99398507D01*
X135679593Y-99411338D01*
X135349979Y-99631580D01*
X133486540Y-101495020D01*
X133266298Y-101824633D01*
X133266298Y-101824634D01*
X133188960Y-102213440D01*
X133188960Y-102345206D01*
X133045083Y-102372278D01*
X132828959Y-102511350D01*
X132683969Y-102723550D01*
X132632960Y-102975440D01*
X129496222Y-102975440D01*
X128818943Y-102522898D01*
X128000000Y-102360000D01*
X127181057Y-102522898D01*
X126486791Y-102986791D01*
X126022898Y-103681057D01*
X125860000Y-104500000D01*
X125100000Y-104500000D01*
X125100000Y-98785750D01*
X127965000Y-98785750D01*
X127965000Y-99626310D01*
X128061673Y-99859699D01*
X128240302Y-100038327D01*
X128473691Y-100135000D01*
X129314250Y-100135000D01*
X129473000Y-99976250D01*
X129473000Y-98627000D01*
X129727000Y-98627000D01*
X129727000Y-99976250D01*
X129885750Y-100135000D01*
X130726309Y-100135000D01*
X130959698Y-100038327D01*
X131138327Y-99859699D01*
X131235000Y-99626310D01*
X131235000Y-98785750D01*
X131076250Y-98627000D01*
X129727000Y-98627000D01*
X129473000Y-98627000D01*
X128123750Y-98627000D01*
X127965000Y-98785750D01*
X125100000Y-98785750D01*
X125100000Y-97373690D01*
X127965000Y-97373690D01*
X127965000Y-98214250D01*
X128123750Y-98373000D01*
X129473000Y-98373000D01*
X129473000Y-97023750D01*
X129727000Y-97023750D01*
X129727000Y-98373000D01*
X131076250Y-98373000D01*
X131235000Y-98214250D01*
X131235000Y-97373690D01*
X131138327Y-97140301D01*
X130959698Y-96961673D01*
X130726309Y-96865000D01*
X129885750Y-96865000D01*
X129727000Y-97023750D01*
X129473000Y-97023750D01*
X129314250Y-96865000D01*
X128473691Y-96865000D01*
X128240302Y-96961673D01*
X128061673Y-97140301D01*
X127965000Y-97373690D01*
X125100000Y-97373690D01*
X125100000Y-89513035D01*
X125138987Y-89317033D01*
X125214308Y-89204307D01*
X125327032Y-89128987D01*
X125523035Y-89090000D01*
X128460000Y-89090000D01*
X128521822Y-89077703D01*
X128584857Y-89077703D01*
X128967540Y-89001583D01*
X129112340Y-88941605D01*
X129198248Y-88906021D01*
X129522671Y-88689248D01*
X129699247Y-88512673D01*
X129699248Y-88512672D01*
X129916021Y-88188248D01*
X129965413Y-88069004D01*
X130011583Y-87957540D01*
X130087703Y-87574857D01*
X130087703Y-87511822D01*
X130100000Y-87450000D01*
X130100000Y-72450000D01*
X130087703Y-72388178D01*
X130087703Y-72325143D01*
X130011583Y-71942460D01*
X129939483Y-71768395D01*
X129916021Y-71711752D01*
X129699248Y-71387328D01*
X129522672Y-71210753D01*
X129522671Y-71210752D01*
X129198248Y-70993979D01*
X129102686Y-70954396D01*
X128967540Y-70898417D01*
X128584857Y-70822297D01*
X128521822Y-70822297D01*
X128460000Y-70810000D01*
X125523035Y-70810000D01*
X125327032Y-70771013D01*
X125214308Y-70695693D01*
X125138987Y-70582967D01*
X125100000Y-70386965D01*
X125100000Y-54513037D01*
X125291228Y-53551664D01*
X125800094Y-52790094D01*
X126561666Y-52281228D01*
X127523037Y-52090000D01*
X186396963Y-52090000D01*
X187358336Y-52281228D01*
X187358336Y-52281228D01*
G37*
X187358336Y-52281228D02*
X188119906Y-52790094D01*
X188628772Y-53551666D01*
X188820000Y-54513037D01*
X188820000Y-71342463D01*
X188602807Y-71197338D01*
X188528512Y-71182560D01*
X188214000Y-71120000D01*
X181915241Y-71120000D01*
X181918421Y-71116820D01*
X182138662Y-70787207D01*
X182216000Y-70398400D01*
X182216000Y-67030255D01*
X182216861Y-67026003D01*
X182246838Y-67185317D01*
X182385910Y-67401441D01*
X182579583Y-67533772D01*
X182498559Y-67585910D01*
X182353569Y-67798110D01*
X182302560Y-68050000D01*
X182302560Y-68950000D01*
X182346838Y-69185317D01*
X182485910Y-69401441D01*
X182698110Y-69546431D01*
X182950000Y-69597440D01*
X183450000Y-69597440D01*
X183685317Y-69553162D01*
X183901441Y-69414090D01*
X183947969Y-69345994D01*
X184090302Y-69488327D01*
X184323691Y-69585000D01*
X184416250Y-69585000D01*
X184575000Y-69426250D01*
X184575000Y-68627000D01*
X184825000Y-68627000D01*
X184825000Y-69426250D01*
X184983750Y-69585000D01*
X185076309Y-69585000D01*
X185309698Y-69488327D01*
X185488327Y-69309699D01*
X185585000Y-69076310D01*
X185585000Y-68785750D01*
X185426250Y-68627000D01*
X184825000Y-68627000D01*
X184575000Y-68627000D01*
X184553000Y-68627000D01*
X184553000Y-68373000D01*
X184575000Y-68373000D01*
X184575000Y-68353000D01*
X184825000Y-68353000D01*
X184825000Y-68373000D01*
X185426250Y-68373000D01*
X185585000Y-68214250D01*
X185585000Y-67923690D01*
X185488327Y-67690301D01*
X185309698Y-67511673D01*
X185212415Y-67471377D01*
X185301441Y-67414090D01*
X185446431Y-67201890D01*
X185497440Y-66950000D01*
X185497440Y-66050000D01*
X185453162Y-65814683D01*
X185362000Y-65673013D01*
X185362000Y-65147792D01*
X185311950Y-64896176D01*
X185465302Y-65049527D01*
X185698691Y-65146200D01*
X186314250Y-65146200D01*
X186473000Y-64987450D01*
X186473000Y-64338200D01*
X186727000Y-64338200D01*
X186727000Y-64987450D01*
X186885750Y-65146200D01*
X187501309Y-65146200D01*
X187734698Y-65049527D01*
X187913327Y-64870899D01*
X188010000Y-64637510D01*
X188010000Y-64496950D01*
X187851250Y-64338200D01*
X186727000Y-64338200D01*
X186473000Y-64338200D01*
X185348750Y-64338200D01*
X185190000Y-64496950D01*
X185190000Y-64637510D01*
X185242386Y-64763981D01*
X185138815Y-64608976D01*
X183756789Y-63226950D01*
X185190000Y-63226950D01*
X185190000Y-63367510D01*
X185276442Y-63576200D01*
X185190000Y-63784890D01*
X185190000Y-63925450D01*
X185348750Y-64084200D01*
X186473000Y-64084200D01*
X186473000Y-63068200D01*
X186727000Y-63068200D01*
X186727000Y-64084200D01*
X187851250Y-64084200D01*
X188010000Y-63925450D01*
X188010000Y-63784890D01*
X187923558Y-63576200D01*
X188010000Y-63367510D01*
X188010000Y-63226950D01*
X187851250Y-63068200D01*
X186727000Y-63068200D01*
X186473000Y-63068200D01*
X185348750Y-63068200D01*
X185190000Y-63226950D01*
X183756789Y-63226950D01*
X182932223Y-62402385D01*
X182781693Y-62301804D01*
X182685013Y-62237204D01*
X182573082Y-62214939D01*
X182622440Y-61971200D01*
X182622440Y-61956950D01*
X185190000Y-61956950D01*
X185190000Y-62097510D01*
X185276442Y-62306200D01*
X185190000Y-62514890D01*
X185190000Y-62655450D01*
X185348750Y-62814200D01*
X186473000Y-62814200D01*
X186473000Y-61798200D01*
X186727000Y-61798200D01*
X186727000Y-62814200D01*
X187851250Y-62814200D01*
X188010000Y-62655450D01*
X188010000Y-62514890D01*
X187923558Y-62306200D01*
X188010000Y-62097510D01*
X188010000Y-61956950D01*
X187851250Y-61798200D01*
X186727000Y-61798200D01*
X186473000Y-61798200D01*
X185348750Y-61798200D01*
X185190000Y-61956950D01*
X182622440Y-61956950D01*
X182622440Y-61371200D01*
X182578162Y-61135883D01*
X182514322Y-61036672D01*
X182571431Y-60953090D01*
X182622440Y-60701200D01*
X182622440Y-60686950D01*
X185190000Y-60686950D01*
X185190000Y-60827510D01*
X185276442Y-61036200D01*
X185190000Y-61244890D01*
X185190000Y-61385450D01*
X185348750Y-61544200D01*
X186473000Y-61544200D01*
X186473000Y-60528200D01*
X186727000Y-60528200D01*
X186727000Y-61544200D01*
X187851250Y-61544200D01*
X188010000Y-61385450D01*
X188010000Y-61244890D01*
X187923558Y-61036200D01*
X188010000Y-60827510D01*
X188010000Y-60686950D01*
X187851250Y-60528200D01*
X186727000Y-60528200D01*
X186473000Y-60528200D01*
X185348750Y-60528200D01*
X185190000Y-60686950D01*
X182622440Y-60686950D01*
X182622440Y-60101200D01*
X182598674Y-59974890D01*
X185190000Y-59974890D01*
X185190000Y-60115450D01*
X185348750Y-60274200D01*
X186473000Y-60274200D01*
X186473000Y-59624950D01*
X186727000Y-59624950D01*
X186727000Y-60274200D01*
X187851250Y-60274200D01*
X188010000Y-60115450D01*
X188010000Y-59974890D01*
X187913327Y-59741501D01*
X187734698Y-59562873D01*
X187501309Y-59466200D01*
X186885750Y-59466200D01*
X186727000Y-59624950D01*
X186473000Y-59624950D01*
X186314250Y-59466200D01*
X185698691Y-59466200D01*
X185465302Y-59562873D01*
X185286673Y-59741501D01*
X185190000Y-59974890D01*
X182598674Y-59974890D01*
X182578162Y-59865883D01*
X182439090Y-59649759D01*
X182226890Y-59504769D01*
X181975000Y-59453760D01*
X180425000Y-59453760D01*
X180189683Y-59498038D01*
X179973559Y-59637110D01*
X179828569Y-59849310D01*
X179777560Y-60101200D01*
X179777560Y-60271009D01*
X178415100Y-61633469D01*
X176710815Y-59929185D01*
X176698760Y-59921130D01*
X174618815Y-57841185D01*
X174562366Y-57803467D01*
X174371605Y-57676004D01*
X174302976Y-57662353D01*
X174405054Y-57594147D01*
X174625000Y-57264974D01*
X174844946Y-57594147D01*
X175326715Y-57916054D01*
X175895000Y-58029093D01*
X176463285Y-57916054D01*
X176945054Y-57594147D01*
X177165000Y-57264974D01*
X177384946Y-57594147D01*
X177866715Y-57916054D01*
X178435000Y-58029093D01*
X179003285Y-57916054D01*
X179485054Y-57594147D01*
X179712702Y-57253447D01*
X179779817Y-57396358D01*
X180208076Y-57786645D01*
X180618110Y-57956476D01*
X180848000Y-57835155D01*
X180848000Y-56642000D01*
X181102000Y-56642000D01*
X181102000Y-57835155D01*
X181331890Y-57956476D01*
X181741924Y-57786645D01*
X182170183Y-57396358D01*
X182416486Y-56871892D01*
X182295819Y-56642000D01*
X181102000Y-56642000D01*
X180848000Y-56642000D01*
X180828000Y-56642000D01*
X180828000Y-56388000D01*
X180848000Y-56388000D01*
X180848000Y-56368000D01*
X181102000Y-56368000D01*
X181102000Y-56388000D01*
X182295819Y-56388000D01*
X182416486Y-56158108D01*
X182170183Y-55633642D01*
X181741924Y-55243355D01*
X181741899Y-55243345D01*
X182025054Y-55054147D01*
X182061233Y-55000000D01*
X183860000Y-55000000D01*
X184022898Y-55818943D01*
X184486791Y-56513209D01*
X185181057Y-56977102D01*
X186000000Y-57140000D01*
X186818943Y-56977102D01*
X187513209Y-56513209D01*
X187977102Y-55818943D01*
X188140000Y-55000000D01*
X187977102Y-54181057D01*
X187513209Y-53486791D01*
X186818943Y-53022898D01*
X186000000Y-52860000D01*
X185181057Y-53022898D01*
X184486791Y-53486791D01*
X184022898Y-54181057D01*
X183860000Y-55000000D01*
X182061233Y-55000000D01*
X182346961Y-54572378D01*
X182460000Y-54004093D01*
X182460000Y-53945907D01*
X182346961Y-53377622D01*
X182025054Y-52895853D01*
X181543285Y-52573946D01*
X180975000Y-52460907D01*
X180406715Y-52573946D01*
X179924946Y-52895853D01*
X179705000Y-53225026D01*
X179485054Y-52895853D01*
X179003285Y-52573946D01*
X178435000Y-52460907D01*
X177866715Y-52573946D01*
X177384946Y-52895853D01*
X177165000Y-53225026D01*
X176945054Y-52895853D01*
X176463285Y-52573946D01*
X175895000Y-52460907D01*
X175326715Y-52573946D01*
X174844946Y-52895853D01*
X174617298Y-53236553D01*
X174550183Y-53093642D01*
X174121924Y-52703355D01*
X173711890Y-52533524D01*
X173482000Y-52654845D01*
X173482000Y-53848000D01*
X173502000Y-53848000D01*
X173502000Y-54102000D01*
X173482000Y-54102000D01*
X173482000Y-54122000D01*
X173228000Y-54122000D01*
X173228000Y-54102000D01*
X173208000Y-54102000D01*
X173208000Y-53848000D01*
X173228000Y-53848000D01*
X173228000Y-52654845D01*
X172998110Y-52533524D01*
X172588076Y-52703355D01*
X172159817Y-53093642D01*
X172092702Y-53236553D01*
X171865054Y-52895853D01*
X171383285Y-52573946D01*
X170815000Y-52460907D01*
X170246715Y-52573946D01*
X169764946Y-52895853D01*
X169545000Y-53225026D01*
X169325054Y-52895853D01*
X168843285Y-52573946D01*
X168275000Y-52460907D01*
X167706715Y-52573946D01*
X167224946Y-52895853D01*
X167005000Y-53225026D01*
X166785054Y-52895853D01*
X166303285Y-52573946D01*
X165735000Y-52460907D01*
X165166715Y-52573946D01*
X164684946Y-52895853D01*
X164465000Y-53225026D01*
X164245054Y-52895853D01*
X163763285Y-52573946D01*
X163195000Y-52460907D01*
X162626715Y-52573946D01*
X162144946Y-52895853D01*
X161925000Y-53225026D01*
X161705054Y-52895853D01*
X161223285Y-52573946D01*
X160655000Y-52460907D01*
X160086715Y-52573946D01*
X159604946Y-52895853D01*
X159385000Y-53225026D01*
X159165054Y-52895853D01*
X158683285Y-52573946D01*
X158115000Y-52460907D01*
X157546715Y-52573946D01*
X157064946Y-52895853D01*
X156837298Y-53236553D01*
X156770183Y-53093642D01*
X156341924Y-52703355D01*
X155931890Y-52533524D01*
X155702000Y-52654845D01*
X155702000Y-53848000D01*
X155722000Y-53848000D01*
X155722000Y-54102000D01*
X155702000Y-54102000D01*
X155702000Y-54122000D01*
X155448000Y-54122000D01*
X155448000Y-54102000D01*
X155428000Y-54102000D01*
X155428000Y-53848000D01*
X155448000Y-53848000D01*
X155448000Y-52654845D01*
X155218110Y-52533524D01*
X154808076Y-52703355D01*
X154379817Y-53093642D01*
X154312702Y-53236553D01*
X154085054Y-52895853D01*
X153603285Y-52573946D01*
X153035000Y-52460907D01*
X152466715Y-52573946D01*
X151984946Y-52895853D01*
X151765000Y-53225026D01*
X151545054Y-52895853D01*
X151063285Y-52573946D01*
X150495000Y-52460907D01*
X149926715Y-52573946D01*
X149444946Y-52895853D01*
X149217298Y-53236553D01*
X149150183Y-53093642D01*
X148721924Y-52703355D01*
X148311890Y-52533524D01*
X148082000Y-52654845D01*
X148082000Y-53848000D01*
X148102000Y-53848000D01*
X148102000Y-54102000D01*
X148082000Y-54102000D01*
X148082000Y-54122000D01*
X147828000Y-54122000D01*
X147828000Y-54102000D01*
X147808000Y-54102000D01*
X147808000Y-53848000D01*
X147828000Y-53848000D01*
X147828000Y-52654845D01*
X147598110Y-52533524D01*
X147188076Y-52703355D01*
X146759817Y-53093642D01*
X146692702Y-53236553D01*
X146465054Y-52895853D01*
X145983285Y-52573946D01*
X145415000Y-52460907D01*
X144846715Y-52573946D01*
X144364946Y-52895853D01*
X144145000Y-53225026D01*
X143925054Y-52895853D01*
X143443285Y-52573946D01*
X142875000Y-52460907D01*
X142306715Y-52573946D01*
X141824946Y-52895853D01*
X141605000Y-53225026D01*
X141385054Y-52895853D01*
X140903285Y-52573946D01*
X140335000Y-52460907D01*
X139766715Y-52573946D01*
X139284946Y-52895853D01*
X139057298Y-53236553D01*
X138990183Y-53093642D01*
X138561924Y-52703355D01*
X138151890Y-52533524D01*
X137922000Y-52654845D01*
X137922000Y-53848000D01*
X137942000Y-53848000D01*
X137942000Y-54102000D01*
X137922000Y-54102000D01*
X137922000Y-54122000D01*
X137668000Y-54122000D01*
X137668000Y-54102000D01*
X137648000Y-54102000D01*
X137648000Y-53848000D01*
X137668000Y-53848000D01*
X137668000Y-52654845D01*
X137438110Y-52533524D01*
X137028076Y-52703355D01*
X136599817Y-53093642D01*
X136532702Y-53236553D01*
X136305054Y-52895853D01*
X135823285Y-52573946D01*
X135255000Y-52460907D01*
X134686715Y-52573946D01*
X134204946Y-52895853D01*
X134162753Y-52959000D01*
X133807247Y-52959000D01*
X133765054Y-52895853D01*
X133283285Y-52573946D01*
X132715000Y-52460907D01*
X132146715Y-52573946D01*
X131664946Y-52895853D01*
X131622753Y-52959000D01*
X131025000Y-52959000D01*
X130703762Y-53022898D01*
X130636193Y-53036338D01*
X130306580Y-53256579D01*
X130091580Y-53471580D01*
X129871338Y-53801193D01*
X129871338Y-53801194D01*
X129837375Y-53971940D01*
X129513209Y-53486791D01*
X128818943Y-53022898D01*
X128000000Y-52860000D01*
X127181057Y-53022898D01*
X126486791Y-53486791D01*
X126022898Y-54181057D01*
X125860000Y-55000000D01*
X126022898Y-55818943D01*
X126486791Y-56513209D01*
X127181057Y-56977102D01*
X128000000Y-57140000D01*
X128818943Y-56977102D01*
X129513209Y-56513209D01*
X129794000Y-56092975D01*
X129794000Y-61971136D01*
X129675197Y-62257244D01*
X129674803Y-62708775D01*
X129847233Y-63126086D01*
X130166235Y-63445645D01*
X130415516Y-63549156D01*
X134894780Y-68028421D01*
X135224393Y-68248662D01*
X135613200Y-68326000D01*
X148169160Y-68326000D01*
X149355580Y-69512421D01*
X149685193Y-69732662D01*
X149749700Y-69745493D01*
X150074000Y-69810000D01*
X154733160Y-69810000D01*
X155430551Y-70507392D01*
X155382000Y-70497560D01*
X153932000Y-70497560D01*
X153696683Y-70541838D01*
X153480559Y-70680910D01*
X153335569Y-70893110D01*
X153284560Y-71145000D01*
X153284560Y-71258000D01*
X152599631Y-71258000D01*
X151795815Y-70454185D01*
X151734478Y-70413201D01*
X151548605Y-70289004D01*
X151257000Y-70231000D01*
X148217184Y-70231000D01*
X147998670Y-69903971D01*
X147512489Y-69579115D01*
X146939000Y-69465041D01*
X146365511Y-69579115D01*
X145879330Y-69903971D01*
X145663336Y-70227228D01*
X145605821Y-70104510D01*
X145173947Y-69710312D01*
X144758026Y-69538042D01*
X144526000Y-69659183D01*
X144526000Y-70866000D01*
X144546000Y-70866000D01*
X144546000Y-71120000D01*
X144526000Y-71120000D01*
X144526000Y-71140000D01*
X144272000Y-71140000D01*
X144272000Y-71120000D01*
X143064531Y-71120000D01*
X142944032Y-71352027D01*
X143013852Y-71501000D01*
X137910148Y-71501000D01*
X137979968Y-71352027D01*
X137859469Y-71120000D01*
X136652000Y-71120000D01*
X136652000Y-71140000D01*
X136398000Y-71140000D01*
X136398000Y-71120000D01*
X136378000Y-71120000D01*
X136378000Y-70866000D01*
X136398000Y-70866000D01*
X136398000Y-69659183D01*
X136652000Y-69659183D01*
X136652000Y-70866000D01*
X137859469Y-70866000D01*
X137979968Y-70633973D01*
X142944032Y-70633973D01*
X143064531Y-70866000D01*
X144272000Y-70866000D01*
X144272000Y-69659183D01*
X144039974Y-69538042D01*
X143624053Y-69710312D01*
X143192179Y-70104510D01*
X142944032Y-70633973D01*
X137979968Y-70633973D01*
X137731821Y-70104510D01*
X137299947Y-69710312D01*
X136884026Y-69538042D01*
X136652000Y-69659183D01*
X136398000Y-69659183D01*
X136165974Y-69538042D01*
X135750053Y-69710312D01*
X135318179Y-70104510D01*
X135260664Y-70227228D01*
X135044670Y-69903971D01*
X134558489Y-69579115D01*
X133985000Y-69465041D01*
X133411511Y-69579115D01*
X132925330Y-69903971D01*
X132600474Y-70390152D01*
X132486400Y-70963641D01*
X132486400Y-71022359D01*
X132600474Y-71595848D01*
X132925330Y-72082029D01*
X133196172Y-72263000D01*
X132925330Y-72443971D01*
X132600474Y-72930152D01*
X132486400Y-73503641D01*
X132486400Y-73562359D01*
X132600474Y-74135848D01*
X132925330Y-74622029D01*
X133196172Y-74803000D01*
X132925330Y-74983971D01*
X132600474Y-75470152D01*
X132486400Y-76043641D01*
X132486400Y-76102359D01*
X132600474Y-76675848D01*
X132607197Y-76685909D01*
X132430184Y-76804185D01*
X131083975Y-78150395D01*
X130918794Y-78397605D01*
X130860790Y-78689210D01*
X130860790Y-89851382D01*
X130918794Y-90142987D01*
X131001113Y-90266185D01*
X131083975Y-90390197D01*
X132494802Y-91801025D01*
X132640773Y-91898559D01*
X132742012Y-91966205D01*
X133033617Y-92024209D01*
X145567390Y-92024210D01*
X145858995Y-91966206D01*
X146106205Y-91801025D01*
X146106206Y-91801024D01*
X147477815Y-90429416D01*
X147574952Y-90284040D01*
X147802600Y-90284040D01*
X148037917Y-90239762D01*
X148254041Y-90100690D01*
X148399031Y-89888490D01*
X148450040Y-89636600D01*
X148450040Y-89535000D01*
X151384000Y-89535000D01*
X151675605Y-89476996D01*
X151922815Y-89311815D01*
X153107628Y-88127002D01*
X153113073Y-88127002D01*
X153081569Y-88173110D01*
X153066442Y-88247808D01*
X153043000Y-88271250D01*
X153043000Y-88351310D01*
X153044667Y-88355335D01*
X153030560Y-88425000D01*
X153030560Y-88875000D01*
X153074838Y-89110317D01*
X153213910Y-89326441D01*
X153426110Y-89471431D01*
X153678000Y-89522440D01*
X155128000Y-89522440D01*
X155363317Y-89478162D01*
X155466136Y-89412000D01*
X156234621Y-89412000D01*
X156314673Y-89492192D01*
X156658201Y-89634838D01*
X157030167Y-89635162D01*
X157373943Y-89493117D01*
X157455202Y-89412000D01*
X159239130Y-89412000D01*
X159326110Y-89471431D01*
X159578000Y-89522440D01*
X161028000Y-89522440D01*
X161263317Y-89478162D01*
X161479441Y-89339090D01*
X161624431Y-89126890D01*
X161675440Y-88875000D01*
X161675440Y-88762000D01*
X166806960Y-88762000D01*
X167098565Y-88703996D01*
X167345775Y-88538815D01*
X170128815Y-85755775D01*
X170226765Y-85609183D01*
X170293996Y-85508565D01*
X170352000Y-85216960D01*
X170352000Y-84854557D01*
X170465000Y-84877440D01*
X170715000Y-84877440D01*
X170844589Y-84853056D01*
X170965000Y-84877440D01*
X171215000Y-84877440D01*
X171328000Y-84856178D01*
X171328000Y-87448000D01*
X171386004Y-87739605D01*
X171497776Y-87906883D01*
X171551185Y-87986815D01*
X171829482Y-88265112D01*
X171514833Y-88264838D01*
X171171057Y-88406883D01*
X171032099Y-88545599D01*
X171011583Y-88442460D01*
X170945104Y-88281965D01*
X170916021Y-88211752D01*
X170699248Y-87887328D01*
X170522672Y-87710753D01*
X170522671Y-87710752D01*
X170198248Y-87493979D01*
X170087244Y-87448000D01*
X169967540Y-87398417D01*
X169584857Y-87322297D01*
X169460000Y-87322297D01*
X168952460Y-87398417D01*
X168832756Y-87448000D01*
X168721752Y-87493979D01*
X168397328Y-87710752D01*
X168397327Y-87710753D01*
X168220752Y-87887329D01*
X168003979Y-88211752D01*
X167974896Y-88281965D01*
X167908417Y-88442460D01*
X167832297Y-88825143D01*
X167832297Y-88888178D01*
X167820000Y-88950000D01*
X167820000Y-103950000D01*
X167832297Y-104011822D01*
X167832297Y-104074857D01*
X167886327Y-104346487D01*
X165735000Y-102195160D01*
X165735000Y-100203000D01*
X165657662Y-99814194D01*
X165535643Y-99631580D01*
X165437420Y-99484579D01*
X163024420Y-97071580D01*
X162694807Y-96851338D01*
X162306000Y-96774001D01*
X161917193Y-96851338D01*
X161907239Y-96857989D01*
X161776250Y-96727000D01*
X160527000Y-96727000D01*
X160527000Y-97626250D01*
X160685750Y-97785000D01*
X161290996Y-97785000D01*
X161290001Y-97790000D01*
X161367338Y-98178807D01*
X161587580Y-98508420D01*
X163703000Y-100623841D01*
X163703000Y-102616000D01*
X163738461Y-102794274D01*
X163780338Y-103004807D01*
X164000580Y-103334420D01*
X167556579Y-106890420D01*
X167640452Y-106946462D01*
X167886194Y-107110662D01*
X168275000Y-107188000D01*
X170747081Y-107188000D01*
X171071381Y-107123493D01*
X171135888Y-107110662D01*
X171465501Y-106890420D01*
X173855921Y-104500000D01*
X183860000Y-104500000D01*
X184022898Y-105318943D01*
X184486791Y-106013209D01*
X185181057Y-106477102D01*
X186000000Y-106640000D01*
X186818943Y-106477102D01*
X187513209Y-106013209D01*
X187977102Y-105318943D01*
X188140000Y-104500000D01*
X187977102Y-103681057D01*
X187513209Y-102986791D01*
X186818943Y-102522898D01*
X186000000Y-102360000D01*
X185181057Y-102522898D01*
X184486791Y-102986791D01*
X184022898Y-103681057D01*
X183860000Y-104500000D01*
X173855921Y-104500000D01*
X174454421Y-103901501D01*
X174674662Y-103571888D01*
X174703396Y-103427431D01*
X174752000Y-103183081D01*
X174752000Y-103073247D01*
X174815147Y-103031054D01*
X174815971Y-103029821D01*
X174822838Y-103066317D01*
X174961910Y-103282441D01*
X175174110Y-103427431D01*
X175426000Y-103478440D01*
X177126000Y-103478440D01*
X177361317Y-103434162D01*
X177577441Y-103295090D01*
X177722431Y-103082890D01*
X177739824Y-102997000D01*
X177888000Y-102997000D01*
X178215482Y-102931860D01*
X178276807Y-102919662D01*
X178606420Y-102699420D01*
X179407420Y-101898421D01*
X179627662Y-101568807D01*
X179658710Y-101412715D01*
X179705000Y-101180000D01*
X179705000Y-99197630D01*
X179797279Y-99105351D01*
X179869110Y-99154431D01*
X180121000Y-99205440D01*
X181321000Y-99205440D01*
X181556317Y-99161162D01*
X181772441Y-99022090D01*
X181805299Y-98974000D01*
X182275704Y-98974000D01*
X182298510Y-99009441D01*
X182510710Y-99154431D01*
X182762600Y-99205440D01*
X183962600Y-99205440D01*
X184197917Y-99161162D01*
X184414041Y-99022090D01*
X184446899Y-98974000D01*
X184724600Y-98974000D01*
X185085645Y-98902184D01*
X185113407Y-98896662D01*
X185443020Y-98676420D01*
X187012709Y-97106731D01*
X187332086Y-96974767D01*
X187651645Y-96655765D01*
X187771346Y-96367494D01*
X188820000Y-95318841D01*
X188820000Y-104886963D01*
X188628772Y-105848334D01*
X188119906Y-106609906D01*
X187358336Y-107118772D01*
X186396963Y-107310000D01*
X127523037Y-107310000D01*
X126561666Y-107118772D01*
X125800094Y-106609906D01*
X125291228Y-105848336D01*
X125100000Y-104886963D01*
X125100000Y-104500000D01*
X125860000Y-104500000D01*
X126022898Y-105318943D01*
X126486791Y-106013209D01*
X127181057Y-106477102D01*
X128000000Y-106640000D01*
X128818943Y-106477102D01*
X129513209Y-106013209D01*
X129977102Y-105318943D01*
X130140000Y-104500000D01*
X129977102Y-103681057D01*
X129513209Y-102986791D01*
X129496222Y-102975440D01*
X132632960Y-102975440D01*
X132632960Y-104824560D01*
X132677238Y-105059877D01*
X132816310Y-105276001D01*
X133028510Y-105420991D01*
X133280400Y-105472000D01*
X135129520Y-105472000D01*
X135364837Y-105427722D01*
X135580961Y-105288650D01*
X135725951Y-105076450D01*
X135741850Y-104997938D01*
X136781667Y-104997938D01*
X136871086Y-105256968D01*
X137453472Y-105470887D01*
X138073391Y-105445652D01*
X138528914Y-105256968D01*
X138618333Y-104997938D01*
X137700000Y-104079605D01*
X136781667Y-104997938D01*
X135741850Y-104997938D01*
X135776960Y-104824560D01*
X135776960Y-103653472D01*
X136129113Y-103653472D01*
X136154348Y-104273391D01*
X136343032Y-104728914D01*
X136602062Y-104818333D01*
X137520395Y-103900000D01*
X137879605Y-103900000D01*
X138797938Y-104818333D01*
X139056968Y-104728914D01*
X139270887Y-104146528D01*
X139254746Y-103750000D01*
X151482560Y-103750000D01*
X151482560Y-105450000D01*
X151526838Y-105685317D01*
X151665910Y-105901441D01*
X151878110Y-106046431D01*
X152130000Y-106097440D01*
X153830000Y-106097440D01*
X154065317Y-106053162D01*
X154281441Y-105914090D01*
X154426431Y-105701890D01*
X154440086Y-105634459D01*
X154469946Y-105679147D01*
X154951715Y-106001054D01*
X155520000Y-106114093D01*
X156088285Y-106001054D01*
X156570054Y-105679147D01*
X156790000Y-105349974D01*
X157009946Y-105679147D01*
X157491715Y-106001054D01*
X158060000Y-106114093D01*
X158628285Y-106001054D01*
X159110054Y-105679147D01*
X159330000Y-105349974D01*
X159549946Y-105679147D01*
X160031715Y-106001054D01*
X160600000Y-106114093D01*
X161168285Y-106001054D01*
X161650054Y-105679147D01*
X161877702Y-105338447D01*
X161944817Y-105481358D01*
X162373076Y-105871645D01*
X162783110Y-106041476D01*
X163013000Y-105920155D01*
X163013000Y-104727000D01*
X163267000Y-104727000D01*
X163267000Y-105920155D01*
X163496890Y-106041476D01*
X163906924Y-105871645D01*
X164335183Y-105481358D01*
X164581486Y-104956892D01*
X164460819Y-104727000D01*
X163267000Y-104727000D01*
X163013000Y-104727000D01*
X162993000Y-104727000D01*
X162993000Y-104473000D01*
X163013000Y-104473000D01*
X163013000Y-103279845D01*
X163267000Y-103279845D01*
X163267000Y-104473000D01*
X164460819Y-104473000D01*
X164581486Y-104243108D01*
X164335183Y-103718642D01*
X163906924Y-103328355D01*
X163496890Y-103158524D01*
X163267000Y-103279845D01*
X163013000Y-103279845D01*
X162783110Y-103158524D01*
X162373076Y-103328355D01*
X161944817Y-103718642D01*
X161877702Y-103861553D01*
X161650054Y-103520853D01*
X161168285Y-103198946D01*
X160600000Y-103085907D01*
X160031715Y-103198946D01*
X159549946Y-103520853D01*
X159330000Y-103850026D01*
X159110054Y-103520853D01*
X158628285Y-103198946D01*
X158060000Y-103085907D01*
X157491715Y-103198946D01*
X157009946Y-103520853D01*
X156790000Y-103850026D01*
X156570054Y-103520853D01*
X156088285Y-103198946D01*
X155520000Y-103085907D01*
X154951715Y-103198946D01*
X154469946Y-103520853D01*
X154442150Y-103562452D01*
X154433162Y-103514683D01*
X154294090Y-103298559D01*
X154081890Y-103153569D01*
X153830000Y-103102560D01*
X152130000Y-103102560D01*
X151894683Y-103146838D01*
X151678559Y-103285910D01*
X151533569Y-103498110D01*
X151482560Y-103750000D01*
X139254746Y-103750000D01*
X139245652Y-103526609D01*
X139056968Y-103071086D01*
X138797938Y-102981667D01*
X137879605Y-103900000D01*
X137520395Y-103900000D01*
X136602062Y-102981667D01*
X136343032Y-103071086D01*
X136129113Y-103653472D01*
X135776960Y-103653472D01*
X135776960Y-102975440D01*
X135744337Y-102802062D01*
X136781667Y-102802062D01*
X137700000Y-103720395D01*
X138618333Y-102802062D01*
X138528914Y-102543032D01*
X137946528Y-102329113D01*
X137326609Y-102354348D01*
X136871086Y-102543032D01*
X136781667Y-102802062D01*
X135744337Y-102802062D01*
X135732682Y-102740123D01*
X135593610Y-102523999D01*
X135437742Y-102417499D01*
X136489241Y-101366000D01*
X140594745Y-101366000D01*
X140750000Y-101397440D01*
X141106692Y-101397440D01*
X141200000Y-101416000D01*
X141293308Y-101397440D01*
X141650000Y-101397440D01*
X141885317Y-101353162D01*
X142101441Y-101214090D01*
X142102560Y-101212452D01*
X142102560Y-101700000D01*
X142146838Y-101935317D01*
X142285910Y-102151441D01*
X142498110Y-102296431D01*
X142750000Y-102347440D01*
X143650000Y-102347440D01*
X143885317Y-102303162D01*
X144101441Y-102164090D01*
X144171196Y-102062000D01*
X144501592Y-102062000D01*
X144577560Y-102046889D01*
X144577560Y-102130000D01*
X144621838Y-102365317D01*
X144760910Y-102581441D01*
X144973110Y-102726431D01*
X145225000Y-102777440D01*
X145875000Y-102777440D01*
X146030507Y-102748179D01*
X146175000Y-102777440D01*
X146825000Y-102777440D01*
X146980507Y-102748179D01*
X147125000Y-102777440D01*
X147775000Y-102777440D01*
X148010317Y-102733162D01*
X148226441Y-102594090D01*
X148288525Y-102503228D01*
X148498110Y-102646431D01*
X148750000Y-102697440D01*
X149250000Y-102697440D01*
X149485317Y-102653162D01*
X149701441Y-102514090D01*
X149747969Y-102445994D01*
X149890302Y-102588327D01*
X150123691Y-102685000D01*
X150216250Y-102685000D01*
X150375000Y-102526250D01*
X150375000Y-101727000D01*
X150625000Y-101727000D01*
X150625000Y-102526250D01*
X150783750Y-102685000D01*
X150876309Y-102685000D01*
X151109698Y-102588327D01*
X151288327Y-102409699D01*
X151385000Y-102176310D01*
X151385000Y-101885750D01*
X151226250Y-101727000D01*
X150625000Y-101727000D01*
X150375000Y-101727000D01*
X150353000Y-101727000D01*
X150353000Y-101473000D01*
X150375000Y-101473000D01*
X150375000Y-100673750D01*
X150625000Y-100673750D01*
X150625000Y-101473000D01*
X151226250Y-101473000D01*
X151385000Y-101314250D01*
X151385000Y-101023690D01*
X151288327Y-100790301D01*
X151109698Y-100611673D01*
X150876309Y-100515000D01*
X150783750Y-100515000D01*
X150625000Y-100673750D01*
X150375000Y-100673750D01*
X150216250Y-100515000D01*
X150123691Y-100515000D01*
X149890302Y-100611673D01*
X149749064Y-100752910D01*
X149714090Y-100698559D01*
X149501890Y-100553569D01*
X149250000Y-100502560D01*
X148750000Y-100502560D01*
X148514683Y-100546838D01*
X148298559Y-100685910D01*
X148290252Y-100698067D01*
X148239090Y-100618559D01*
X148115089Y-100533833D01*
X148153996Y-100475605D01*
X148161956Y-100435585D01*
X148226441Y-100394090D01*
X148288525Y-100303228D01*
X148498110Y-100446431D01*
X148750000Y-100497440D01*
X149250000Y-100497440D01*
X149485317Y-100453162D01*
X149701441Y-100314090D01*
X149747969Y-100245994D01*
X149890302Y-100388327D01*
X150123691Y-100485000D01*
X150216250Y-100485000D01*
X150375000Y-100326250D01*
X150375000Y-99527000D01*
X150625000Y-99527000D01*
X150625000Y-100326250D01*
X150783750Y-100485000D01*
X150876309Y-100485000D01*
X151109698Y-100388327D01*
X151288327Y-100209699D01*
X151385000Y-99976310D01*
X151385000Y-99685750D01*
X151226250Y-99527000D01*
X150625000Y-99527000D01*
X150375000Y-99527000D01*
X150353000Y-99527000D01*
X150353000Y-99273000D01*
X150375000Y-99273000D01*
X150375000Y-98473750D01*
X150625000Y-98473750D01*
X150625000Y-99273000D01*
X151226250Y-99273000D01*
X151385000Y-99114250D01*
X151385000Y-98823690D01*
X151288327Y-98590301D01*
X151109698Y-98411673D01*
X150876309Y-98315000D01*
X150783750Y-98315000D01*
X150625000Y-98473750D01*
X150375000Y-98473750D01*
X150216250Y-98315000D01*
X150123691Y-98315000D01*
X149890302Y-98411673D01*
X149749064Y-98552910D01*
X149714090Y-98498559D01*
X149501890Y-98353569D01*
X149250000Y-98302560D01*
X148750000Y-98302560D01*
X148514683Y-98346838D01*
X148298559Y-98485910D01*
X148290252Y-98498067D01*
X148239090Y-98418559D01*
X148026890Y-98273569D01*
X147775000Y-98222560D01*
X147135952Y-98222560D01*
X147038815Y-98077185D01*
X146524235Y-97562605D01*
X147201090Y-96885750D01*
X152665000Y-96885750D01*
X152665000Y-97276310D01*
X152761673Y-97509699D01*
X152940302Y-97688327D01*
X153173691Y-97785000D01*
X153914250Y-97785000D01*
X154073000Y-97626250D01*
X154073000Y-96727000D01*
X154327000Y-96727000D01*
X154327000Y-97626250D01*
X154485750Y-97785000D01*
X155226309Y-97785000D01*
X155459698Y-97688327D01*
X155638327Y-97509699D01*
X155735000Y-97276310D01*
X155735000Y-96885750D01*
X158865000Y-96885750D01*
X158865000Y-97276310D01*
X158961673Y-97509699D01*
X159140302Y-97688327D01*
X159373691Y-97785000D01*
X160114250Y-97785000D01*
X160273000Y-97626250D01*
X160273000Y-96727000D01*
X159023750Y-96727000D01*
X158865000Y-96885750D01*
X155735000Y-96885750D01*
X155576250Y-96727000D01*
X154327000Y-96727000D01*
X154073000Y-96727000D01*
X152823750Y-96727000D01*
X152665000Y-96885750D01*
X147201090Y-96885750D01*
X148103111Y-95983730D01*
X152665000Y-95983730D01*
X152665000Y-96314250D01*
X152823750Y-96473000D01*
X154073000Y-96473000D01*
X154073000Y-96453000D01*
X154327000Y-96453000D01*
X154327000Y-96473000D01*
X155576250Y-96473000D01*
X155735000Y-96314250D01*
X155735000Y-95923690D01*
X158865000Y-95923690D01*
X158865000Y-96314250D01*
X159023750Y-96473000D01*
X160273000Y-96473000D01*
X160273000Y-95573750D01*
X160527000Y-95573750D01*
X160527000Y-96473000D01*
X161776250Y-96473000D01*
X161935000Y-96314250D01*
X161935000Y-95923690D01*
X161838327Y-95690301D01*
X161659698Y-95511673D01*
X161426309Y-95415000D01*
X160685750Y-95415000D01*
X160527000Y-95573750D01*
X160273000Y-95573750D01*
X160114250Y-95415000D01*
X159373691Y-95415000D01*
X159140302Y-95511673D01*
X158961673Y-95690301D01*
X158865000Y-95923690D01*
X155735000Y-95923690D01*
X155638327Y-95690301D01*
X155459698Y-95511673D01*
X155226309Y-95415000D01*
X154831867Y-95415000D01*
X154870932Y-95356536D01*
X154948270Y-94967730D01*
X154870932Y-94578924D01*
X154650690Y-94249310D01*
X154423401Y-94097440D01*
X155100000Y-94097440D01*
X155335317Y-94053162D01*
X155551441Y-93914090D01*
X155696431Y-93701890D01*
X155704509Y-93662000D01*
X158892451Y-93662000D01*
X158896838Y-93685317D01*
X159035910Y-93901441D01*
X159248110Y-94046431D01*
X159500000Y-94097440D01*
X161300000Y-94097440D01*
X161535317Y-94053162D01*
X161751441Y-93914090D01*
X161896431Y-93701890D01*
X161904509Y-93662000D01*
X163094443Y-93662000D01*
X163135910Y-93726441D01*
X163348110Y-93871431D01*
X163600000Y-93922440D01*
X164400000Y-93922440D01*
X164635317Y-93878162D01*
X164738646Y-93811671D01*
X164740302Y-93813327D01*
X164973691Y-93910000D01*
X165214250Y-93910000D01*
X165373000Y-93751250D01*
X165373000Y-93027000D01*
X165627000Y-93027000D01*
X165627000Y-93751250D01*
X165785750Y-93910000D01*
X166026309Y-93910000D01*
X166259698Y-93813327D01*
X166438327Y-93634699D01*
X166535000Y-93401310D01*
X166535000Y-93185750D01*
X166376250Y-93027000D01*
X165627000Y-93027000D01*
X165373000Y-93027000D01*
X165353000Y-93027000D01*
X165353000Y-92773000D01*
X165373000Y-92773000D01*
X165373000Y-92048750D01*
X165627000Y-92048750D01*
X165627000Y-92773000D01*
X166376250Y-92773000D01*
X166535000Y-92614250D01*
X166535000Y-92398690D01*
X166438327Y-92165301D01*
X166259698Y-91986673D01*
X166026309Y-91890000D01*
X165785750Y-91890000D01*
X165627000Y-92048750D01*
X165373000Y-92048750D01*
X165214250Y-91890000D01*
X164973691Y-91890000D01*
X164762000Y-91977685D01*
X164762000Y-91458630D01*
X164861506Y-91359125D01*
X164904167Y-91359162D01*
X165247943Y-91217117D01*
X165511192Y-90954327D01*
X165653838Y-90610799D01*
X165654162Y-90238833D01*
X165512117Y-89895057D01*
X165249327Y-89631808D01*
X164905799Y-89489162D01*
X164533833Y-89488838D01*
X164190057Y-89630883D01*
X163926808Y-89893673D01*
X163784162Y-90237201D01*
X163784124Y-90281246D01*
X163461185Y-90604185D01*
X163296004Y-90851395D01*
X163238000Y-91143000D01*
X163238000Y-92003356D01*
X163148559Y-92060910D01*
X163095886Y-92138000D01*
X161907549Y-92138000D01*
X161903162Y-92114683D01*
X161764090Y-91898559D01*
X161551890Y-91753569D01*
X161300000Y-91702560D01*
X159500000Y-91702560D01*
X159264683Y-91746838D01*
X159048559Y-91885910D01*
X158903569Y-92098110D01*
X158895491Y-92138000D01*
X155707549Y-92138000D01*
X155703162Y-92114683D01*
X155564090Y-91898559D01*
X155351890Y-91753569D01*
X155100000Y-91702560D01*
X153300000Y-91702560D01*
X153064683Y-91746838D01*
X152848559Y-91885910D01*
X152703569Y-92098110D01*
X152652560Y-92350000D01*
X152652560Y-93450000D01*
X152696838Y-93685317D01*
X152835910Y-93901441D01*
X152909510Y-93951730D01*
X147682270Y-93951730D01*
X147357970Y-94016237D01*
X147293463Y-94029068D01*
X146963850Y-94249309D01*
X144481582Y-96731578D01*
X144481579Y-96731580D01*
X142860600Y-98352560D01*
X142750000Y-98352560D01*
X142514683Y-98396838D01*
X142298559Y-98535910D01*
X142153569Y-98748110D01*
X142102560Y-99000000D01*
X142102560Y-99490681D01*
X141901890Y-99353569D01*
X141650000Y-99302560D01*
X140750000Y-99302560D01*
X140582911Y-99334000D01*
X136068400Y-99334000D01*
X135744100Y-99398507D01*
X135679593Y-99411338D01*
X135349979Y-99631580D01*
X133486540Y-101495020D01*
X133266298Y-101824633D01*
X133266298Y-101824634D01*
X133188960Y-102213440D01*
X133188960Y-102345206D01*
X133045083Y-102372278D01*
X132828959Y-102511350D01*
X132683969Y-102723550D01*
X132632960Y-102975440D01*
X129496222Y-102975440D01*
X128818943Y-102522898D01*
X128000000Y-102360000D01*
X127181057Y-102522898D01*
X126486791Y-102986791D01*
X126022898Y-103681057D01*
X125860000Y-104500000D01*
X125100000Y-104500000D01*
X125100000Y-98785750D01*
X127965000Y-98785750D01*
X127965000Y-99626310D01*
X128061673Y-99859699D01*
X128240302Y-100038327D01*
X128473691Y-100135000D01*
X129314250Y-100135000D01*
X129473000Y-99976250D01*
X129473000Y-98627000D01*
X129727000Y-98627000D01*
X129727000Y-99976250D01*
X129885750Y-100135000D01*
X130726309Y-100135000D01*
X130959698Y-100038327D01*
X131138327Y-99859699D01*
X131235000Y-99626310D01*
X131235000Y-98785750D01*
X131076250Y-98627000D01*
X129727000Y-98627000D01*
X129473000Y-98627000D01*
X128123750Y-98627000D01*
X127965000Y-98785750D01*
X125100000Y-98785750D01*
X125100000Y-97373690D01*
X127965000Y-97373690D01*
X127965000Y-98214250D01*
X128123750Y-98373000D01*
X129473000Y-98373000D01*
X129473000Y-97023750D01*
X129727000Y-97023750D01*
X129727000Y-98373000D01*
X131076250Y-98373000D01*
X131235000Y-98214250D01*
X131235000Y-97373690D01*
X131138327Y-97140301D01*
X130959698Y-96961673D01*
X130726309Y-96865000D01*
X129885750Y-96865000D01*
X129727000Y-97023750D01*
X129473000Y-97023750D01*
X129314250Y-96865000D01*
X128473691Y-96865000D01*
X128240302Y-96961673D01*
X128061673Y-97140301D01*
X127965000Y-97373690D01*
X125100000Y-97373690D01*
X125100000Y-89513035D01*
X125138987Y-89317033D01*
X125214308Y-89204307D01*
X125327032Y-89128987D01*
X125523035Y-89090000D01*
X128460000Y-89090000D01*
X128521822Y-89077703D01*
X128584857Y-89077703D01*
X128967540Y-89001583D01*
X129112340Y-88941605D01*
X129198248Y-88906021D01*
X129522671Y-88689248D01*
X129699247Y-88512673D01*
X129699248Y-88512672D01*
X129916021Y-88188248D01*
X129965413Y-88069004D01*
X130011583Y-87957540D01*
X130087703Y-87574857D01*
X130087703Y-87511822D01*
X130100000Y-87450000D01*
X130100000Y-72450000D01*
X130087703Y-72388178D01*
X130087703Y-72325143D01*
X130011583Y-71942460D01*
X129939483Y-71768395D01*
X129916021Y-71711752D01*
X129699248Y-71387328D01*
X129522672Y-71210753D01*
X129522671Y-71210752D01*
X129198248Y-70993979D01*
X129102686Y-70954396D01*
X128967540Y-70898417D01*
X128584857Y-70822297D01*
X128521822Y-70822297D01*
X128460000Y-70810000D01*
X125523035Y-70810000D01*
X125327032Y-70771013D01*
X125214308Y-70695693D01*
X125138987Y-70582967D01*
X125100000Y-70386965D01*
X125100000Y-54513037D01*
X125291228Y-53551664D01*
X125800094Y-52790094D01*
X126561666Y-52281228D01*
X127523037Y-52090000D01*
X186396963Y-52090000D01*
X187358336Y-52281228D01*
G36*
X173638000Y-92567360D02*
X173638000Y-93000000D01*
X173696004Y-93291605D01*
X173769307Y-93401310D01*
X173861185Y-93538815D01*
X174244000Y-93921631D01*
X174244000Y-95530478D01*
X174092892Y-95459514D01*
X173863000Y-95580181D01*
X173863000Y-96774000D01*
X173883000Y-96774000D01*
X173883000Y-97028000D01*
X173863000Y-97028000D01*
X173863000Y-97048000D01*
X173609000Y-97048000D01*
X173609000Y-97028000D01*
X173589000Y-97028000D01*
X173589000Y-96774000D01*
X173609000Y-96774000D01*
X173609000Y-95580181D01*
X173379108Y-95459514D01*
X172854642Y-95705817D01*
X172847000Y-95714203D01*
X172847000Y-94730630D01*
X173138815Y-94438815D01*
X173224889Y-94309996D01*
X173303996Y-94191605D01*
X173362000Y-93900000D01*
X173362000Y-92565818D01*
X173501441Y-92476090D01*
X173502390Y-92474701D01*
X173638000Y-92567360D01*
X173638000Y-92567360D01*
G37*
X173638000Y-92567360D02*
X173638000Y-93000000D01*
X173696004Y-93291605D01*
X173769307Y-93401310D01*
X173861185Y-93538815D01*
X174244000Y-93921631D01*
X174244000Y-95530478D01*
X174092892Y-95459514D01*
X173863000Y-95580181D01*
X173863000Y-96774000D01*
X173883000Y-96774000D01*
X173883000Y-97028000D01*
X173863000Y-97028000D01*
X173863000Y-97048000D01*
X173609000Y-97048000D01*
X173609000Y-97028000D01*
X173589000Y-97028000D01*
X173589000Y-96774000D01*
X173609000Y-96774000D01*
X173609000Y-95580181D01*
X173379108Y-95459514D01*
X172854642Y-95705817D01*
X172847000Y-95714203D01*
X172847000Y-94730630D01*
X173138815Y-94438815D01*
X173224889Y-94309996D01*
X173303996Y-94191605D01*
X173362000Y-93900000D01*
X173362000Y-92565818D01*
X173501441Y-92476090D01*
X173502390Y-92474701D01*
X173638000Y-92567360D01*
G36*
X173927000Y-85373000D02*
X173947000Y-85373000D01*
X173947000Y-85627000D01*
X173927000Y-85627000D01*
X173927000Y-86873000D01*
X173947000Y-86873000D01*
X173947000Y-87127000D01*
X173927000Y-87127000D01*
X173927000Y-87851250D01*
X174085750Y-88010000D01*
X174326309Y-88010000D01*
X174559698Y-87913327D01*
X174561068Y-87911957D01*
X174648110Y-87971431D01*
X174900000Y-88022440D01*
X175700000Y-88022440D01*
X175734226Y-88016000D01*
X177079160Y-88016000D01*
X177673000Y-88609841D01*
X177673000Y-96436729D01*
X177547645Y-96134076D01*
X177157358Y-95705817D01*
X176632892Y-95459514D01*
X176403000Y-95580181D01*
X176403000Y-96774000D01*
X176423000Y-96774000D01*
X176423000Y-97028000D01*
X176403000Y-97028000D01*
X176403000Y-97048000D01*
X176149000Y-97048000D01*
X176149000Y-97028000D01*
X176129000Y-97028000D01*
X176129000Y-96774000D01*
X176149000Y-96774000D01*
X176149000Y-95580181D01*
X175919108Y-95459514D01*
X175768000Y-95530478D01*
X175768000Y-93606000D01*
X175709996Y-93314395D01*
X175544815Y-93067184D01*
X175162000Y-92684370D01*
X175162000Y-92565818D01*
X175301441Y-92476090D01*
X175446431Y-92263890D01*
X175497440Y-92012000D01*
X175497440Y-91512000D01*
X175453162Y-91276683D01*
X175314090Y-91060559D01*
X175244289Y-91012866D01*
X175301441Y-90976090D01*
X175446431Y-90763890D01*
X175497440Y-90512000D01*
X175497440Y-90012000D01*
X175453162Y-89776683D01*
X175314090Y-89560559D01*
X175101890Y-89415569D01*
X175065050Y-89408109D01*
X174938815Y-89219184D01*
X173621940Y-87902310D01*
X173673000Y-87851250D01*
X173673000Y-87127000D01*
X173653000Y-87127000D01*
X173653000Y-86873000D01*
X173673000Y-86873000D01*
X173673000Y-85627000D01*
X173653000Y-85627000D01*
X173653000Y-85373000D01*
X173673000Y-85373000D01*
X173673000Y-85353000D01*
X173927000Y-85353000D01*
X173927000Y-85373000D01*
X173927000Y-85373000D01*
G37*
X173927000Y-85373000D02*
X173947000Y-85373000D01*
X173947000Y-85627000D01*
X173927000Y-85627000D01*
X173927000Y-86873000D01*
X173947000Y-86873000D01*
X173947000Y-87127000D01*
X173927000Y-87127000D01*
X173927000Y-87851250D01*
X174085750Y-88010000D01*
X174326309Y-88010000D01*
X174559698Y-87913327D01*
X174561068Y-87911957D01*
X174648110Y-87971431D01*
X174900000Y-88022440D01*
X175700000Y-88022440D01*
X175734226Y-88016000D01*
X177079160Y-88016000D01*
X177673000Y-88609841D01*
X177673000Y-96436729D01*
X177547645Y-96134076D01*
X177157358Y-95705817D01*
X176632892Y-95459514D01*
X176403000Y-95580181D01*
X176403000Y-96774000D01*
X176423000Y-96774000D01*
X176423000Y-97028000D01*
X176403000Y-97028000D01*
X176403000Y-97048000D01*
X176149000Y-97048000D01*
X176149000Y-97028000D01*
X176129000Y-97028000D01*
X176129000Y-96774000D01*
X176149000Y-96774000D01*
X176149000Y-95580181D01*
X175919108Y-95459514D01*
X175768000Y-95530478D01*
X175768000Y-93606000D01*
X175709996Y-93314395D01*
X175544815Y-93067184D01*
X175162000Y-92684370D01*
X175162000Y-92565818D01*
X175301441Y-92476090D01*
X175446431Y-92263890D01*
X175497440Y-92012000D01*
X175497440Y-91512000D01*
X175453162Y-91276683D01*
X175314090Y-91060559D01*
X175244289Y-91012866D01*
X175301441Y-90976090D01*
X175446431Y-90763890D01*
X175497440Y-90512000D01*
X175497440Y-90012000D01*
X175453162Y-89776683D01*
X175314090Y-89560559D01*
X175101890Y-89415569D01*
X175065050Y-89408109D01*
X174938815Y-89219184D01*
X173621940Y-87902310D01*
X173673000Y-87851250D01*
X173673000Y-87127000D01*
X173653000Y-87127000D01*
X173653000Y-86873000D01*
X173673000Y-86873000D01*
X173673000Y-85627000D01*
X173653000Y-85627000D01*
X173653000Y-85373000D01*
X173673000Y-85373000D01*
X173673000Y-85353000D01*
X173927000Y-85353000D01*
X173927000Y-85373000D01*
G36*
X181126460Y-81566985D02*
X181336869Y-82076215D01*
X181726136Y-82466161D01*
X182234998Y-82677459D01*
X182785985Y-82677940D01*
X183295215Y-82467531D01*
X183685161Y-82078264D01*
X183696067Y-82052000D01*
X185683356Y-82052000D01*
X185740910Y-82141441D01*
X185953110Y-82286431D01*
X186205000Y-82337440D01*
X186955000Y-82337440D01*
X187190317Y-82293162D01*
X187406441Y-82154090D01*
X187452000Y-82087412D01*
X187452000Y-93793759D01*
X186301170Y-94944589D01*
X186047914Y-95049233D01*
X185728355Y-95368235D01*
X185622430Y-95623330D01*
X184374714Y-96871046D01*
X184356889Y-96858866D01*
X184414041Y-96822090D01*
X184559031Y-96609890D01*
X184610040Y-96358000D01*
X184610040Y-95158000D01*
X184565762Y-94922683D01*
X184426690Y-94706559D01*
X184214490Y-94561569D01*
X184099200Y-94538222D01*
X184099200Y-92565818D01*
X184238641Y-92476090D01*
X184383631Y-92263890D01*
X184434640Y-92012000D01*
X184434640Y-91512000D01*
X184390362Y-91276683D01*
X184251290Y-91060559D01*
X184183194Y-91014031D01*
X184325527Y-90871698D01*
X184422200Y-90638309D01*
X184422200Y-90545750D01*
X184263450Y-90387000D01*
X183464200Y-90387000D01*
X183464200Y-90409000D01*
X183210200Y-90409000D01*
X183210200Y-90387000D01*
X182410950Y-90387000D01*
X182252200Y-90545750D01*
X182252200Y-90638309D01*
X182348873Y-90871698D01*
X182490110Y-91012936D01*
X182435759Y-91047910D01*
X182290769Y-91260110D01*
X182239760Y-91512000D01*
X182239760Y-92012000D01*
X182284038Y-92247317D01*
X182423110Y-92463441D01*
X182575200Y-92567360D01*
X182575200Y-94545822D01*
X182527283Y-94554838D01*
X182311159Y-94693910D01*
X182166169Y-94906110D01*
X182115160Y-95158000D01*
X182115160Y-96358000D01*
X182159438Y-96593317D01*
X182298510Y-96809441D01*
X182368311Y-96857134D01*
X182311159Y-96893910D01*
X182278301Y-96942000D01*
X181807896Y-96942000D01*
X181785090Y-96906559D01*
X181715289Y-96858866D01*
X181772441Y-96822090D01*
X181917431Y-96609890D01*
X181968440Y-96358000D01*
X181968440Y-95158000D01*
X181924162Y-94922683D01*
X181785090Y-94706559D01*
X181572890Y-94561569D01*
X181457600Y-94538222D01*
X181457600Y-92565818D01*
X181597041Y-92476090D01*
X181742031Y-92263890D01*
X181793040Y-92012000D01*
X181793040Y-91512000D01*
X181748762Y-91276683D01*
X181609690Y-91060559D01*
X181539889Y-91012866D01*
X181597041Y-90976090D01*
X181742031Y-90763890D01*
X181793040Y-90512000D01*
X181793040Y-90012000D01*
X181769274Y-89885691D01*
X182252200Y-89885691D01*
X182252200Y-89978250D01*
X182410950Y-90137000D01*
X183210200Y-90137000D01*
X183210200Y-89535750D01*
X183464200Y-89535750D01*
X183464200Y-90137000D01*
X184263450Y-90137000D01*
X184422200Y-89978250D01*
X184422200Y-89885691D01*
X184325527Y-89652302D01*
X184146899Y-89473673D01*
X183913510Y-89377000D01*
X183622950Y-89377000D01*
X183464200Y-89535750D01*
X183210200Y-89535750D01*
X183051450Y-89377000D01*
X182760890Y-89377000D01*
X182527501Y-89473673D01*
X182348873Y-89652302D01*
X182252200Y-89885691D01*
X181769274Y-89885691D01*
X181748762Y-89776683D01*
X181609690Y-89560559D01*
X181397490Y-89415569D01*
X181145600Y-89364560D01*
X180829199Y-89364560D01*
X180582000Y-89117362D01*
X180582000Y-86137750D01*
X182007000Y-86137750D01*
X182007000Y-86978310D01*
X182103673Y-87211699D01*
X182282302Y-87390327D01*
X182515691Y-87487000D01*
X183356250Y-87487000D01*
X183515000Y-87328250D01*
X183515000Y-85979000D01*
X183769000Y-85979000D01*
X183769000Y-87328250D01*
X183927750Y-87487000D01*
X184768309Y-87487000D01*
X185001698Y-87390327D01*
X185180327Y-87211699D01*
X185277000Y-86978310D01*
X185277000Y-86137750D01*
X185118250Y-85979000D01*
X183769000Y-85979000D01*
X183515000Y-85979000D01*
X182165750Y-85979000D01*
X182007000Y-86137750D01*
X180582000Y-86137750D01*
X180582000Y-84725690D01*
X182007000Y-84725690D01*
X182007000Y-85566250D01*
X182165750Y-85725000D01*
X183515000Y-85725000D01*
X183515000Y-84375750D01*
X183769000Y-84375750D01*
X183769000Y-85725000D01*
X185118250Y-85725000D01*
X185277000Y-85566250D01*
X185277000Y-84725690D01*
X185180327Y-84492301D01*
X185001698Y-84313673D01*
X184768309Y-84217000D01*
X183927750Y-84217000D01*
X183769000Y-84375750D01*
X183515000Y-84375750D01*
X183356250Y-84217000D01*
X182515691Y-84217000D01*
X182282302Y-84313673D01*
X182103673Y-84492301D01*
X182007000Y-84725690D01*
X180582000Y-84725690D01*
X180582000Y-81920000D01*
X180523996Y-81628395D01*
X180439040Y-81501250D01*
X180358816Y-81381185D01*
X180039631Y-81062000D01*
X181126901Y-81062000D01*
X181126460Y-81566985D01*
X181126460Y-81566985D01*
G37*
X181126460Y-81566985D02*
X181336869Y-82076215D01*
X181726136Y-82466161D01*
X182234998Y-82677459D01*
X182785985Y-82677940D01*
X183295215Y-82467531D01*
X183685161Y-82078264D01*
X183696067Y-82052000D01*
X185683356Y-82052000D01*
X185740910Y-82141441D01*
X185953110Y-82286431D01*
X186205000Y-82337440D01*
X186955000Y-82337440D01*
X187190317Y-82293162D01*
X187406441Y-82154090D01*
X187452000Y-82087412D01*
X187452000Y-93793759D01*
X186301170Y-94944589D01*
X186047914Y-95049233D01*
X185728355Y-95368235D01*
X185622430Y-95623330D01*
X184374714Y-96871046D01*
X184356889Y-96858866D01*
X184414041Y-96822090D01*
X184559031Y-96609890D01*
X184610040Y-96358000D01*
X184610040Y-95158000D01*
X184565762Y-94922683D01*
X184426690Y-94706559D01*
X184214490Y-94561569D01*
X184099200Y-94538222D01*
X184099200Y-92565818D01*
X184238641Y-92476090D01*
X184383631Y-92263890D01*
X184434640Y-92012000D01*
X184434640Y-91512000D01*
X184390362Y-91276683D01*
X184251290Y-91060559D01*
X184183194Y-91014031D01*
X184325527Y-90871698D01*
X184422200Y-90638309D01*
X184422200Y-90545750D01*
X184263450Y-90387000D01*
X183464200Y-90387000D01*
X183464200Y-90409000D01*
X183210200Y-90409000D01*
X183210200Y-90387000D01*
X182410950Y-90387000D01*
X182252200Y-90545750D01*
X182252200Y-90638309D01*
X182348873Y-90871698D01*
X182490110Y-91012936D01*
X182435759Y-91047910D01*
X182290769Y-91260110D01*
X182239760Y-91512000D01*
X182239760Y-92012000D01*
X182284038Y-92247317D01*
X182423110Y-92463441D01*
X182575200Y-92567360D01*
X182575200Y-94545822D01*
X182527283Y-94554838D01*
X182311159Y-94693910D01*
X182166169Y-94906110D01*
X182115160Y-95158000D01*
X182115160Y-96358000D01*
X182159438Y-96593317D01*
X182298510Y-96809441D01*
X182368311Y-96857134D01*
X182311159Y-96893910D01*
X182278301Y-96942000D01*
X181807896Y-96942000D01*
X181785090Y-96906559D01*
X181715289Y-96858866D01*
X181772441Y-96822090D01*
X181917431Y-96609890D01*
X181968440Y-96358000D01*
X181968440Y-95158000D01*
X181924162Y-94922683D01*
X181785090Y-94706559D01*
X181572890Y-94561569D01*
X181457600Y-94538222D01*
X181457600Y-92565818D01*
X181597041Y-92476090D01*
X181742031Y-92263890D01*
X181793040Y-92012000D01*
X181793040Y-91512000D01*
X181748762Y-91276683D01*
X181609690Y-91060559D01*
X181539889Y-91012866D01*
X181597041Y-90976090D01*
X181742031Y-90763890D01*
X181793040Y-90512000D01*
X181793040Y-90012000D01*
X181769274Y-89885691D01*
X182252200Y-89885691D01*
X182252200Y-89978250D01*
X182410950Y-90137000D01*
X183210200Y-90137000D01*
X183210200Y-89535750D01*
X183464200Y-89535750D01*
X183464200Y-90137000D01*
X184263450Y-90137000D01*
X184422200Y-89978250D01*
X184422200Y-89885691D01*
X184325527Y-89652302D01*
X184146899Y-89473673D01*
X183913510Y-89377000D01*
X183622950Y-89377000D01*
X183464200Y-89535750D01*
X183210200Y-89535750D01*
X183051450Y-89377000D01*
X182760890Y-89377000D01*
X182527501Y-89473673D01*
X182348873Y-89652302D01*
X182252200Y-89885691D01*
X181769274Y-89885691D01*
X181748762Y-89776683D01*
X181609690Y-89560559D01*
X181397490Y-89415569D01*
X181145600Y-89364560D01*
X180829199Y-89364560D01*
X180582000Y-89117362D01*
X180582000Y-86137750D01*
X182007000Y-86137750D01*
X182007000Y-86978310D01*
X182103673Y-87211699D01*
X182282302Y-87390327D01*
X182515691Y-87487000D01*
X183356250Y-87487000D01*
X183515000Y-87328250D01*
X183515000Y-85979000D01*
X183769000Y-85979000D01*
X183769000Y-87328250D01*
X183927750Y-87487000D01*
X184768309Y-87487000D01*
X185001698Y-87390327D01*
X185180327Y-87211699D01*
X185277000Y-86978310D01*
X185277000Y-86137750D01*
X185118250Y-85979000D01*
X183769000Y-85979000D01*
X183515000Y-85979000D01*
X182165750Y-85979000D01*
X182007000Y-86137750D01*
X180582000Y-86137750D01*
X180582000Y-84725690D01*
X182007000Y-84725690D01*
X182007000Y-85566250D01*
X182165750Y-85725000D01*
X183515000Y-85725000D01*
X183515000Y-84375750D01*
X183769000Y-84375750D01*
X183769000Y-85725000D01*
X185118250Y-85725000D01*
X185277000Y-85566250D01*
X185277000Y-84725690D01*
X185180327Y-84492301D01*
X185001698Y-84313673D01*
X184768309Y-84217000D01*
X183927750Y-84217000D01*
X183769000Y-84375750D01*
X183515000Y-84375750D01*
X183356250Y-84217000D01*
X182515691Y-84217000D01*
X182282302Y-84313673D01*
X182103673Y-84492301D01*
X182007000Y-84725690D01*
X180582000Y-84725690D01*
X180582000Y-81920000D01*
X180523996Y-81628395D01*
X180439040Y-81501250D01*
X180358816Y-81381185D01*
X180039631Y-81062000D01*
X181126901Y-81062000D01*
X181126460Y-81566985D01*
G36*
X142900400Y-81280002D02*
X143064530Y-81280002D01*
X142944032Y-81512027D01*
X143192179Y-82041490D01*
X143610161Y-82423008D01*
X143339330Y-82603971D01*
X143014474Y-83090152D01*
X142900400Y-83663641D01*
X142900400Y-83722359D01*
X143014474Y-84295848D01*
X143339330Y-84782029D01*
X143610161Y-84962992D01*
X143192179Y-85344510D01*
X142944032Y-85873973D01*
X143064531Y-86106000D01*
X144272000Y-86106000D01*
X144272000Y-86086000D01*
X144526000Y-86086000D01*
X144526000Y-86106000D01*
X144546000Y-86106000D01*
X144546000Y-86360000D01*
X144526000Y-86360000D01*
X144526000Y-86380000D01*
X144272000Y-86380000D01*
X144272000Y-86360000D01*
X143064531Y-86360000D01*
X142944032Y-86592027D01*
X143192179Y-87121490D01*
X143610161Y-87503008D01*
X143339330Y-87683971D01*
X143014474Y-88170152D01*
X142900400Y-88743641D01*
X142900400Y-88802359D01*
X143007514Y-89340856D01*
X142305370Y-90043000D01*
X137880225Y-90043000D01*
X137926927Y-89996298D01*
X138023600Y-89762909D01*
X138023600Y-89058750D01*
X137864850Y-88900000D01*
X136652000Y-88900000D01*
X136652000Y-88920000D01*
X136398000Y-88920000D01*
X136398000Y-88900000D01*
X136378000Y-88900000D01*
X136378000Y-88646000D01*
X136398000Y-88646000D01*
X136398000Y-88626000D01*
X136652000Y-88626000D01*
X136652000Y-88646000D01*
X137864850Y-88646000D01*
X138023600Y-88487250D01*
X138023600Y-88265000D01*
X138176000Y-88265000D01*
X138467605Y-88206996D01*
X138714815Y-88041815D01*
X142143815Y-84612816D01*
X142308996Y-84365605D01*
X142316013Y-84330327D01*
X142367000Y-84074000D01*
X142367000Y-81722630D01*
X142900400Y-81189230D01*
X142900400Y-81280002D01*
X142900400Y-81280002D01*
G37*
X142900400Y-81280002D02*
X143064530Y-81280002D01*
X142944032Y-81512027D01*
X143192179Y-82041490D01*
X143610161Y-82423008D01*
X143339330Y-82603971D01*
X143014474Y-83090152D01*
X142900400Y-83663641D01*
X142900400Y-83722359D01*
X143014474Y-84295848D01*
X143339330Y-84782029D01*
X143610161Y-84962992D01*
X143192179Y-85344510D01*
X142944032Y-85873973D01*
X143064531Y-86106000D01*
X144272000Y-86106000D01*
X144272000Y-86086000D01*
X144526000Y-86086000D01*
X144526000Y-86106000D01*
X144546000Y-86106000D01*
X144546000Y-86360000D01*
X144526000Y-86360000D01*
X144526000Y-86380000D01*
X144272000Y-86380000D01*
X144272000Y-86360000D01*
X143064531Y-86360000D01*
X142944032Y-86592027D01*
X143192179Y-87121490D01*
X143610161Y-87503008D01*
X143339330Y-87683971D01*
X143014474Y-88170152D01*
X142900400Y-88743641D01*
X142900400Y-88802359D01*
X143007514Y-89340856D01*
X142305370Y-90043000D01*
X137880225Y-90043000D01*
X137926927Y-89996298D01*
X138023600Y-89762909D01*
X138023600Y-89058750D01*
X137864850Y-88900000D01*
X136652000Y-88900000D01*
X136652000Y-88920000D01*
X136398000Y-88920000D01*
X136398000Y-88900000D01*
X136378000Y-88900000D01*
X136378000Y-88646000D01*
X136398000Y-88646000D01*
X136398000Y-88626000D01*
X136652000Y-88626000D01*
X136652000Y-88646000D01*
X137864850Y-88646000D01*
X138023600Y-88487250D01*
X138023600Y-88265000D01*
X138176000Y-88265000D01*
X138467605Y-88206996D01*
X138714815Y-88041815D01*
X142143815Y-84612816D01*
X142308996Y-84365605D01*
X142316013Y-84330327D01*
X142367000Y-84074000D01*
X142367000Y-81722630D01*
X142900400Y-81189230D01*
X142900400Y-81280002D01*
G36*
X153284560Y-77445000D02*
X153328838Y-77680317D01*
X153467910Y-77896441D01*
X153680110Y-78041431D01*
X153932000Y-78092440D01*
X155382000Y-78092440D01*
X155617317Y-78048162D01*
X155720136Y-77982000D01*
X156191802Y-77982000D01*
X156456194Y-78158662D01*
X156845000Y-78236000D01*
X157233806Y-78158662D01*
X157498198Y-77982000D01*
X159493130Y-77982000D01*
X159580110Y-78041431D01*
X159832000Y-78092440D01*
X161282000Y-78092440D01*
X161517317Y-78048162D01*
X161733441Y-77909090D01*
X161767559Y-77859156D01*
X161855377Y-77917834D01*
X161954395Y-77983996D01*
X162246000Y-78042000D01*
X163515443Y-78042000D01*
X163492560Y-78155000D01*
X163492560Y-78405000D01*
X163516944Y-78534589D01*
X163492560Y-78655000D01*
X163492560Y-78905000D01*
X163516944Y-79034589D01*
X163492560Y-79155000D01*
X163492560Y-79405000D01*
X163516944Y-79534589D01*
X163492560Y-79655000D01*
X163492560Y-79850076D01*
X163311310Y-79775000D01*
X163095750Y-79775000D01*
X162937000Y-79933750D01*
X162937000Y-80683000D01*
X162957000Y-80683000D01*
X162957000Y-80937000D01*
X162937000Y-80937000D01*
X162937000Y-80957000D01*
X162683000Y-80957000D01*
X162683000Y-80937000D01*
X162663000Y-80937000D01*
X162663000Y-80683000D01*
X162683000Y-80683000D01*
X162683000Y-79933750D01*
X162524250Y-79775000D01*
X162308690Y-79775000D01*
X162075301Y-79871673D01*
X161896673Y-80050302D01*
X161800000Y-80283691D01*
X161800000Y-80524250D01*
X161958748Y-80682998D01*
X161800000Y-80682998D01*
X161800000Y-80746632D01*
X161603799Y-80665162D01*
X161231833Y-80664838D01*
X160888057Y-80806883D01*
X160624808Y-81069673D01*
X160482162Y-81413201D01*
X160481838Y-81785167D01*
X160558367Y-81970383D01*
X160430000Y-82098750D01*
X160430000Y-82687500D01*
X160450000Y-82687500D01*
X160450000Y-82728750D01*
X160430000Y-82748750D01*
X160430000Y-83597000D01*
X160176000Y-83597000D01*
X160176000Y-82748750D01*
X160114750Y-82687500D01*
X160176000Y-82687500D01*
X160176000Y-82098750D01*
X160017250Y-81940000D01*
X159451691Y-81940000D01*
X159218302Y-82036673D01*
X159039673Y-82215301D01*
X158943000Y-82448690D01*
X158943000Y-82528750D01*
X159101750Y-82687500D01*
X159217475Y-82687500D01*
X159039673Y-82865301D01*
X158962403Y-83051847D01*
X158943000Y-83071250D01*
X158943000Y-83178750D01*
X158962403Y-83198153D01*
X159039673Y-83384699D01*
X159104974Y-83450000D01*
X159039673Y-83515301D01*
X158962403Y-83701847D01*
X158943000Y-83721250D01*
X158943000Y-83828750D01*
X158962403Y-83848153D01*
X159039673Y-84034699D01*
X159101930Y-84096956D01*
X158981569Y-84273110D01*
X158966442Y-84347808D01*
X158943000Y-84371250D01*
X158943000Y-84451310D01*
X158944667Y-84455335D01*
X158930560Y-84525000D01*
X158930560Y-84975000D01*
X158950067Y-85078671D01*
X158930560Y-85175000D01*
X158930560Y-85625000D01*
X158950067Y-85728671D01*
X158930560Y-85825000D01*
X158930560Y-86275000D01*
X158950067Y-86378671D01*
X158930560Y-86475000D01*
X158930560Y-86925000D01*
X158950067Y-87028671D01*
X158930560Y-87125000D01*
X158930560Y-87575000D01*
X158950067Y-87678671D01*
X158930560Y-87775000D01*
X158930560Y-87888000D01*
X157327624Y-87888000D01*
X157031799Y-87765162D01*
X156659833Y-87764838D01*
X156361757Y-87888000D01*
X155763000Y-87888000D01*
X155763000Y-87872998D01*
X155692927Y-87872998D01*
X155724431Y-87826890D01*
X155739558Y-87752192D01*
X155763000Y-87728750D01*
X155763000Y-87648690D01*
X155761333Y-87644665D01*
X155775440Y-87575000D01*
X155775440Y-87125000D01*
X155755933Y-87021329D01*
X155775440Y-86925000D01*
X155775440Y-86475000D01*
X155755933Y-86371329D01*
X155775440Y-86275000D01*
X155775440Y-85825000D01*
X155755933Y-85721329D01*
X155775440Y-85625000D01*
X155775440Y-85175000D01*
X155755933Y-85071329D01*
X155775440Y-84975000D01*
X155775440Y-84525000D01*
X155755933Y-84421329D01*
X155775440Y-84325000D01*
X155775440Y-83875000D01*
X155755933Y-83771329D01*
X155775440Y-83675000D01*
X155775440Y-83225000D01*
X155755933Y-83121329D01*
X155775440Y-83025000D01*
X155775440Y-82575000D01*
X155731162Y-82339683D01*
X155592090Y-82123559D01*
X155379890Y-81978569D01*
X155128000Y-81927560D01*
X153678000Y-81927560D01*
X153442683Y-81971838D01*
X153226559Y-82110910D01*
X153081569Y-82323110D01*
X153030560Y-82575000D01*
X153030560Y-83025000D01*
X153050067Y-83128671D01*
X153030560Y-83225000D01*
X153030560Y-83338000D01*
X152106631Y-83338000D01*
X149382815Y-80614185D01*
X149325673Y-80576004D01*
X149135605Y-80449004D01*
X148844000Y-80391000D01*
X148217184Y-80391000D01*
X148146859Y-80285750D01*
X153465000Y-80285750D01*
X153465000Y-81126310D01*
X153561673Y-81359699D01*
X153740302Y-81538327D01*
X153973691Y-81635000D01*
X154814250Y-81635000D01*
X154973000Y-81476250D01*
X154973000Y-80127000D01*
X155227000Y-80127000D01*
X155227000Y-81476250D01*
X155385750Y-81635000D01*
X156226309Y-81635000D01*
X156459698Y-81538327D01*
X156638327Y-81359699D01*
X156735000Y-81126310D01*
X156735000Y-80285750D01*
X156576250Y-80127000D01*
X155227000Y-80127000D01*
X154973000Y-80127000D01*
X153623750Y-80127000D01*
X153465000Y-80285750D01*
X148146859Y-80285750D01*
X147998670Y-80063971D01*
X147727828Y-79883000D01*
X147998670Y-79702029D01*
X148217184Y-79375000D01*
X150749000Y-79375000D01*
X151040605Y-79316996D01*
X151287815Y-79151815D01*
X151565940Y-78873690D01*
X153465000Y-78873690D01*
X153465000Y-79714250D01*
X153623750Y-79873000D01*
X154973000Y-79873000D01*
X154973000Y-78523750D01*
X155227000Y-78523750D01*
X155227000Y-79873000D01*
X156576250Y-79873000D01*
X156735000Y-79714250D01*
X156735000Y-78873690D01*
X156638327Y-78640301D01*
X156459698Y-78461673D01*
X156226309Y-78365000D01*
X155385750Y-78365000D01*
X155227000Y-78523750D01*
X154973000Y-78523750D01*
X154814250Y-78365000D01*
X153973691Y-78365000D01*
X153740302Y-78461673D01*
X153561673Y-78640301D01*
X153465000Y-78873690D01*
X151565940Y-78873690D01*
X153284560Y-77155070D01*
X153284560Y-77445000D01*
X153284560Y-77445000D01*
G37*
X153284560Y-77445000D02*
X153328838Y-77680317D01*
X153467910Y-77896441D01*
X153680110Y-78041431D01*
X153932000Y-78092440D01*
X155382000Y-78092440D01*
X155617317Y-78048162D01*
X155720136Y-77982000D01*
X156191802Y-77982000D01*
X156456194Y-78158662D01*
X156845000Y-78236000D01*
X157233806Y-78158662D01*
X157498198Y-77982000D01*
X159493130Y-77982000D01*
X159580110Y-78041431D01*
X159832000Y-78092440D01*
X161282000Y-78092440D01*
X161517317Y-78048162D01*
X161733441Y-77909090D01*
X161767559Y-77859156D01*
X161855377Y-77917834D01*
X161954395Y-77983996D01*
X162246000Y-78042000D01*
X163515443Y-78042000D01*
X163492560Y-78155000D01*
X163492560Y-78405000D01*
X163516944Y-78534589D01*
X163492560Y-78655000D01*
X163492560Y-78905000D01*
X163516944Y-79034589D01*
X163492560Y-79155000D01*
X163492560Y-79405000D01*
X163516944Y-79534589D01*
X163492560Y-79655000D01*
X163492560Y-79850076D01*
X163311310Y-79775000D01*
X163095750Y-79775000D01*
X162937000Y-79933750D01*
X162937000Y-80683000D01*
X162957000Y-80683000D01*
X162957000Y-80937000D01*
X162937000Y-80937000D01*
X162937000Y-80957000D01*
X162683000Y-80957000D01*
X162683000Y-80937000D01*
X162663000Y-80937000D01*
X162663000Y-80683000D01*
X162683000Y-80683000D01*
X162683000Y-79933750D01*
X162524250Y-79775000D01*
X162308690Y-79775000D01*
X162075301Y-79871673D01*
X161896673Y-80050302D01*
X161800000Y-80283691D01*
X161800000Y-80524250D01*
X161958748Y-80682998D01*
X161800000Y-80682998D01*
X161800000Y-80746632D01*
X161603799Y-80665162D01*
X161231833Y-80664838D01*
X160888057Y-80806883D01*
X160624808Y-81069673D01*
X160482162Y-81413201D01*
X160481838Y-81785167D01*
X160558367Y-81970383D01*
X160430000Y-82098750D01*
X160430000Y-82687500D01*
X160450000Y-82687500D01*
X160450000Y-82728750D01*
X160430000Y-82748750D01*
X160430000Y-83597000D01*
X160176000Y-83597000D01*
X160176000Y-82748750D01*
X160114750Y-82687500D01*
X160176000Y-82687500D01*
X160176000Y-82098750D01*
X160017250Y-81940000D01*
X159451691Y-81940000D01*
X159218302Y-82036673D01*
X159039673Y-82215301D01*
X158943000Y-82448690D01*
X158943000Y-82528750D01*
X159101750Y-82687500D01*
X159217475Y-82687500D01*
X159039673Y-82865301D01*
X158962403Y-83051847D01*
X158943000Y-83071250D01*
X158943000Y-83178750D01*
X158962403Y-83198153D01*
X159039673Y-83384699D01*
X159104974Y-83450000D01*
X159039673Y-83515301D01*
X158962403Y-83701847D01*
X158943000Y-83721250D01*
X158943000Y-83828750D01*
X158962403Y-83848153D01*
X159039673Y-84034699D01*
X159101930Y-84096956D01*
X158981569Y-84273110D01*
X158966442Y-84347808D01*
X158943000Y-84371250D01*
X158943000Y-84451310D01*
X158944667Y-84455335D01*
X158930560Y-84525000D01*
X158930560Y-84975000D01*
X158950067Y-85078671D01*
X158930560Y-85175000D01*
X158930560Y-85625000D01*
X158950067Y-85728671D01*
X158930560Y-85825000D01*
X158930560Y-86275000D01*
X158950067Y-86378671D01*
X158930560Y-86475000D01*
X158930560Y-86925000D01*
X158950067Y-87028671D01*
X158930560Y-87125000D01*
X158930560Y-87575000D01*
X158950067Y-87678671D01*
X158930560Y-87775000D01*
X158930560Y-87888000D01*
X157327624Y-87888000D01*
X157031799Y-87765162D01*
X156659833Y-87764838D01*
X156361757Y-87888000D01*
X155763000Y-87888000D01*
X155763000Y-87872998D01*
X155692927Y-87872998D01*
X155724431Y-87826890D01*
X155739558Y-87752192D01*
X155763000Y-87728750D01*
X155763000Y-87648690D01*
X155761333Y-87644665D01*
X155775440Y-87575000D01*
X155775440Y-87125000D01*
X155755933Y-87021329D01*
X155775440Y-86925000D01*
X155775440Y-86475000D01*
X155755933Y-86371329D01*
X155775440Y-86275000D01*
X155775440Y-85825000D01*
X155755933Y-85721329D01*
X155775440Y-85625000D01*
X155775440Y-85175000D01*
X155755933Y-85071329D01*
X155775440Y-84975000D01*
X155775440Y-84525000D01*
X155755933Y-84421329D01*
X155775440Y-84325000D01*
X155775440Y-83875000D01*
X155755933Y-83771329D01*
X155775440Y-83675000D01*
X155775440Y-83225000D01*
X155755933Y-83121329D01*
X155775440Y-83025000D01*
X155775440Y-82575000D01*
X155731162Y-82339683D01*
X155592090Y-82123559D01*
X155379890Y-81978569D01*
X155128000Y-81927560D01*
X153678000Y-81927560D01*
X153442683Y-81971838D01*
X153226559Y-82110910D01*
X153081569Y-82323110D01*
X153030560Y-82575000D01*
X153030560Y-83025000D01*
X153050067Y-83128671D01*
X153030560Y-83225000D01*
X153030560Y-83338000D01*
X152106631Y-83338000D01*
X149382815Y-80614185D01*
X149325673Y-80576004D01*
X149135605Y-80449004D01*
X148844000Y-80391000D01*
X148217184Y-80391000D01*
X148146859Y-80285750D01*
X153465000Y-80285750D01*
X153465000Y-81126310D01*
X153561673Y-81359699D01*
X153740302Y-81538327D01*
X153973691Y-81635000D01*
X154814250Y-81635000D01*
X154973000Y-81476250D01*
X154973000Y-80127000D01*
X155227000Y-80127000D01*
X155227000Y-81476250D01*
X155385750Y-81635000D01*
X156226309Y-81635000D01*
X156459698Y-81538327D01*
X156638327Y-81359699D01*
X156735000Y-81126310D01*
X156735000Y-80285750D01*
X156576250Y-80127000D01*
X155227000Y-80127000D01*
X154973000Y-80127000D01*
X153623750Y-80127000D01*
X153465000Y-80285750D01*
X148146859Y-80285750D01*
X147998670Y-80063971D01*
X147727828Y-79883000D01*
X147998670Y-79702029D01*
X148217184Y-79375000D01*
X150749000Y-79375000D01*
X151040605Y-79316996D01*
X151287815Y-79151815D01*
X151565940Y-78873690D01*
X153465000Y-78873690D01*
X153465000Y-79714250D01*
X153623750Y-79873000D01*
X154973000Y-79873000D01*
X154973000Y-78523750D01*
X155227000Y-78523750D01*
X155227000Y-79873000D01*
X156576250Y-79873000D01*
X156735000Y-79714250D01*
X156735000Y-78873690D01*
X156638327Y-78640301D01*
X156459698Y-78461673D01*
X156226309Y-78365000D01*
X155385750Y-78365000D01*
X155227000Y-78523750D01*
X154973000Y-78523750D01*
X154814250Y-78365000D01*
X153973691Y-78365000D01*
X153740302Y-78461673D01*
X153561673Y-78640301D01*
X153465000Y-78873690D01*
X151565940Y-78873690D01*
X153284560Y-77155070D01*
X153284560Y-77445000D01*
G36*
X179058000Y-82235631D02*
X179058000Y-87121159D01*
X178218420Y-86281580D01*
X177888807Y-86061338D01*
X177824300Y-86048507D01*
X177500000Y-85984000D01*
X176325367Y-85984000D01*
X176347440Y-85875000D01*
X176347440Y-85125000D01*
X176303162Y-84889683D01*
X176164090Y-84673559D01*
X175985279Y-84551383D01*
X175838816Y-84332185D01*
X175667815Y-84161185D01*
X175652946Y-84151250D01*
X175420605Y-83996004D01*
X175303850Y-83972780D01*
X175390880Y-83885750D01*
X176990000Y-83885750D01*
X176990000Y-84126309D01*
X177086673Y-84359698D01*
X177265301Y-84538327D01*
X177498690Y-84635000D01*
X177714250Y-84635000D01*
X177873000Y-84476250D01*
X177873000Y-83727000D01*
X178127000Y-83727000D01*
X178127000Y-84476250D01*
X178285750Y-84635000D01*
X178501310Y-84635000D01*
X178734699Y-84538327D01*
X178913327Y-84359698D01*
X179010000Y-84126309D01*
X179010000Y-83885750D01*
X178851250Y-83727000D01*
X178127000Y-83727000D01*
X177873000Y-83727000D01*
X177148750Y-83727000D01*
X176990000Y-83885750D01*
X175390880Y-83885750D01*
X176578816Y-82697815D01*
X176682928Y-82542000D01*
X176985463Y-82542000D01*
X177021838Y-82735317D01*
X177088329Y-82838646D01*
X177086673Y-82840302D01*
X176990000Y-83073691D01*
X176990000Y-83314250D01*
X177148750Y-83473000D01*
X177873000Y-83473000D01*
X177873000Y-83453000D01*
X178127000Y-83453000D01*
X178127000Y-83473000D01*
X178851250Y-83473000D01*
X179010000Y-83314250D01*
X179010000Y-83073691D01*
X178913327Y-82840302D01*
X178911957Y-82838932D01*
X178971431Y-82751890D01*
X179022440Y-82500000D01*
X179022440Y-82200071D01*
X179058000Y-82235631D01*
X179058000Y-82235631D01*
G37*
X179058000Y-82235631D02*
X179058000Y-87121159D01*
X178218420Y-86281580D01*
X177888807Y-86061338D01*
X177824300Y-86048507D01*
X177500000Y-85984000D01*
X176325367Y-85984000D01*
X176347440Y-85875000D01*
X176347440Y-85125000D01*
X176303162Y-84889683D01*
X176164090Y-84673559D01*
X175985279Y-84551383D01*
X175838816Y-84332185D01*
X175667815Y-84161185D01*
X175652946Y-84151250D01*
X175420605Y-83996004D01*
X175303850Y-83972780D01*
X175390880Y-83885750D01*
X176990000Y-83885750D01*
X176990000Y-84126309D01*
X177086673Y-84359698D01*
X177265301Y-84538327D01*
X177498690Y-84635000D01*
X177714250Y-84635000D01*
X177873000Y-84476250D01*
X177873000Y-83727000D01*
X178127000Y-83727000D01*
X178127000Y-84476250D01*
X178285750Y-84635000D01*
X178501310Y-84635000D01*
X178734699Y-84538327D01*
X178913327Y-84359698D01*
X179010000Y-84126309D01*
X179010000Y-83885750D01*
X178851250Y-83727000D01*
X178127000Y-83727000D01*
X177873000Y-83727000D01*
X177148750Y-83727000D01*
X176990000Y-83885750D01*
X175390880Y-83885750D01*
X176578816Y-82697815D01*
X176682928Y-82542000D01*
X176985463Y-82542000D01*
X177021838Y-82735317D01*
X177088329Y-82838646D01*
X177086673Y-82840302D01*
X176990000Y-83073691D01*
X176990000Y-83314250D01*
X177148750Y-83473000D01*
X177873000Y-83473000D01*
X177873000Y-83453000D01*
X178127000Y-83453000D01*
X178127000Y-83473000D01*
X178851250Y-83473000D01*
X179010000Y-83314250D01*
X179010000Y-83073691D01*
X178913327Y-82840302D01*
X178911957Y-82838932D01*
X178971431Y-82751890D01*
X179022440Y-82500000D01*
X179022440Y-82200071D01*
X179058000Y-82235631D01*
G36*
X137954057Y-86647313D02*
X137979968Y-86592027D01*
X137859469Y-86360000D01*
X136652000Y-86360000D01*
X136652000Y-86380000D01*
X136398000Y-86380000D01*
X136398000Y-86360000D01*
X136378000Y-86360000D01*
X136378000Y-86106000D01*
X136398000Y-86106000D01*
X136398000Y-86086000D01*
X136652000Y-86086000D01*
X136652000Y-86106000D01*
X137859469Y-86106000D01*
X137979968Y-85873973D01*
X137910148Y-85725000D01*
X138876370Y-85725000D01*
X137954057Y-86647313D01*
X137954057Y-86647313D01*
G37*
X137954057Y-86647313D02*
X137979968Y-86592027D01*
X137859469Y-86360000D01*
X136652000Y-86360000D01*
X136652000Y-86380000D01*
X136398000Y-86380000D01*
X136398000Y-86360000D01*
X136378000Y-86360000D01*
X136378000Y-86106000D01*
X136398000Y-86106000D01*
X136398000Y-86086000D01*
X136652000Y-86086000D01*
X136652000Y-86106000D01*
X137859469Y-86106000D01*
X137979968Y-85873973D01*
X137910148Y-85725000D01*
X138876370Y-85725000D01*
X137954057Y-86647313D01*
G36*
X139700000Y-83377369D02*
X138876370Y-84201000D01*
X137910148Y-84201000D01*
X137979968Y-84052027D01*
X137859469Y-83820000D01*
X136652000Y-83820000D01*
X136652000Y-83840000D01*
X136398000Y-83840000D01*
X136398000Y-83820000D01*
X136378000Y-83820000D01*
X136378000Y-83566000D01*
X136398000Y-83566000D01*
X136398000Y-83546000D01*
X136652000Y-83546000D01*
X136652000Y-83566000D01*
X137859469Y-83566000D01*
X137979968Y-83333973D01*
X137889498Y-83140941D01*
X137959605Y-83126996D01*
X138206815Y-82961815D01*
X139700000Y-81468630D01*
X139700000Y-83377369D01*
X139700000Y-83377369D01*
G37*
X139700000Y-83377369D02*
X138876370Y-84201000D01*
X137910148Y-84201000D01*
X137979968Y-84052027D01*
X137859469Y-83820000D01*
X136652000Y-83820000D01*
X136652000Y-83840000D01*
X136398000Y-83840000D01*
X136398000Y-83820000D01*
X136378000Y-83820000D01*
X136378000Y-83566000D01*
X136398000Y-83566000D01*
X136398000Y-83546000D01*
X136652000Y-83546000D01*
X136652000Y-83566000D01*
X137859469Y-83566000D01*
X137979968Y-83333973D01*
X137889498Y-83140941D01*
X137959605Y-83126996D01*
X138206815Y-82961815D01*
X139700000Y-81468630D01*
X139700000Y-83377369D01*
G36*
X143002000Y-56388000D02*
X143022000Y-56388000D01*
X143022000Y-56642000D01*
X143002000Y-56642000D01*
X143002000Y-57835155D01*
X143231890Y-57956476D01*
X143641924Y-57786645D01*
X144070183Y-57396358D01*
X144137298Y-57253447D01*
X144364946Y-57594147D01*
X144846715Y-57916054D01*
X145415000Y-58029093D01*
X145983285Y-57916054D01*
X146465054Y-57594147D01*
X146685000Y-57264974D01*
X146904946Y-57594147D01*
X147386715Y-57916054D01*
X147955000Y-58029093D01*
X148523285Y-57916054D01*
X149005054Y-57594147D01*
X149225000Y-57264974D01*
X149444946Y-57594147D01*
X149926715Y-57916054D01*
X150495000Y-58029093D01*
X151063285Y-57916054D01*
X151545054Y-57594147D01*
X151765000Y-57264974D01*
X151984946Y-57594147D01*
X152466715Y-57916054D01*
X153035000Y-58029093D01*
X153603285Y-57916054D01*
X154085054Y-57594147D01*
X154305000Y-57264974D01*
X154524946Y-57594147D01*
X154813000Y-57786618D01*
X154813000Y-62285000D01*
X154871004Y-62576605D01*
X155017602Y-62796004D01*
X155036185Y-62823815D01*
X159481184Y-67268815D01*
X159728395Y-67433996D01*
X160020000Y-67492000D01*
X163113029Y-67492000D01*
X163163302Y-67502000D01*
X165903732Y-67502000D01*
X166382571Y-67980839D01*
X166164683Y-68021838D01*
X166061354Y-68088329D01*
X166059698Y-68086673D01*
X165826309Y-67990000D01*
X165585750Y-67990000D01*
X165427000Y-68148750D01*
X165427000Y-68873000D01*
X165447000Y-68873000D01*
X165447000Y-69127000D01*
X165427000Y-69127000D01*
X165427000Y-69147000D01*
X165173000Y-69147000D01*
X165173000Y-69127000D01*
X164423750Y-69127000D01*
X164265000Y-69285750D01*
X164265000Y-69501310D01*
X164361673Y-69734699D01*
X164379279Y-69752305D01*
X164320726Y-69838000D01*
X163660466Y-69838000D01*
X163630327Y-69807808D01*
X163286799Y-69665162D01*
X162914833Y-69664838D01*
X162571057Y-69806883D01*
X162307808Y-70069673D01*
X162165162Y-70413201D01*
X162164838Y-70785167D01*
X162306883Y-71128943D01*
X162569673Y-71392192D01*
X162913201Y-71534838D01*
X163285167Y-71535162D01*
X163628943Y-71393117D01*
X163660114Y-71362000D01*
X164502588Y-71362000D01*
X164648110Y-71461431D01*
X164688172Y-71469544D01*
X164747948Y-71559004D01*
X164761185Y-71578815D01*
X165817560Y-72635191D01*
X165817560Y-72830000D01*
X165861838Y-73065317D01*
X166000910Y-73281441D01*
X166213110Y-73426431D01*
X166465000Y-73477440D01*
X166715000Y-73477440D01*
X166820705Y-73457550D01*
X166838690Y-73465000D01*
X166868750Y-73465000D01*
X166889062Y-73444688D01*
X166950317Y-73433162D01*
X167090727Y-73342810D01*
X167213110Y-73426431D01*
X167287808Y-73441558D01*
X167311250Y-73465000D01*
X167341310Y-73465000D01*
X167361753Y-73456532D01*
X167465000Y-73477440D01*
X167715000Y-73477440D01*
X167722089Y-73476106D01*
X167665162Y-73613201D01*
X167664838Y-73985167D01*
X167806883Y-74328943D01*
X168069673Y-74592192D01*
X168413201Y-74734838D01*
X168785167Y-74735162D01*
X169128943Y-74593117D01*
X169392192Y-74330327D01*
X169534838Y-73986799D01*
X169535162Y-73614833D01*
X169478393Y-73477440D01*
X169715000Y-73477440D01*
X169844589Y-73453056D01*
X169965000Y-73477440D01*
X170215000Y-73477440D01*
X170344589Y-73453056D01*
X170465000Y-73477440D01*
X170715000Y-73477440D01*
X170844589Y-73453056D01*
X170965000Y-73477440D01*
X171215000Y-73477440D01*
X171344589Y-73453056D01*
X171465000Y-73477440D01*
X171715000Y-73477440D01*
X171844589Y-73453056D01*
X171965000Y-73477440D01*
X172215000Y-73477440D01*
X172344589Y-73453056D01*
X172465000Y-73477440D01*
X172715000Y-73477440D01*
X172844589Y-73453056D01*
X172965000Y-73477440D01*
X173215000Y-73477440D01*
X173320705Y-73457550D01*
X173338690Y-73465000D01*
X173368750Y-73465000D01*
X173389062Y-73444688D01*
X173450317Y-73433162D01*
X173590727Y-73342810D01*
X173713110Y-73426431D01*
X173787808Y-73441558D01*
X173811250Y-73465000D01*
X173841310Y-73465000D01*
X173861753Y-73456532D01*
X173965000Y-73477440D01*
X174215000Y-73477440D01*
X174450317Y-73433162D01*
X174666441Y-73294090D01*
X174811431Y-73081890D01*
X174862440Y-72830000D01*
X174862440Y-71830000D01*
X174818162Y-71594683D01*
X174744320Y-71479930D01*
X174873000Y-71351250D01*
X174873000Y-70627000D01*
X175127000Y-70627000D01*
X175127000Y-71351250D01*
X175285750Y-71510000D01*
X175526309Y-71510000D01*
X175759698Y-71413327D01*
X175938327Y-71234699D01*
X176035000Y-71001310D01*
X176035000Y-70785750D01*
X175876250Y-70627000D01*
X175127000Y-70627000D01*
X174873000Y-70627000D01*
X174853000Y-70627000D01*
X174853000Y-70373000D01*
X174873000Y-70373000D01*
X174873000Y-69648750D01*
X175127000Y-69648750D01*
X175127000Y-70373000D01*
X175876250Y-70373000D01*
X176035000Y-70214250D01*
X176035000Y-69998690D01*
X175938327Y-69765301D01*
X175759698Y-69586673D01*
X175526309Y-69490000D01*
X175285750Y-69490000D01*
X175127000Y-69648750D01*
X174873000Y-69648750D01*
X174714250Y-69490000D01*
X174473691Y-69490000D01*
X174425162Y-69510101D01*
X174434838Y-69486799D01*
X174435162Y-69114833D01*
X174293117Y-68771057D01*
X174030327Y-68507808D01*
X173686799Y-68365162D01*
X173314833Y-68364838D01*
X172971057Y-68506883D01*
X172707808Y-68769673D01*
X172565162Y-69113201D01*
X172564838Y-69485167D01*
X172641638Y-69671039D01*
X172503569Y-69873110D01*
X172481055Y-69984287D01*
X169282518Y-66785750D01*
X178665000Y-66785750D01*
X178665000Y-67001310D01*
X178761673Y-67234699D01*
X178940302Y-67413327D01*
X179173691Y-67510000D01*
X179414250Y-67510000D01*
X179573000Y-67351250D01*
X179573000Y-66627000D01*
X178823750Y-66627000D01*
X178665000Y-66785750D01*
X169282518Y-66785750D01*
X168495458Y-65998690D01*
X178665000Y-65998690D01*
X178665000Y-66214250D01*
X178823750Y-66373000D01*
X179573000Y-66373000D01*
X179573000Y-65648750D01*
X179414250Y-65490000D01*
X179173691Y-65490000D01*
X178940302Y-65586673D01*
X178761673Y-65765301D01*
X178665000Y-65998690D01*
X168495458Y-65998690D01*
X167316323Y-64819555D01*
X167069113Y-64654374D01*
X166777508Y-64596370D01*
X164414000Y-64596370D01*
X161972000Y-62154370D01*
X161972000Y-61771618D01*
X162260054Y-61579147D01*
X162287850Y-61537548D01*
X162296838Y-61585317D01*
X162435910Y-61801441D01*
X162648110Y-61946431D01*
X162900000Y-61997440D01*
X164600000Y-61997440D01*
X164835317Y-61953162D01*
X165051441Y-61814090D01*
X165196431Y-61601890D01*
X165247440Y-61350000D01*
X165247440Y-59650000D01*
X165203162Y-59414683D01*
X165064090Y-59198559D01*
X164851890Y-59053569D01*
X164600000Y-59002560D01*
X164385952Y-59002560D01*
X164360402Y-58964322D01*
X164288816Y-58857185D01*
X163322002Y-57890372D01*
X163322002Y-57835156D01*
X163551890Y-57956476D01*
X163829373Y-57841546D01*
X163913976Y-57968162D01*
X163961185Y-58038815D01*
X165461184Y-59538815D01*
X165683864Y-59687605D01*
X165708395Y-59703996D01*
X166000000Y-59762000D01*
X172184370Y-59762000D01*
X174680729Y-62258360D01*
X174653569Y-62298110D01*
X174602560Y-62550000D01*
X174602560Y-63050000D01*
X174646838Y-63285317D01*
X174785910Y-63501441D01*
X174855711Y-63549134D01*
X174798559Y-63585910D01*
X174653569Y-63798110D01*
X174602560Y-64050000D01*
X174602560Y-64550000D01*
X174646838Y-64785317D01*
X174785910Y-65001441D01*
X174998110Y-65146431D01*
X175250000Y-65197440D01*
X176150000Y-65197440D01*
X176385317Y-65153162D01*
X176526987Y-65062000D01*
X177174541Y-65062000D01*
X177298110Y-65146431D01*
X177550000Y-65197440D01*
X178450000Y-65197440D01*
X178685317Y-65153162D01*
X178901441Y-65014090D01*
X178929380Y-64973200D01*
X179976364Y-64973200D01*
X180173110Y-65107631D01*
X180184000Y-65109836D01*
X180184000Y-65490000D01*
X179985750Y-65490000D01*
X179827000Y-65648750D01*
X179827000Y-66373000D01*
X179847000Y-66373000D01*
X179847000Y-66627000D01*
X179827000Y-66627000D01*
X179827000Y-67351250D01*
X179985750Y-67510000D01*
X180184000Y-67510000D01*
X180184000Y-69977559D01*
X179687580Y-70473980D01*
X179467338Y-70803593D01*
X179459750Y-70841740D01*
X179390000Y-71192400D01*
X179390000Y-72448159D01*
X177576468Y-74261692D01*
X177389683Y-74296838D01*
X177182323Y-74430271D01*
X177187440Y-74405000D01*
X177187440Y-74155000D01*
X177143162Y-73919683D01*
X177004090Y-73703559D01*
X176791890Y-73558569D01*
X176540000Y-73507560D01*
X175540000Y-73507560D01*
X175304683Y-73551838D01*
X175088559Y-73690910D01*
X174943569Y-73903110D01*
X174892560Y-74155000D01*
X174892560Y-74405000D01*
X174916944Y-74534589D01*
X174892560Y-74655000D01*
X174892560Y-74905000D01*
X174916944Y-75034589D01*
X174892560Y-75155000D01*
X174892560Y-75405000D01*
X174916944Y-75534589D01*
X174892560Y-75655000D01*
X174892560Y-75905000D01*
X174912450Y-76010705D01*
X174905000Y-76028690D01*
X174905000Y-76058750D01*
X174925312Y-76079062D01*
X174936838Y-76140317D01*
X175027190Y-76280727D01*
X174943569Y-76403110D01*
X174928442Y-76477808D01*
X174905000Y-76501250D01*
X174905000Y-76531310D01*
X174913468Y-76551753D01*
X174892560Y-76655000D01*
X174892560Y-76905000D01*
X174916944Y-77034589D01*
X174892560Y-77155000D01*
X174892560Y-77405000D01*
X174916944Y-77534589D01*
X174892560Y-77655000D01*
X174892560Y-77905000D01*
X174913822Y-78018000D01*
X171195631Y-78018000D01*
X167735125Y-74557495D01*
X167735162Y-74514833D01*
X167593117Y-74171057D01*
X167330327Y-73907808D01*
X166986799Y-73765162D01*
X166614833Y-73764838D01*
X166271057Y-73906883D01*
X166007808Y-74169673D01*
X165865162Y-74513201D01*
X165864838Y-74885167D01*
X166006883Y-75228943D01*
X166269673Y-75492192D01*
X166613201Y-75634838D01*
X166657246Y-75634876D01*
X170341184Y-79318815D01*
X170492144Y-79419683D01*
X170588395Y-79483996D01*
X170880000Y-79542000D01*
X174915443Y-79542000D01*
X174892560Y-79655000D01*
X174892560Y-79905000D01*
X174916944Y-80034589D01*
X174892560Y-80155000D01*
X174892560Y-80405000D01*
X174916944Y-80534589D01*
X174892560Y-80655000D01*
X174892560Y-80905000D01*
X174916944Y-81034589D01*
X174892560Y-81155000D01*
X174892560Y-81405000D01*
X174916944Y-81534589D01*
X174892560Y-81655000D01*
X174892560Y-81905000D01*
X174936838Y-82140317D01*
X174954150Y-82167220D01*
X174479313Y-82642057D01*
X174466890Y-82633569D01*
X174215000Y-82582560D01*
X173965000Y-82582560D01*
X173859295Y-82602450D01*
X173841310Y-82595000D01*
X173811250Y-82595000D01*
X173790938Y-82615312D01*
X173729683Y-82626838D01*
X173589273Y-82717190D01*
X173466890Y-82633569D01*
X173392192Y-82618442D01*
X173368750Y-82595000D01*
X173338690Y-82595000D01*
X173318247Y-82603468D01*
X173215000Y-82582560D01*
X172965000Y-82582560D01*
X172835411Y-82606944D01*
X172715000Y-82582560D01*
X172465000Y-82582560D01*
X172335411Y-82606944D01*
X172215000Y-82582560D01*
X171965000Y-82582560D01*
X171835411Y-82606944D01*
X171715000Y-82582560D01*
X171465000Y-82582560D01*
X171335411Y-82606944D01*
X171215000Y-82582560D01*
X170965000Y-82582560D01*
X170835411Y-82606944D01*
X170715000Y-82582560D01*
X170465000Y-82582560D01*
X170335411Y-82606944D01*
X170215000Y-82582560D01*
X169965000Y-82582560D01*
X169835411Y-82606944D01*
X169715000Y-82582560D01*
X169465000Y-82582560D01*
X169335411Y-82606944D01*
X169215000Y-82582560D01*
X168965000Y-82582560D01*
X168835411Y-82606944D01*
X168715000Y-82582560D01*
X168465000Y-82582560D01*
X168335411Y-82606944D01*
X168215000Y-82582560D01*
X167965000Y-82582560D01*
X167835411Y-82606944D01*
X167715000Y-82582560D01*
X167465000Y-82582560D01*
X167335411Y-82606944D01*
X167215000Y-82582560D01*
X166965000Y-82582560D01*
X166835411Y-82606944D01*
X166715000Y-82582560D01*
X166465000Y-82582560D01*
X166229683Y-82626838D01*
X166013559Y-82765910D01*
X165945946Y-82864865D01*
X165914833Y-82864838D01*
X165571057Y-83006883D01*
X165307808Y-83269673D01*
X165165162Y-83613201D01*
X165164838Y-83985167D01*
X165166009Y-83988000D01*
X161663000Y-83988000D01*
X161663000Y-83972998D01*
X161591884Y-83972998D01*
X161643597Y-83848153D01*
X161663000Y-83828750D01*
X161663000Y-83721250D01*
X161643597Y-83701847D01*
X161566327Y-83515301D01*
X161501026Y-83450000D01*
X161566327Y-83384699D01*
X161643597Y-83198153D01*
X161663000Y-83178750D01*
X161663000Y-83071250D01*
X161643597Y-83051847D01*
X161591884Y-82927002D01*
X161663000Y-82927002D01*
X161663000Y-82910164D01*
X161818395Y-83013996D01*
X161884492Y-83027144D01*
X161970910Y-83161441D01*
X162183110Y-83306431D01*
X162435000Y-83357440D01*
X163185000Y-83357440D01*
X163420317Y-83313162D01*
X163636441Y-83174090D01*
X163781431Y-82961890D01*
X163832440Y-82710000D01*
X163832440Y-82542000D01*
X164088446Y-82542000D01*
X164140000Y-82552440D01*
X165140000Y-82552440D01*
X165375317Y-82508162D01*
X165591441Y-82369090D01*
X165736431Y-82156890D01*
X165772941Y-81976597D01*
X165913201Y-82034838D01*
X166285167Y-82035162D01*
X166628943Y-81893117D01*
X166892192Y-81630327D01*
X167034838Y-81286799D01*
X167035162Y-80914833D01*
X166893117Y-80571057D01*
X166836225Y-80514065D01*
X167128943Y-80393117D01*
X167392192Y-80130327D01*
X167473236Y-79935152D01*
X167485167Y-79935162D01*
X167828943Y-79793117D01*
X168092192Y-79530327D01*
X168234838Y-79186799D01*
X168235162Y-78814833D01*
X168093117Y-78471057D01*
X167830327Y-78207808D01*
X167486799Y-78065162D01*
X167316352Y-78065014D01*
X167080000Y-78018000D01*
X165764557Y-78018000D01*
X165787440Y-77905000D01*
X165787440Y-77655000D01*
X165763056Y-77525411D01*
X165787440Y-77405000D01*
X165787440Y-77155000D01*
X165763056Y-77025411D01*
X165787440Y-76905000D01*
X165787440Y-76655000D01*
X165763056Y-76525411D01*
X165787440Y-76405000D01*
X165787440Y-76155000D01*
X165763056Y-76025411D01*
X165787440Y-75905000D01*
X165787440Y-75655000D01*
X165763056Y-75525411D01*
X165787440Y-75405000D01*
X165787440Y-75155000D01*
X165763056Y-75025411D01*
X165787440Y-74905000D01*
X165787440Y-74655000D01*
X165763056Y-74525411D01*
X165787440Y-74405000D01*
X165787440Y-74155000D01*
X165743162Y-73919683D01*
X165604090Y-73703559D01*
X165391890Y-73558569D01*
X165140000Y-73507560D01*
X164191190Y-73507560D01*
X162814815Y-72131185D01*
X162765836Y-72098458D01*
X162567605Y-71966004D01*
X162276000Y-71908000D01*
X161917000Y-71908000D01*
X161917000Y-71892998D01*
X161845884Y-71892998D01*
X161897597Y-71768153D01*
X161917000Y-71748750D01*
X161917000Y-71641250D01*
X161897597Y-71621847D01*
X161820327Y-71435301D01*
X161642525Y-71257500D01*
X161758250Y-71257500D01*
X161917000Y-71098750D01*
X161917000Y-71018690D01*
X161820327Y-70785301D01*
X161641698Y-70606673D01*
X161408309Y-70510000D01*
X160842750Y-70510000D01*
X160684000Y-70668750D01*
X160684000Y-71257500D01*
X160745250Y-71257500D01*
X160684000Y-71318750D01*
X160684000Y-71517000D01*
X160430000Y-71517000D01*
X160430000Y-71318750D01*
X160368750Y-71257500D01*
X160430000Y-71257500D01*
X160430000Y-70668750D01*
X160271250Y-70510000D01*
X159705691Y-70510000D01*
X159472302Y-70606673D01*
X159293673Y-70785301D01*
X159197000Y-71018690D01*
X159197000Y-71098750D01*
X159355750Y-71257500D01*
X159471475Y-71257500D01*
X159293673Y-71435301D01*
X159216403Y-71621847D01*
X159197000Y-71641250D01*
X159197000Y-71748750D01*
X159216403Y-71768153D01*
X159293673Y-71954699D01*
X159355930Y-72016956D01*
X159235569Y-72193110D01*
X159220442Y-72267808D01*
X159197000Y-72291250D01*
X159197000Y-72371310D01*
X159198667Y-72375335D01*
X159184560Y-72445000D01*
X159184560Y-72895000D01*
X159204067Y-72998671D01*
X159184560Y-73095000D01*
X159184560Y-73545000D01*
X159204067Y-73648671D01*
X159184560Y-73745000D01*
X159184560Y-74195000D01*
X159204067Y-74298671D01*
X159184560Y-74395000D01*
X159184560Y-74845000D01*
X159204067Y-74948671D01*
X159184560Y-75045000D01*
X159184560Y-75495000D01*
X159204067Y-75598671D01*
X159184560Y-75695000D01*
X159184560Y-76145000D01*
X159204067Y-76248671D01*
X159184560Y-76345000D01*
X159184560Y-76458000D01*
X157861000Y-76458000D01*
X157861000Y-70485000D01*
X157783662Y-70096194D01*
X157783662Y-70096193D01*
X157563420Y-69766579D01*
X156295531Y-68498690D01*
X164265000Y-68498690D01*
X164265000Y-68714250D01*
X164423750Y-68873000D01*
X165173000Y-68873000D01*
X165173000Y-68148750D01*
X165014250Y-67990000D01*
X164773691Y-67990000D01*
X164540302Y-68086673D01*
X164361673Y-68265301D01*
X164265000Y-68498690D01*
X156295531Y-68498690D01*
X155872420Y-68075580D01*
X155542807Y-67855338D01*
X155478300Y-67842507D01*
X155154000Y-67778000D01*
X150494841Y-67778000D01*
X149308420Y-66591580D01*
X148978807Y-66371338D01*
X148893627Y-66354395D01*
X148590000Y-66294000D01*
X136034041Y-66294000D01*
X133144791Y-63404750D01*
X143526000Y-63404750D01*
X143526000Y-64245310D01*
X143622673Y-64478699D01*
X143801302Y-64657327D01*
X144034691Y-64754000D01*
X144875250Y-64754000D01*
X145034000Y-64595250D01*
X145034000Y-63246000D01*
X145288000Y-63246000D01*
X145288000Y-64595250D01*
X145446750Y-64754000D01*
X146287309Y-64754000D01*
X146520698Y-64657327D01*
X146699327Y-64478699D01*
X146796000Y-64245310D01*
X146796000Y-63404750D01*
X146637250Y-63246000D01*
X145288000Y-63246000D01*
X145034000Y-63246000D01*
X143684750Y-63246000D01*
X143526000Y-63404750D01*
X133144791Y-63404750D01*
X131907126Y-62167086D01*
X131835067Y-61992690D01*
X143526000Y-61992690D01*
X143526000Y-62833250D01*
X143684750Y-62992000D01*
X145034000Y-62992000D01*
X145034000Y-61642750D01*
X145288000Y-61642750D01*
X145288000Y-62992000D01*
X146637250Y-62992000D01*
X146796000Y-62833250D01*
X146796000Y-61992690D01*
X146699327Y-61759301D01*
X146520698Y-61580673D01*
X146287309Y-61484000D01*
X145446750Y-61484000D01*
X145288000Y-61642750D01*
X145034000Y-61642750D01*
X144875250Y-61484000D01*
X144034691Y-61484000D01*
X143801302Y-61580673D01*
X143622673Y-61759301D01*
X143526000Y-61992690D01*
X131835067Y-61992690D01*
X131826000Y-61970747D01*
X131826000Y-58004542D01*
X131865000Y-58012440D01*
X133565000Y-58012440D01*
X133800317Y-57968162D01*
X134016441Y-57829090D01*
X134161431Y-57616890D01*
X134175086Y-57549459D01*
X134204946Y-57594147D01*
X134686715Y-57916054D01*
X135255000Y-58029093D01*
X135823285Y-57916054D01*
X136305054Y-57594147D01*
X136525000Y-57264974D01*
X136744946Y-57594147D01*
X137226715Y-57916054D01*
X137795000Y-58029093D01*
X138363285Y-57916054D01*
X138845054Y-57594147D01*
X139065000Y-57264974D01*
X139284946Y-57594147D01*
X139766715Y-57916054D01*
X140335000Y-58029093D01*
X140903285Y-57916054D01*
X141385054Y-57594147D01*
X141612702Y-57253447D01*
X141679817Y-57396358D01*
X142108076Y-57786645D01*
X142518110Y-57956476D01*
X142748000Y-57835155D01*
X142748000Y-56642000D01*
X142728000Y-56642000D01*
X142728000Y-56388000D01*
X142748000Y-56388000D01*
X142748000Y-56368000D01*
X143002000Y-56368000D01*
X143002000Y-56388000D01*
X143002000Y-56388000D01*
G37*
X143002000Y-56388000D02*
X143022000Y-56388000D01*
X143022000Y-56642000D01*
X143002000Y-56642000D01*
X143002000Y-57835155D01*
X143231890Y-57956476D01*
X143641924Y-57786645D01*
X144070183Y-57396358D01*
X144137298Y-57253447D01*
X144364946Y-57594147D01*
X144846715Y-57916054D01*
X145415000Y-58029093D01*
X145983285Y-57916054D01*
X146465054Y-57594147D01*
X146685000Y-57264974D01*
X146904946Y-57594147D01*
X147386715Y-57916054D01*
X147955000Y-58029093D01*
X148523285Y-57916054D01*
X149005054Y-57594147D01*
X149225000Y-57264974D01*
X149444946Y-57594147D01*
X149926715Y-57916054D01*
X150495000Y-58029093D01*
X151063285Y-57916054D01*
X151545054Y-57594147D01*
X151765000Y-57264974D01*
X151984946Y-57594147D01*
X152466715Y-57916054D01*
X153035000Y-58029093D01*
X153603285Y-57916054D01*
X154085054Y-57594147D01*
X154305000Y-57264974D01*
X154524946Y-57594147D01*
X154813000Y-57786618D01*
X154813000Y-62285000D01*
X154871004Y-62576605D01*
X155017602Y-62796004D01*
X155036185Y-62823815D01*
X159481184Y-67268815D01*
X159728395Y-67433996D01*
X160020000Y-67492000D01*
X163113029Y-67492000D01*
X163163302Y-67502000D01*
X165903732Y-67502000D01*
X166382571Y-67980839D01*
X166164683Y-68021838D01*
X166061354Y-68088329D01*
X166059698Y-68086673D01*
X165826309Y-67990000D01*
X165585750Y-67990000D01*
X165427000Y-68148750D01*
X165427000Y-68873000D01*
X165447000Y-68873000D01*
X165447000Y-69127000D01*
X165427000Y-69127000D01*
X165427000Y-69147000D01*
X165173000Y-69147000D01*
X165173000Y-69127000D01*
X164423750Y-69127000D01*
X164265000Y-69285750D01*
X164265000Y-69501310D01*
X164361673Y-69734699D01*
X164379279Y-69752305D01*
X164320726Y-69838000D01*
X163660466Y-69838000D01*
X163630327Y-69807808D01*
X163286799Y-69665162D01*
X162914833Y-69664838D01*
X162571057Y-69806883D01*
X162307808Y-70069673D01*
X162165162Y-70413201D01*
X162164838Y-70785167D01*
X162306883Y-71128943D01*
X162569673Y-71392192D01*
X162913201Y-71534838D01*
X163285167Y-71535162D01*
X163628943Y-71393117D01*
X163660114Y-71362000D01*
X164502588Y-71362000D01*
X164648110Y-71461431D01*
X164688172Y-71469544D01*
X164747948Y-71559004D01*
X164761185Y-71578815D01*
X165817560Y-72635191D01*
X165817560Y-72830000D01*
X165861838Y-73065317D01*
X166000910Y-73281441D01*
X166213110Y-73426431D01*
X166465000Y-73477440D01*
X166715000Y-73477440D01*
X166820705Y-73457550D01*
X166838690Y-73465000D01*
X166868750Y-73465000D01*
X166889062Y-73444688D01*
X166950317Y-73433162D01*
X167090727Y-73342810D01*
X167213110Y-73426431D01*
X167287808Y-73441558D01*
X167311250Y-73465000D01*
X167341310Y-73465000D01*
X167361753Y-73456532D01*
X167465000Y-73477440D01*
X167715000Y-73477440D01*
X167722089Y-73476106D01*
X167665162Y-73613201D01*
X167664838Y-73985167D01*
X167806883Y-74328943D01*
X168069673Y-74592192D01*
X168413201Y-74734838D01*
X168785167Y-74735162D01*
X169128943Y-74593117D01*
X169392192Y-74330327D01*
X169534838Y-73986799D01*
X169535162Y-73614833D01*
X169478393Y-73477440D01*
X169715000Y-73477440D01*
X169844589Y-73453056D01*
X169965000Y-73477440D01*
X170215000Y-73477440D01*
X170344589Y-73453056D01*
X170465000Y-73477440D01*
X170715000Y-73477440D01*
X170844589Y-73453056D01*
X170965000Y-73477440D01*
X171215000Y-73477440D01*
X171344589Y-73453056D01*
X171465000Y-73477440D01*
X171715000Y-73477440D01*
X171844589Y-73453056D01*
X171965000Y-73477440D01*
X172215000Y-73477440D01*
X172344589Y-73453056D01*
X172465000Y-73477440D01*
X172715000Y-73477440D01*
X172844589Y-73453056D01*
X172965000Y-73477440D01*
X173215000Y-73477440D01*
X173320705Y-73457550D01*
X173338690Y-73465000D01*
X173368750Y-73465000D01*
X173389062Y-73444688D01*
X173450317Y-73433162D01*
X173590727Y-73342810D01*
X173713110Y-73426431D01*
X173787808Y-73441558D01*
X173811250Y-73465000D01*
X173841310Y-73465000D01*
X173861753Y-73456532D01*
X173965000Y-73477440D01*
X174215000Y-73477440D01*
X174450317Y-73433162D01*
X174666441Y-73294090D01*
X174811431Y-73081890D01*
X174862440Y-72830000D01*
X174862440Y-71830000D01*
X174818162Y-71594683D01*
X174744320Y-71479930D01*
X174873000Y-71351250D01*
X174873000Y-70627000D01*
X175127000Y-70627000D01*
X175127000Y-71351250D01*
X175285750Y-71510000D01*
X175526309Y-71510000D01*
X175759698Y-71413327D01*
X175938327Y-71234699D01*
X176035000Y-71001310D01*
X176035000Y-70785750D01*
X175876250Y-70627000D01*
X175127000Y-70627000D01*
X174873000Y-70627000D01*
X174853000Y-70627000D01*
X174853000Y-70373000D01*
X174873000Y-70373000D01*
X174873000Y-69648750D01*
X175127000Y-69648750D01*
X175127000Y-70373000D01*
X175876250Y-70373000D01*
X176035000Y-70214250D01*
X176035000Y-69998690D01*
X175938327Y-69765301D01*
X175759698Y-69586673D01*
X175526309Y-69490000D01*
X175285750Y-69490000D01*
X175127000Y-69648750D01*
X174873000Y-69648750D01*
X174714250Y-69490000D01*
X174473691Y-69490000D01*
X174425162Y-69510101D01*
X174434838Y-69486799D01*
X174435162Y-69114833D01*
X174293117Y-68771057D01*
X174030327Y-68507808D01*
X173686799Y-68365162D01*
X173314833Y-68364838D01*
X172971057Y-68506883D01*
X172707808Y-68769673D01*
X172565162Y-69113201D01*
X172564838Y-69485167D01*
X172641638Y-69671039D01*
X172503569Y-69873110D01*
X172481055Y-69984287D01*
X169282518Y-66785750D01*
X178665000Y-66785750D01*
X178665000Y-67001310D01*
X178761673Y-67234699D01*
X178940302Y-67413327D01*
X179173691Y-67510000D01*
X179414250Y-67510000D01*
X179573000Y-67351250D01*
X179573000Y-66627000D01*
X178823750Y-66627000D01*
X178665000Y-66785750D01*
X169282518Y-66785750D01*
X168495458Y-65998690D01*
X178665000Y-65998690D01*
X178665000Y-66214250D01*
X178823750Y-66373000D01*
X179573000Y-66373000D01*
X179573000Y-65648750D01*
X179414250Y-65490000D01*
X179173691Y-65490000D01*
X178940302Y-65586673D01*
X178761673Y-65765301D01*
X178665000Y-65998690D01*
X168495458Y-65998690D01*
X167316323Y-64819555D01*
X167069113Y-64654374D01*
X166777508Y-64596370D01*
X164414000Y-64596370D01*
X161972000Y-62154370D01*
X161972000Y-61771618D01*
X162260054Y-61579147D01*
X162287850Y-61537548D01*
X162296838Y-61585317D01*
X162435910Y-61801441D01*
X162648110Y-61946431D01*
X162900000Y-61997440D01*
X164600000Y-61997440D01*
X164835317Y-61953162D01*
X165051441Y-61814090D01*
X165196431Y-61601890D01*
X165247440Y-61350000D01*
X165247440Y-59650000D01*
X165203162Y-59414683D01*
X165064090Y-59198559D01*
X164851890Y-59053569D01*
X164600000Y-59002560D01*
X164385952Y-59002560D01*
X164360402Y-58964322D01*
X164288816Y-58857185D01*
X163322002Y-57890372D01*
X163322002Y-57835156D01*
X163551890Y-57956476D01*
X163829373Y-57841546D01*
X163913976Y-57968162D01*
X163961185Y-58038815D01*
X165461184Y-59538815D01*
X165683864Y-59687605D01*
X165708395Y-59703996D01*
X166000000Y-59762000D01*
X172184370Y-59762000D01*
X174680729Y-62258360D01*
X174653569Y-62298110D01*
X174602560Y-62550000D01*
X174602560Y-63050000D01*
X174646838Y-63285317D01*
X174785910Y-63501441D01*
X174855711Y-63549134D01*
X174798559Y-63585910D01*
X174653569Y-63798110D01*
X174602560Y-64050000D01*
X174602560Y-64550000D01*
X174646838Y-64785317D01*
X174785910Y-65001441D01*
X174998110Y-65146431D01*
X175250000Y-65197440D01*
X176150000Y-65197440D01*
X176385317Y-65153162D01*
X176526987Y-65062000D01*
X177174541Y-65062000D01*
X177298110Y-65146431D01*
X177550000Y-65197440D01*
X178450000Y-65197440D01*
X178685317Y-65153162D01*
X178901441Y-65014090D01*
X178929380Y-64973200D01*
X179976364Y-64973200D01*
X180173110Y-65107631D01*
X180184000Y-65109836D01*
X180184000Y-65490000D01*
X179985750Y-65490000D01*
X179827000Y-65648750D01*
X179827000Y-66373000D01*
X179847000Y-66373000D01*
X179847000Y-66627000D01*
X179827000Y-66627000D01*
X179827000Y-67351250D01*
X179985750Y-67510000D01*
X180184000Y-67510000D01*
X180184000Y-69977559D01*
X179687580Y-70473980D01*
X179467338Y-70803593D01*
X179459750Y-70841740D01*
X179390000Y-71192400D01*
X179390000Y-72448159D01*
X177576468Y-74261692D01*
X177389683Y-74296838D01*
X177182323Y-74430271D01*
X177187440Y-74405000D01*
X177187440Y-74155000D01*
X177143162Y-73919683D01*
X177004090Y-73703559D01*
X176791890Y-73558569D01*
X176540000Y-73507560D01*
X175540000Y-73507560D01*
X175304683Y-73551838D01*
X175088559Y-73690910D01*
X174943569Y-73903110D01*
X174892560Y-74155000D01*
X174892560Y-74405000D01*
X174916944Y-74534589D01*
X174892560Y-74655000D01*
X174892560Y-74905000D01*
X174916944Y-75034589D01*
X174892560Y-75155000D01*
X174892560Y-75405000D01*
X174916944Y-75534589D01*
X174892560Y-75655000D01*
X174892560Y-75905000D01*
X174912450Y-76010705D01*
X174905000Y-76028690D01*
X174905000Y-76058750D01*
X174925312Y-76079062D01*
X174936838Y-76140317D01*
X175027190Y-76280727D01*
X174943569Y-76403110D01*
X174928442Y-76477808D01*
X174905000Y-76501250D01*
X174905000Y-76531310D01*
X174913468Y-76551753D01*
X174892560Y-76655000D01*
X174892560Y-76905000D01*
X174916944Y-77034589D01*
X174892560Y-77155000D01*
X174892560Y-77405000D01*
X174916944Y-77534589D01*
X174892560Y-77655000D01*
X174892560Y-77905000D01*
X174913822Y-78018000D01*
X171195631Y-78018000D01*
X167735125Y-74557495D01*
X167735162Y-74514833D01*
X167593117Y-74171057D01*
X167330327Y-73907808D01*
X166986799Y-73765162D01*
X166614833Y-73764838D01*
X166271057Y-73906883D01*
X166007808Y-74169673D01*
X165865162Y-74513201D01*
X165864838Y-74885167D01*
X166006883Y-75228943D01*
X166269673Y-75492192D01*
X166613201Y-75634838D01*
X166657246Y-75634876D01*
X170341184Y-79318815D01*
X170492144Y-79419683D01*
X170588395Y-79483996D01*
X170880000Y-79542000D01*
X174915443Y-79542000D01*
X174892560Y-79655000D01*
X174892560Y-79905000D01*
X174916944Y-80034589D01*
X174892560Y-80155000D01*
X174892560Y-80405000D01*
X174916944Y-80534589D01*
X174892560Y-80655000D01*
X174892560Y-80905000D01*
X174916944Y-81034589D01*
X174892560Y-81155000D01*
X174892560Y-81405000D01*
X174916944Y-81534589D01*
X174892560Y-81655000D01*
X174892560Y-81905000D01*
X174936838Y-82140317D01*
X174954150Y-82167220D01*
X174479313Y-82642057D01*
X174466890Y-82633569D01*
X174215000Y-82582560D01*
X173965000Y-82582560D01*
X173859295Y-82602450D01*
X173841310Y-82595000D01*
X173811250Y-82595000D01*
X173790938Y-82615312D01*
X173729683Y-82626838D01*
X173589273Y-82717190D01*
X173466890Y-82633569D01*
X173392192Y-82618442D01*
X173368750Y-82595000D01*
X173338690Y-82595000D01*
X173318247Y-82603468D01*
X173215000Y-82582560D01*
X172965000Y-82582560D01*
X172835411Y-82606944D01*
X172715000Y-82582560D01*
X172465000Y-82582560D01*
X172335411Y-82606944D01*
X172215000Y-82582560D01*
X171965000Y-82582560D01*
X171835411Y-82606944D01*
X171715000Y-82582560D01*
X171465000Y-82582560D01*
X171335411Y-82606944D01*
X171215000Y-82582560D01*
X170965000Y-82582560D01*
X170835411Y-82606944D01*
X170715000Y-82582560D01*
X170465000Y-82582560D01*
X170335411Y-82606944D01*
X170215000Y-82582560D01*
X169965000Y-82582560D01*
X169835411Y-82606944D01*
X169715000Y-82582560D01*
X169465000Y-82582560D01*
X169335411Y-82606944D01*
X169215000Y-82582560D01*
X168965000Y-82582560D01*
X168835411Y-82606944D01*
X168715000Y-82582560D01*
X168465000Y-82582560D01*
X168335411Y-82606944D01*
X168215000Y-82582560D01*
X167965000Y-82582560D01*
X167835411Y-82606944D01*
X167715000Y-82582560D01*
X167465000Y-82582560D01*
X167335411Y-82606944D01*
X167215000Y-82582560D01*
X166965000Y-82582560D01*
X166835411Y-82606944D01*
X166715000Y-82582560D01*
X166465000Y-82582560D01*
X166229683Y-82626838D01*
X166013559Y-82765910D01*
X165945946Y-82864865D01*
X165914833Y-82864838D01*
X165571057Y-83006883D01*
X165307808Y-83269673D01*
X165165162Y-83613201D01*
X165164838Y-83985167D01*
X165166009Y-83988000D01*
X161663000Y-83988000D01*
X161663000Y-83972998D01*
X161591884Y-83972998D01*
X161643597Y-83848153D01*
X161663000Y-83828750D01*
X161663000Y-83721250D01*
X161643597Y-83701847D01*
X161566327Y-83515301D01*
X161501026Y-83450000D01*
X161566327Y-83384699D01*
X161643597Y-83198153D01*
X161663000Y-83178750D01*
X161663000Y-83071250D01*
X161643597Y-83051847D01*
X161591884Y-82927002D01*
X161663000Y-82927002D01*
X161663000Y-82910164D01*
X161818395Y-83013996D01*
X161884492Y-83027144D01*
X161970910Y-83161441D01*
X162183110Y-83306431D01*
X162435000Y-83357440D01*
X163185000Y-83357440D01*
X163420317Y-83313162D01*
X163636441Y-83174090D01*
X163781431Y-82961890D01*
X163832440Y-82710000D01*
X163832440Y-82542000D01*
X164088446Y-82542000D01*
X164140000Y-82552440D01*
X165140000Y-82552440D01*
X165375317Y-82508162D01*
X165591441Y-82369090D01*
X165736431Y-82156890D01*
X165772941Y-81976597D01*
X165913201Y-82034838D01*
X166285167Y-82035162D01*
X166628943Y-81893117D01*
X166892192Y-81630327D01*
X167034838Y-81286799D01*
X167035162Y-80914833D01*
X166893117Y-80571057D01*
X166836225Y-80514065D01*
X167128943Y-80393117D01*
X167392192Y-80130327D01*
X167473236Y-79935152D01*
X167485167Y-79935162D01*
X167828943Y-79793117D01*
X168092192Y-79530327D01*
X168234838Y-79186799D01*
X168235162Y-78814833D01*
X168093117Y-78471057D01*
X167830327Y-78207808D01*
X167486799Y-78065162D01*
X167316352Y-78065014D01*
X167080000Y-78018000D01*
X165764557Y-78018000D01*
X165787440Y-77905000D01*
X165787440Y-77655000D01*
X165763056Y-77525411D01*
X165787440Y-77405000D01*
X165787440Y-77155000D01*
X165763056Y-77025411D01*
X165787440Y-76905000D01*
X165787440Y-76655000D01*
X165763056Y-76525411D01*
X165787440Y-76405000D01*
X165787440Y-76155000D01*
X165763056Y-76025411D01*
X165787440Y-75905000D01*
X165787440Y-75655000D01*
X165763056Y-75525411D01*
X165787440Y-75405000D01*
X165787440Y-75155000D01*
X165763056Y-75025411D01*
X165787440Y-74905000D01*
X165787440Y-74655000D01*
X165763056Y-74525411D01*
X165787440Y-74405000D01*
X165787440Y-74155000D01*
X165743162Y-73919683D01*
X165604090Y-73703559D01*
X165391890Y-73558569D01*
X165140000Y-73507560D01*
X164191190Y-73507560D01*
X162814815Y-72131185D01*
X162765836Y-72098458D01*
X162567605Y-71966004D01*
X162276000Y-71908000D01*
X161917000Y-71908000D01*
X161917000Y-71892998D01*
X161845884Y-71892998D01*
X161897597Y-71768153D01*
X161917000Y-71748750D01*
X161917000Y-71641250D01*
X161897597Y-71621847D01*
X161820327Y-71435301D01*
X161642525Y-71257500D01*
X161758250Y-71257500D01*
X161917000Y-71098750D01*
X161917000Y-71018690D01*
X161820327Y-70785301D01*
X161641698Y-70606673D01*
X161408309Y-70510000D01*
X160842750Y-70510000D01*
X160684000Y-70668750D01*
X160684000Y-71257500D01*
X160745250Y-71257500D01*
X160684000Y-71318750D01*
X160684000Y-71517000D01*
X160430000Y-71517000D01*
X160430000Y-71318750D01*
X160368750Y-71257500D01*
X160430000Y-71257500D01*
X160430000Y-70668750D01*
X160271250Y-70510000D01*
X159705691Y-70510000D01*
X159472302Y-70606673D01*
X159293673Y-70785301D01*
X159197000Y-71018690D01*
X159197000Y-71098750D01*
X159355750Y-71257500D01*
X159471475Y-71257500D01*
X159293673Y-71435301D01*
X159216403Y-71621847D01*
X159197000Y-71641250D01*
X159197000Y-71748750D01*
X159216403Y-71768153D01*
X159293673Y-71954699D01*
X159355930Y-72016956D01*
X159235569Y-72193110D01*
X159220442Y-72267808D01*
X159197000Y-72291250D01*
X159197000Y-72371310D01*
X159198667Y-72375335D01*
X159184560Y-72445000D01*
X159184560Y-72895000D01*
X159204067Y-72998671D01*
X159184560Y-73095000D01*
X159184560Y-73545000D01*
X159204067Y-73648671D01*
X159184560Y-73745000D01*
X159184560Y-74195000D01*
X159204067Y-74298671D01*
X159184560Y-74395000D01*
X159184560Y-74845000D01*
X159204067Y-74948671D01*
X159184560Y-75045000D01*
X159184560Y-75495000D01*
X159204067Y-75598671D01*
X159184560Y-75695000D01*
X159184560Y-76145000D01*
X159204067Y-76248671D01*
X159184560Y-76345000D01*
X159184560Y-76458000D01*
X157861000Y-76458000D01*
X157861000Y-70485000D01*
X157783662Y-70096194D01*
X157783662Y-70096193D01*
X157563420Y-69766579D01*
X156295531Y-68498690D01*
X164265000Y-68498690D01*
X164265000Y-68714250D01*
X164423750Y-68873000D01*
X165173000Y-68873000D01*
X165173000Y-68148750D01*
X165014250Y-67990000D01*
X164773691Y-67990000D01*
X164540302Y-68086673D01*
X164361673Y-68265301D01*
X164265000Y-68498690D01*
X156295531Y-68498690D01*
X155872420Y-68075580D01*
X155542807Y-67855338D01*
X155478300Y-67842507D01*
X155154000Y-67778000D01*
X150494841Y-67778000D01*
X149308420Y-66591580D01*
X148978807Y-66371338D01*
X148893627Y-66354395D01*
X148590000Y-66294000D01*
X136034041Y-66294000D01*
X133144791Y-63404750D01*
X143526000Y-63404750D01*
X143526000Y-64245310D01*
X143622673Y-64478699D01*
X143801302Y-64657327D01*
X144034691Y-64754000D01*
X144875250Y-64754000D01*
X145034000Y-64595250D01*
X145034000Y-63246000D01*
X145288000Y-63246000D01*
X145288000Y-64595250D01*
X145446750Y-64754000D01*
X146287309Y-64754000D01*
X146520698Y-64657327D01*
X146699327Y-64478699D01*
X146796000Y-64245310D01*
X146796000Y-63404750D01*
X146637250Y-63246000D01*
X145288000Y-63246000D01*
X145034000Y-63246000D01*
X143684750Y-63246000D01*
X143526000Y-63404750D01*
X133144791Y-63404750D01*
X131907126Y-62167086D01*
X131835067Y-61992690D01*
X143526000Y-61992690D01*
X143526000Y-62833250D01*
X143684750Y-62992000D01*
X145034000Y-62992000D01*
X145034000Y-61642750D01*
X145288000Y-61642750D01*
X145288000Y-62992000D01*
X146637250Y-62992000D01*
X146796000Y-62833250D01*
X146796000Y-61992690D01*
X146699327Y-61759301D01*
X146520698Y-61580673D01*
X146287309Y-61484000D01*
X145446750Y-61484000D01*
X145288000Y-61642750D01*
X145034000Y-61642750D01*
X144875250Y-61484000D01*
X144034691Y-61484000D01*
X143801302Y-61580673D01*
X143622673Y-61759301D01*
X143526000Y-61992690D01*
X131835067Y-61992690D01*
X131826000Y-61970747D01*
X131826000Y-58004542D01*
X131865000Y-58012440D01*
X133565000Y-58012440D01*
X133800317Y-57968162D01*
X134016441Y-57829090D01*
X134161431Y-57616890D01*
X134175086Y-57549459D01*
X134204946Y-57594147D01*
X134686715Y-57916054D01*
X135255000Y-58029093D01*
X135823285Y-57916054D01*
X136305054Y-57594147D01*
X136525000Y-57264974D01*
X136744946Y-57594147D01*
X137226715Y-57916054D01*
X137795000Y-58029093D01*
X138363285Y-57916054D01*
X138845054Y-57594147D01*
X139065000Y-57264974D01*
X139284946Y-57594147D01*
X139766715Y-57916054D01*
X140335000Y-58029093D01*
X140903285Y-57916054D01*
X141385054Y-57594147D01*
X141612702Y-57253447D01*
X141679817Y-57396358D01*
X142108076Y-57786645D01*
X142518110Y-57956476D01*
X142748000Y-57835155D01*
X142748000Y-56642000D01*
X142728000Y-56642000D01*
X142728000Y-56388000D01*
X142748000Y-56388000D01*
X142748000Y-56368000D01*
X143002000Y-56368000D01*
X143002000Y-56388000D01*
G36*
X144526000Y-81026000D02*
X144546000Y-81026000D01*
X144546000Y-81280000D01*
X144526000Y-81280000D01*
X144526000Y-81300000D01*
X144272000Y-81300000D01*
X144272000Y-81280000D01*
X144252000Y-81280000D01*
X144252000Y-81026000D01*
X144272000Y-81026000D01*
X144272000Y-81006000D01*
X144526000Y-81006000D01*
X144526000Y-81026000D01*
X144526000Y-81026000D01*
G37*
X144526000Y-81026000D02*
X144546000Y-81026000D01*
X144546000Y-81280000D01*
X144526000Y-81280000D01*
X144526000Y-81300000D01*
X144272000Y-81300000D01*
X144272000Y-81280000D01*
X144252000Y-81280000D01*
X144252000Y-81026000D01*
X144272000Y-81026000D01*
X144272000Y-81006000D01*
X144526000Y-81006000D01*
X144526000Y-81026000D01*
G36*
X185570000Y-77393691D02*
X185570000Y-77634250D01*
X185728750Y-77793000D01*
X186453000Y-77793000D01*
X186453000Y-77773000D01*
X186707000Y-77773000D01*
X186707000Y-77793000D01*
X186727000Y-77793000D01*
X186727000Y-78047000D01*
X186707000Y-78047000D01*
X186707000Y-78796250D01*
X186765750Y-78855000D01*
X186707000Y-78913750D01*
X186707000Y-79663000D01*
X186727000Y-79663000D01*
X186727000Y-79917000D01*
X186707000Y-79917000D01*
X186707000Y-79937000D01*
X186453000Y-79937000D01*
X186453000Y-79917000D01*
X185728750Y-79917000D01*
X185570000Y-80075750D01*
X185570000Y-80316309D01*
X185657685Y-80528000D01*
X183694305Y-80528000D01*
X183686531Y-80509185D01*
X183297264Y-80119239D01*
X182788402Y-79907941D01*
X182237415Y-79907460D01*
X182213834Y-79917204D01*
X182057815Y-79761185D01*
X181910871Y-79663000D01*
X181810605Y-79596004D01*
X181519000Y-79538000D01*
X179903818Y-79538000D01*
X179879380Y-79500022D01*
X179905360Y-79462000D01*
X180224400Y-79462000D01*
X180516005Y-79403996D01*
X180763215Y-79238815D01*
X181796280Y-78205750D01*
X185570000Y-78205750D01*
X185570000Y-78446309D01*
X185666673Y-78679698D01*
X185841974Y-78855000D01*
X185666673Y-79030302D01*
X185570000Y-79263691D01*
X185570000Y-79504250D01*
X185728750Y-79663000D01*
X186453000Y-79663000D01*
X186453000Y-78913750D01*
X186394250Y-78855000D01*
X186453000Y-78796250D01*
X186453000Y-78047000D01*
X185728750Y-78047000D01*
X185570000Y-78205750D01*
X181796280Y-78205750D01*
X182213499Y-77788532D01*
X182234998Y-77797459D01*
X182785985Y-77797940D01*
X183295215Y-77587531D01*
X183685161Y-77198264D01*
X183691914Y-77182000D01*
X185657685Y-77182000D01*
X185570000Y-77393691D01*
X185570000Y-77393691D01*
G37*
X185570000Y-77393691D02*
X185570000Y-77634250D01*
X185728750Y-77793000D01*
X186453000Y-77793000D01*
X186453000Y-77773000D01*
X186707000Y-77773000D01*
X186707000Y-77793000D01*
X186727000Y-77793000D01*
X186727000Y-78047000D01*
X186707000Y-78047000D01*
X186707000Y-78796250D01*
X186765750Y-78855000D01*
X186707000Y-78913750D01*
X186707000Y-79663000D01*
X186727000Y-79663000D01*
X186727000Y-79917000D01*
X186707000Y-79917000D01*
X186707000Y-79937000D01*
X186453000Y-79937000D01*
X186453000Y-79917000D01*
X185728750Y-79917000D01*
X185570000Y-80075750D01*
X185570000Y-80316309D01*
X185657685Y-80528000D01*
X183694305Y-80528000D01*
X183686531Y-80509185D01*
X183297264Y-80119239D01*
X182788402Y-79907941D01*
X182237415Y-79907460D01*
X182213834Y-79917204D01*
X182057815Y-79761185D01*
X181910871Y-79663000D01*
X181810605Y-79596004D01*
X181519000Y-79538000D01*
X179903818Y-79538000D01*
X179879380Y-79500022D01*
X179905360Y-79462000D01*
X180224400Y-79462000D01*
X180516005Y-79403996D01*
X180763215Y-79238815D01*
X181796280Y-78205750D01*
X185570000Y-78205750D01*
X185570000Y-78446309D01*
X185666673Y-78679698D01*
X185841974Y-78855000D01*
X185666673Y-79030302D01*
X185570000Y-79263691D01*
X185570000Y-79504250D01*
X185728750Y-79663000D01*
X186453000Y-79663000D01*
X186453000Y-78913750D01*
X186394250Y-78855000D01*
X186453000Y-78796250D01*
X186453000Y-78047000D01*
X185728750Y-78047000D01*
X185570000Y-78205750D01*
X181796280Y-78205750D01*
X182213499Y-77788532D01*
X182234998Y-77797459D01*
X182785985Y-77797940D01*
X183295215Y-77587531D01*
X183685161Y-77198264D01*
X183691914Y-77182000D01*
X185657685Y-77182000D01*
X185570000Y-77393691D01*
G36*
X187452000Y-75619703D02*
X187419090Y-75568559D01*
X187206890Y-75423569D01*
X186955000Y-75372560D01*
X186205000Y-75372560D01*
X185969683Y-75416838D01*
X185753559Y-75555910D01*
X185683804Y-75658000D01*
X183698437Y-75658000D01*
X183686531Y-75629185D01*
X183297264Y-75239239D01*
X182788402Y-75027941D01*
X182237415Y-75027460D01*
X181728185Y-75237869D01*
X181338239Y-75627136D01*
X181126941Y-76135998D01*
X181126460Y-76686985D01*
X181136203Y-76710566D01*
X179908770Y-77938000D01*
X179903818Y-77938000D01*
X179814090Y-77798559D01*
X179601890Y-77653569D01*
X179350000Y-77602560D01*
X178870465Y-77602560D01*
X178913327Y-77559698D01*
X179010000Y-77326309D01*
X179010000Y-77085750D01*
X178851250Y-76927000D01*
X178127000Y-76927000D01*
X178127000Y-76947000D01*
X177873000Y-76947000D01*
X177873000Y-76927000D01*
X177853000Y-76927000D01*
X177853000Y-76673000D01*
X177873000Y-76673000D01*
X177873000Y-76653000D01*
X178127000Y-76653000D01*
X178127000Y-76673000D01*
X178851250Y-76673000D01*
X179010000Y-76514250D01*
X179010000Y-76273691D01*
X178913327Y-76040302D01*
X178911957Y-76038932D01*
X178971431Y-75951890D01*
X179022440Y-75700000D01*
X179022440Y-75689400D01*
X181124421Y-73587420D01*
X181344662Y-73257807D01*
X181365708Y-73152000D01*
X187452000Y-73152000D01*
X187452000Y-75619703D01*
X187452000Y-75619703D01*
G37*
X187452000Y-75619703D02*
X187419090Y-75568559D01*
X187206890Y-75423569D01*
X186955000Y-75372560D01*
X186205000Y-75372560D01*
X185969683Y-75416838D01*
X185753559Y-75555910D01*
X185683804Y-75658000D01*
X183698437Y-75658000D01*
X183686531Y-75629185D01*
X183297264Y-75239239D01*
X182788402Y-75027941D01*
X182237415Y-75027460D01*
X181728185Y-75237869D01*
X181338239Y-75627136D01*
X181126941Y-76135998D01*
X181126460Y-76686985D01*
X181136203Y-76710566D01*
X179908770Y-77938000D01*
X179903818Y-77938000D01*
X179814090Y-77798559D01*
X179601890Y-77653569D01*
X179350000Y-77602560D01*
X178870465Y-77602560D01*
X178913327Y-77559698D01*
X179010000Y-77326309D01*
X179010000Y-77085750D01*
X178851250Y-76927000D01*
X178127000Y-76927000D01*
X178127000Y-76947000D01*
X177873000Y-76947000D01*
X177873000Y-76927000D01*
X177853000Y-76927000D01*
X177853000Y-76673000D01*
X177873000Y-76673000D01*
X177873000Y-76653000D01*
X178127000Y-76653000D01*
X178127000Y-76673000D01*
X178851250Y-76673000D01*
X179010000Y-76514250D01*
X179010000Y-76273691D01*
X178913327Y-76040302D01*
X178911957Y-76038932D01*
X178971431Y-75951890D01*
X179022440Y-75700000D01*
X179022440Y-75689400D01*
X181124421Y-73587420D01*
X181344662Y-73257807D01*
X181365708Y-73152000D01*
X187452000Y-73152000D01*
X187452000Y-75619703D01*
G36*
X142900400Y-73503641D02*
X142900400Y-73562359D01*
X142923231Y-73677138D01*
X142559370Y-74041000D01*
X137910148Y-74041000D01*
X137979968Y-73892027D01*
X137859469Y-73660000D01*
X136652000Y-73660000D01*
X136652000Y-73680000D01*
X136398000Y-73680000D01*
X136398000Y-73660000D01*
X136378000Y-73660000D01*
X136378000Y-73406000D01*
X136398000Y-73406000D01*
X136398000Y-73386000D01*
X136652000Y-73386000D01*
X136652000Y-73406000D01*
X137859469Y-73406000D01*
X137979968Y-73173973D01*
X137910148Y-73025000D01*
X142995608Y-73025000D01*
X142900400Y-73503641D01*
X142900400Y-73503641D01*
G37*
X142900400Y-73503641D02*
X142900400Y-73562359D01*
X142923231Y-73677138D01*
X142559370Y-74041000D01*
X137910148Y-74041000D01*
X137979968Y-73892027D01*
X137859469Y-73660000D01*
X136652000Y-73660000D01*
X136652000Y-73680000D01*
X136398000Y-73680000D01*
X136398000Y-73660000D01*
X136378000Y-73660000D01*
X136378000Y-73406000D01*
X136398000Y-73406000D01*
X136398000Y-73386000D01*
X136652000Y-73386000D01*
X136652000Y-73406000D01*
X137859469Y-73406000D01*
X137979968Y-73173973D01*
X137910148Y-73025000D01*
X142995608Y-73025000D01*
X142900400Y-73503641D01*
G36*
X166828000Y-70637000D02*
X166673000Y-70637000D01*
X166673000Y-70617000D01*
X166653000Y-70617000D01*
X166653000Y-70363000D01*
X166673000Y-70363000D01*
X166673000Y-70343000D01*
X166828000Y-70343000D01*
X166828000Y-70637000D01*
X166828000Y-70637000D01*
G37*
X166828000Y-70637000D02*
X166673000Y-70637000D01*
X166673000Y-70617000D01*
X166653000Y-70617000D01*
X166653000Y-70363000D01*
X166673000Y-70363000D01*
X166673000Y-70343000D01*
X166828000Y-70343000D01*
X166828000Y-70637000D01*
G36*
X163322000Y-56388000D02*
X163342000Y-56388000D01*
X163342000Y-56642000D01*
X163322000Y-56642000D01*
X163322000Y-56662000D01*
X163068000Y-56662000D01*
X163068000Y-56642000D01*
X163048000Y-56642000D01*
X163048000Y-56388000D01*
X163068000Y-56388000D01*
X163068000Y-56368000D01*
X163322000Y-56368000D01*
X163322000Y-56388000D01*
X163322000Y-56388000D01*
G37*
X163322000Y-56388000D02*
X163342000Y-56388000D01*
X163342000Y-56642000D01*
X163322000Y-56642000D01*
X163322000Y-56662000D01*
X163068000Y-56662000D01*
X163068000Y-56642000D01*
X163048000Y-56642000D01*
X163048000Y-56388000D01*
X163068000Y-56388000D01*
X163068000Y-56368000D01*
X163322000Y-56368000D01*
X163322000Y-56388000D01*
M02*
