M48
;DRILL file {KiCad 4.0.7-e2-6376~58~ubuntu16.04.1} date Sun May 27 17:23:33 2018
;FORMAT={2:4/ absolute / inch / suppress leading zeros}
FMAT,2
INCH,TZ
T1C0.016
T2C0.031
T3C0.039
T4C0.039
T5C0.040
%
G90
G05
M72
T1
X59400Y-28450
X60150Y-35550
X60200Y-30950
X60603Y-37389
X61750Y-30402
X61750Y-34921
X62450Y-28100
X63550Y-32126
X63900Y-38500
X64213Y-27795
X64850Y-35600
X65394Y-31929
X65394Y-32992
X65591Y-31339
X65669Y-29409
X65866Y-31102
X66378Y-29055
X67598Y-35118
X68307Y-27283
X70079Y-33465
X72323Y-32953
X72953Y-30669
X72953Y-31417
X73189Y-33780
T2
X71855Y-30084
X71855Y-32005
T3
X52837Y-40906
X54213Y-40906
T4
X52250Y-21250
X52250Y-22250
X53250Y-21250
X53250Y-22250
X54250Y-21250
X54250Y-22250
X55250Y-21250
X55250Y-22250
X56250Y-21250
X56250Y-22250
X57250Y-21250
X57250Y-22250
X58250Y-21250
X58250Y-22250
X59250Y-21250
X59250Y-22250
X60228Y-41181
X60250Y-21250
X60250Y-22250
X61228Y-41181
X61250Y-21250
X61250Y-22250
X62228Y-41181
X62250Y-21250
X62250Y-22250
X62469Y-23819
X63228Y-41181
X63250Y-21250
X63250Y-22250
X63469Y-23819
X64228Y-41181
X64250Y-21250
X64250Y-22250
X64469Y-23819
X65250Y-21250
X65250Y-22250
X66250Y-21250
X66250Y-22250
X67250Y-21250
X67250Y-22250
X68250Y-21250
X68250Y-22250
X68400Y-38150
X68400Y-39150
X68400Y-40150
X69250Y-21250
X69250Y-22250
X69400Y-38150
X69400Y-39150
X69400Y-40150
X70250Y-21250
X70250Y-22250
X71250Y-21250
X71250Y-22250
T5
X52750Y-27950
X52750Y-28950
X52750Y-29950
X52750Y-30950
X52750Y-31950
X52750Y-32950
X52750Y-33950
X52750Y-34950
X53750Y-27950
X53750Y-28950
X53750Y-29950
X53750Y-30950
X53750Y-31950
X53750Y-32950
X53750Y-33950
X53750Y-34950
X56850Y-27950
X56850Y-28950
X56850Y-29950
X56850Y-30950
X56850Y-31950
X56850Y-32950
X56850Y-33950
X56850Y-34950
X57850Y-27950
X57850Y-28950
X57850Y-29950
X57850Y-30950
X57850Y-31950
X57850Y-32950
X57850Y-33950
X57850Y-34950
T0
M30
