G04 #@! TF.FileFunction,Legend,Top*
%FSLAX46Y46*%
G04 Gerber Fmt 4.6, Leading zero omitted, Abs format (unit mm)*
G04 Created by KiCad (PCBNEW 4.0.7-e2-6376~58~ubuntu16.04.1) date Sun May 27 17:23:26 2018*
%MOMM*%
%LPD*%
G01*
G04 APERTURE LIST*
%ADD10C,0.100000*%
%ADD11C,0.300000*%
%ADD12C,0.120000*%
%ADD13C,0.150000*%
%ADD14C,0.066040*%
%ADD15C,0.127000*%
%ADD16C,0.063500*%
%ADD17C,0.101600*%
G04 APERTURE END LIST*
D10*
D11*
X134207144Y-98178571D02*
X133492858Y-98178571D01*
X133421429Y-98892857D01*
X133492858Y-98821429D01*
X133635715Y-98750000D01*
X133992858Y-98750000D01*
X134135715Y-98821429D01*
X134207144Y-98892857D01*
X134278572Y-99035714D01*
X134278572Y-99392857D01*
X134207144Y-99535714D01*
X134135715Y-99607143D01*
X133992858Y-99678571D01*
X133635715Y-99678571D01*
X133492858Y-99607143D01*
X133421429Y-99535714D01*
X134707143Y-98178571D02*
X135207143Y-99678571D01*
X135707143Y-98178571D01*
X137350000Y-99678571D02*
X137350000Y-98678571D01*
X137350000Y-98178571D02*
X137278571Y-98250000D01*
X137350000Y-98321429D01*
X137421428Y-98250000D01*
X137350000Y-98178571D01*
X137350000Y-98321429D01*
X138064286Y-98678571D02*
X138064286Y-99678571D01*
X138064286Y-98821429D02*
X138135714Y-98750000D01*
X138278572Y-98678571D01*
X138492857Y-98678571D01*
X138635714Y-98750000D01*
X138707143Y-98892857D01*
X138707143Y-99678571D01*
X139928572Y-106007143D02*
X141071429Y-106007143D01*
X130928572Y-106007143D02*
X132071429Y-106007143D01*
X131500000Y-106578571D02*
X131500000Y-105435714D01*
X163492857Y-101150000D02*
X163350000Y-101078571D01*
X163135714Y-101078571D01*
X162921429Y-101150000D01*
X162778571Y-101292857D01*
X162707143Y-101435714D01*
X162635714Y-101721429D01*
X162635714Y-101935714D01*
X162707143Y-102221429D01*
X162778571Y-102364286D01*
X162921429Y-102507143D01*
X163135714Y-102578571D01*
X163278571Y-102578571D01*
X163492857Y-102507143D01*
X163564286Y-102435714D01*
X163564286Y-101935714D01*
X163278571Y-101935714D01*
X160171429Y-101078571D02*
X161028572Y-101078571D01*
X160600001Y-102578571D02*
X160600001Y-101078571D01*
X158464286Y-102578571D02*
X157964286Y-101864286D01*
X157607143Y-102578571D02*
X157607143Y-101078571D01*
X158178571Y-101078571D01*
X158321429Y-101150000D01*
X158392857Y-101221429D01*
X158464286Y-101364286D01*
X158464286Y-101578571D01*
X158392857Y-101721429D01*
X158321429Y-101792857D01*
X158178571Y-101864286D01*
X157607143Y-101864286D01*
X155864286Y-102435714D02*
X155792857Y-102507143D01*
X155578571Y-102578571D01*
X155435714Y-102578571D01*
X155221429Y-102507143D01*
X155078571Y-102364286D01*
X155007143Y-102221429D01*
X154935714Y-101935714D01*
X154935714Y-101721429D01*
X155007143Y-101435714D01*
X155078571Y-101292857D01*
X155221429Y-101150000D01*
X155435714Y-101078571D01*
X155578571Y-101078571D01*
X155792857Y-101150000D01*
X155864286Y-101221429D01*
X152707143Y-102578571D02*
X152707143Y-101078571D01*
X153064286Y-101078571D01*
X153278571Y-101150000D01*
X153421429Y-101292857D01*
X153492857Y-101435714D01*
X153564286Y-101721429D01*
X153564286Y-101935714D01*
X153492857Y-102221429D01*
X153421429Y-102364286D01*
X153278571Y-102507143D01*
X153064286Y-102578571D01*
X152707143Y-102578571D01*
X126721429Y-57378571D02*
X126721429Y-57950000D01*
X125721429Y-57592857D02*
X127007143Y-57592857D01*
X127150000Y-57664285D01*
X127221429Y-57807143D01*
X127221429Y-57950000D01*
X125721429Y-58450000D02*
X126721429Y-58450000D01*
X127221429Y-58450000D02*
X127150000Y-58378571D01*
X127078571Y-58450000D01*
X127150000Y-58521428D01*
X127221429Y-58450000D01*
X127078571Y-58450000D01*
X125721429Y-59164286D02*
X126721429Y-59164286D01*
X126435714Y-59164286D02*
X126578571Y-59235714D01*
X126650000Y-59307143D01*
X126721429Y-59450000D01*
X126721429Y-59592857D01*
X125721429Y-60092857D02*
X126721429Y-60092857D01*
X126578571Y-60092857D02*
X126650000Y-60164285D01*
X126721429Y-60307143D01*
X126721429Y-60521428D01*
X126650000Y-60664285D01*
X126507143Y-60735714D01*
X125721429Y-60735714D01*
X126507143Y-60735714D02*
X126650000Y-60807143D01*
X126721429Y-60950000D01*
X126721429Y-61164285D01*
X126650000Y-61307143D01*
X126507143Y-61378571D01*
X125721429Y-61378571D01*
X126721429Y-61950000D02*
X125721429Y-62235714D01*
X126435714Y-62521428D01*
X125721429Y-62807143D01*
X126721429Y-63092857D01*
X125721429Y-64307143D02*
X126507143Y-64307143D01*
X126650000Y-64235714D01*
X126721429Y-64092857D01*
X126721429Y-63807143D01*
X126650000Y-63664286D01*
X125792857Y-64307143D02*
X125721429Y-64164286D01*
X125721429Y-63807143D01*
X125792857Y-63664286D01*
X125935714Y-63592857D01*
X126078571Y-63592857D01*
X126221429Y-63664286D01*
X126292857Y-63807143D01*
X126292857Y-64164286D01*
X126364286Y-64307143D01*
X125721429Y-65021429D02*
X126721429Y-65021429D01*
X126435714Y-65021429D02*
X126578571Y-65092857D01*
X126650000Y-65164286D01*
X126721429Y-65307143D01*
X126721429Y-65450000D01*
X125792857Y-66521428D02*
X125721429Y-66378571D01*
X125721429Y-66092857D01*
X125792857Y-65950000D01*
X125935714Y-65878571D01*
X126507143Y-65878571D01*
X126650000Y-65950000D01*
X126721429Y-66092857D01*
X126721429Y-66378571D01*
X126650000Y-66521428D01*
X126507143Y-66592857D01*
X126364286Y-66592857D01*
X126221429Y-65878571D01*
X125864286Y-67235714D02*
X125792857Y-67307142D01*
X125721429Y-67235714D01*
X125792857Y-67164285D01*
X125864286Y-67235714D01*
X125721429Y-67235714D01*
X126721429Y-67950000D02*
X125721429Y-67950000D01*
X126578571Y-67950000D02*
X126650000Y-68021428D01*
X126721429Y-68164286D01*
X126721429Y-68378571D01*
X126650000Y-68521428D01*
X126507143Y-68592857D01*
X125721429Y-68592857D01*
X126721429Y-69164286D02*
X126721429Y-69950000D01*
X125721429Y-69164286D01*
X125721429Y-69950000D01*
X155071429Y-99378571D02*
X155071429Y-98378571D01*
X155071429Y-98664286D02*
X155142857Y-98521429D01*
X155214286Y-98450000D01*
X155357143Y-98378571D01*
X155500000Y-98378571D01*
X156571428Y-99307143D02*
X156428571Y-99378571D01*
X156142857Y-99378571D01*
X156000000Y-99307143D01*
X155928571Y-99164286D01*
X155928571Y-98592857D01*
X156000000Y-98450000D01*
X156142857Y-98378571D01*
X156428571Y-98378571D01*
X156571428Y-98450000D01*
X156642857Y-98592857D01*
X156642857Y-98735714D01*
X155928571Y-98878571D01*
X157214285Y-99307143D02*
X157357142Y-99378571D01*
X157642857Y-99378571D01*
X157785714Y-99307143D01*
X157857142Y-99164286D01*
X157857142Y-99092857D01*
X157785714Y-98950000D01*
X157642857Y-98878571D01*
X157428571Y-98878571D01*
X157285714Y-98807143D01*
X157214285Y-98664286D01*
X157214285Y-98592857D01*
X157285714Y-98450000D01*
X157428571Y-98378571D01*
X157642857Y-98378571D01*
X157785714Y-98450000D01*
X159071428Y-99307143D02*
X158928571Y-99378571D01*
X158642857Y-99378571D01*
X158500000Y-99307143D01*
X158428571Y-99164286D01*
X158428571Y-98592857D01*
X158500000Y-98450000D01*
X158642857Y-98378571D01*
X158928571Y-98378571D01*
X159071428Y-98450000D01*
X159142857Y-98592857D01*
X159142857Y-98735714D01*
X158428571Y-98878571D01*
X159571428Y-98378571D02*
X160142857Y-98378571D01*
X159785714Y-97878571D02*
X159785714Y-99164286D01*
X159857142Y-99307143D01*
X160000000Y-99378571D01*
X160142857Y-99378571D01*
X171228572Y-96178571D02*
X171371429Y-96178571D01*
X171514286Y-96250000D01*
X171585715Y-96321429D01*
X171657144Y-96464286D01*
X171728572Y-96750000D01*
X171728572Y-97107143D01*
X171657144Y-97392857D01*
X171585715Y-97535714D01*
X171514286Y-97607143D01*
X171371429Y-97678571D01*
X171228572Y-97678571D01*
X171085715Y-97607143D01*
X171014286Y-97535714D01*
X170942858Y-97392857D01*
X170871429Y-97107143D01*
X170871429Y-96750000D01*
X170942858Y-96464286D01*
X171014286Y-96321429D01*
X171085715Y-96250000D01*
X171228572Y-96178571D01*
X171728572Y-102678571D02*
X170871429Y-102678571D01*
X171300001Y-102678571D02*
X171300001Y-101178571D01*
X171157144Y-101392857D01*
X171014286Y-101535714D01*
X170871429Y-101607143D01*
X172457144Y-104992857D02*
X172671430Y-105064286D01*
X172742858Y-105135714D01*
X172814287Y-105278571D01*
X172814287Y-105492857D01*
X172742858Y-105635714D01*
X172671430Y-105707143D01*
X172528572Y-105778571D01*
X171957144Y-105778571D01*
X171957144Y-104278571D01*
X172457144Y-104278571D01*
X172600001Y-104350000D01*
X172671430Y-104421429D01*
X172742858Y-104564286D01*
X172742858Y-104707143D01*
X172671430Y-104850000D01*
X172600001Y-104921429D01*
X172457144Y-104992857D01*
X171957144Y-104992857D01*
X174242858Y-105778571D02*
X173385715Y-105778571D01*
X173814287Y-105778571D02*
X173814287Y-104278571D01*
X173671430Y-104492857D01*
X173528572Y-104635714D01*
X173385715Y-104707143D01*
X176528572Y-104992857D02*
X176742858Y-105064286D01*
X176814286Y-105135714D01*
X176885715Y-105278571D01*
X176885715Y-105492857D01*
X176814286Y-105635714D01*
X176742858Y-105707143D01*
X176600000Y-105778571D01*
X176028572Y-105778571D01*
X176028572Y-104278571D01*
X176528572Y-104278571D01*
X176671429Y-104350000D01*
X176742858Y-104421429D01*
X176814286Y-104564286D01*
X176814286Y-104707143D01*
X176742858Y-104850000D01*
X176671429Y-104921429D01*
X176528572Y-104992857D01*
X176028572Y-104992857D01*
X177814286Y-104278571D02*
X177957143Y-104278571D01*
X178100000Y-104350000D01*
X178171429Y-104421429D01*
X178242858Y-104564286D01*
X178314286Y-104850000D01*
X178314286Y-105207143D01*
X178242858Y-105492857D01*
X178171429Y-105635714D01*
X178100000Y-105707143D01*
X177957143Y-105778571D01*
X177814286Y-105778571D01*
X177671429Y-105707143D01*
X177600000Y-105635714D01*
X177528572Y-105492857D01*
X177457143Y-105207143D01*
X177457143Y-104850000D01*
X177528572Y-104564286D01*
X177600000Y-104421429D01*
X177671429Y-104350000D01*
X177814286Y-104278571D01*
X125521429Y-90571429D02*
X125521429Y-89857143D01*
X127021429Y-89857143D01*
X126307143Y-91071429D02*
X126307143Y-91571429D01*
X125521429Y-91785715D02*
X125521429Y-91071429D01*
X127021429Y-91071429D01*
X127021429Y-91785715D01*
X125521429Y-92428572D02*
X127021429Y-92428572D01*
X127021429Y-92785715D01*
X126950000Y-93000000D01*
X126807143Y-93142858D01*
X126664286Y-93214286D01*
X126378571Y-93285715D01*
X126164286Y-93285715D01*
X125878571Y-93214286D01*
X125735714Y-93142858D01*
X125592857Y-93000000D01*
X125521429Y-92785715D01*
X125521429Y-92428572D01*
X125521429Y-95071429D02*
X127021429Y-95071429D01*
X125950000Y-95571429D01*
X127021429Y-96071429D01*
X125521429Y-96071429D01*
X125521429Y-97428572D02*
X126307143Y-97428572D01*
X126450000Y-97357143D01*
X126521429Y-97214286D01*
X126521429Y-96928572D01*
X126450000Y-96785715D01*
X125592857Y-97428572D02*
X125521429Y-97285715D01*
X125521429Y-96928572D01*
X125592857Y-96785715D01*
X125735714Y-96714286D01*
X125878571Y-96714286D01*
X126021429Y-96785715D01*
X126092857Y-96928572D01*
X126092857Y-97285715D01*
X126164286Y-97428572D01*
X126521429Y-97928572D02*
X126521429Y-98500001D01*
X127021429Y-98142858D02*
X125735714Y-98142858D01*
X125592857Y-98214286D01*
X125521429Y-98357144D01*
X125521429Y-98500001D01*
X125521429Y-99000001D02*
X126521429Y-99000001D01*
X126235714Y-99000001D02*
X126378571Y-99071429D01*
X126450000Y-99142858D01*
X126521429Y-99285715D01*
X126521429Y-99428572D01*
X125521429Y-99928572D02*
X126521429Y-99928572D01*
X127021429Y-99928572D02*
X126950000Y-99857143D01*
X126878571Y-99928572D01*
X126950000Y-100000000D01*
X127021429Y-99928572D01*
X126878571Y-99928572D01*
X125521429Y-100500001D02*
X126521429Y-101285715D01*
X126521429Y-100500001D02*
X125521429Y-101285715D01*
X157320001Y-63985714D02*
X157248572Y-64057143D01*
X157034286Y-64128571D01*
X156891429Y-64128571D01*
X156677144Y-64057143D01*
X156534286Y-63914286D01*
X156462858Y-63771429D01*
X156391429Y-63485714D01*
X156391429Y-63271429D01*
X156462858Y-62985714D01*
X156534286Y-62842857D01*
X156677144Y-62700000D01*
X156891429Y-62628571D01*
X157034286Y-62628571D01*
X157248572Y-62700000D01*
X157320001Y-62771429D01*
X157962858Y-63342857D02*
X158462858Y-63342857D01*
X158677144Y-64128571D02*
X157962858Y-64128571D01*
X157962858Y-62628571D01*
X158677144Y-62628571D01*
X159605715Y-62628571D02*
X159748572Y-62628571D01*
X159891429Y-62700000D01*
X159962858Y-62771429D01*
X160034287Y-62914286D01*
X160105715Y-63200000D01*
X160105715Y-63557143D01*
X160034287Y-63842857D01*
X159962858Y-63985714D01*
X159891429Y-64057143D01*
X159748572Y-64128571D01*
X159605715Y-64128571D01*
X159462858Y-64057143D01*
X159391429Y-63985714D01*
X159320001Y-63842857D01*
X159248572Y-63557143D01*
X159248572Y-63200000D01*
X159320001Y-62914286D01*
X159391429Y-62771429D01*
X159462858Y-62700000D01*
X159605715Y-62628571D01*
X160748572Y-63557143D02*
X161891429Y-63557143D01*
X163462858Y-63985714D02*
X163391429Y-64057143D01*
X163177143Y-64128571D01*
X163034286Y-64128571D01*
X162820001Y-64057143D01*
X162677143Y-63914286D01*
X162605715Y-63771429D01*
X162534286Y-63485714D01*
X162534286Y-63271429D01*
X162605715Y-62985714D01*
X162677143Y-62842857D01*
X162820001Y-62700000D01*
X163034286Y-62628571D01*
X163177143Y-62628571D01*
X163391429Y-62700000D01*
X163462858Y-62771429D01*
X164105715Y-63342857D02*
X164605715Y-63342857D01*
X164820001Y-64128571D02*
X164105715Y-64128571D01*
X164105715Y-62628571D01*
X164820001Y-62628571D01*
X166248572Y-64128571D02*
X165391429Y-64128571D01*
X165820001Y-64128571D02*
X165820001Y-62628571D01*
X165677144Y-62842857D01*
X165534286Y-62985714D01*
X165391429Y-63057143D01*
X142107143Y-96178571D02*
X142107143Y-94678571D01*
X142107143Y-95392857D02*
X142964286Y-95392857D01*
X142964286Y-96178571D02*
X142964286Y-94678571D01*
X143678572Y-94678571D02*
X143678572Y-95892857D01*
X143750000Y-96035714D01*
X143821429Y-96107143D01*
X143964286Y-96178571D01*
X144250000Y-96178571D01*
X144392858Y-96107143D01*
X144464286Y-96035714D01*
X144535715Y-95892857D01*
X144535715Y-94678571D01*
X145750001Y-95392857D02*
X145964287Y-95464286D01*
X146035715Y-95535714D01*
X146107144Y-95678571D01*
X146107144Y-95892857D01*
X146035715Y-96035714D01*
X145964287Y-96107143D01*
X145821429Y-96178571D01*
X145250001Y-96178571D01*
X145250001Y-94678571D01*
X145750001Y-94678571D01*
X145892858Y-94750000D01*
X145964287Y-94821429D01*
X146035715Y-94964286D01*
X146035715Y-95107143D01*
X145964287Y-95250000D01*
X145892858Y-95321429D01*
X145750001Y-95392857D01*
X145250001Y-95392857D01*
X146607144Y-94678571D02*
X147607144Y-94678571D01*
X146964287Y-96178571D01*
X148892858Y-94678571D02*
X148178572Y-94678571D01*
X148107143Y-95392857D01*
X148178572Y-95321429D01*
X148321429Y-95250000D01*
X148678572Y-95250000D01*
X148821429Y-95321429D01*
X148892858Y-95392857D01*
X148964286Y-95535714D01*
X148964286Y-95892857D01*
X148892858Y-96035714D01*
X148821429Y-96107143D01*
X148678572Y-96178571D01*
X148321429Y-96178571D01*
X148178572Y-96107143D01*
X148107143Y-96035714D01*
X131607143Y-96178571D02*
X131607143Y-94678571D01*
X131607143Y-95392857D02*
X132464286Y-95392857D01*
X132464286Y-96178571D02*
X132464286Y-94678571D01*
X133178572Y-94678571D02*
X133178572Y-95892857D01*
X133250000Y-96035714D01*
X133321429Y-96107143D01*
X133464286Y-96178571D01*
X133750000Y-96178571D01*
X133892858Y-96107143D01*
X133964286Y-96035714D01*
X134035715Y-95892857D01*
X134035715Y-94678571D01*
X135250001Y-95392857D02*
X135464287Y-95464286D01*
X135535715Y-95535714D01*
X135607144Y-95678571D01*
X135607144Y-95892857D01*
X135535715Y-96035714D01*
X135464287Y-96107143D01*
X135321429Y-96178571D01*
X134750001Y-96178571D01*
X134750001Y-94678571D01*
X135250001Y-94678571D01*
X135392858Y-94750000D01*
X135464287Y-94821429D01*
X135535715Y-94964286D01*
X135535715Y-95107143D01*
X135464287Y-95250000D01*
X135392858Y-95321429D01*
X135250001Y-95392857D01*
X134750001Y-95392857D01*
X136535715Y-94678571D02*
X136678572Y-94678571D01*
X136821429Y-94750000D01*
X136892858Y-94821429D01*
X136964287Y-94964286D01*
X137035715Y-95250000D01*
X137035715Y-95607143D01*
X136964287Y-95892857D01*
X136892858Y-96035714D01*
X136821429Y-96107143D01*
X136678572Y-96178571D01*
X136535715Y-96178571D01*
X136392858Y-96107143D01*
X136321429Y-96035714D01*
X136250001Y-95892857D01*
X136178572Y-95607143D01*
X136178572Y-95250000D01*
X136250001Y-94964286D01*
X136321429Y-94821429D01*
X136392858Y-94750000D01*
X136535715Y-94678571D01*
X137892858Y-95321429D02*
X137750000Y-95250000D01*
X137678572Y-95178571D01*
X137607143Y-95035714D01*
X137607143Y-94964286D01*
X137678572Y-94821429D01*
X137750000Y-94750000D01*
X137892858Y-94678571D01*
X138178572Y-94678571D01*
X138321429Y-94750000D01*
X138392858Y-94821429D01*
X138464286Y-94964286D01*
X138464286Y-95035714D01*
X138392858Y-95178571D01*
X138321429Y-95250000D01*
X138178572Y-95321429D01*
X137892858Y-95321429D01*
X137750000Y-95392857D01*
X137678572Y-95464286D01*
X137607143Y-95607143D01*
X137607143Y-95892857D01*
X137678572Y-96035714D01*
X137750000Y-96107143D01*
X137892858Y-96178571D01*
X138178572Y-96178571D01*
X138321429Y-96107143D01*
X138392858Y-96035714D01*
X138464286Y-95892857D01*
X138464286Y-95607143D01*
X138392858Y-95464286D01*
X138321429Y-95392857D01*
X138178572Y-95321429D01*
X132114288Y-60278571D02*
X131257145Y-60278571D01*
X131685717Y-60278571D02*
X131685717Y-58778571D01*
X131542860Y-58992857D01*
X131400002Y-59135714D01*
X131257145Y-59207143D01*
X132757145Y-60135714D02*
X132828573Y-60207143D01*
X132757145Y-60278571D01*
X132685716Y-60207143D01*
X132757145Y-60135714D01*
X132757145Y-60278571D01*
X133400002Y-58921429D02*
X133471431Y-58850000D01*
X133614288Y-58778571D01*
X133971431Y-58778571D01*
X134114288Y-58850000D01*
X134185717Y-58921429D01*
X134257145Y-59064286D01*
X134257145Y-59207143D01*
X134185717Y-59421429D01*
X133328574Y-60278571D01*
X134257145Y-60278571D01*
X135971430Y-58921429D02*
X136042859Y-58850000D01*
X136185716Y-58778571D01*
X136542859Y-58778571D01*
X136685716Y-58850000D01*
X136757145Y-58921429D01*
X136828573Y-59064286D01*
X136828573Y-59207143D01*
X136757145Y-59421429D01*
X135900002Y-60278571D01*
X136828573Y-60278571D01*
X137757144Y-58778571D02*
X137900001Y-58778571D01*
X138042858Y-58850000D01*
X138114287Y-58921429D01*
X138185716Y-59064286D01*
X138257144Y-59350000D01*
X138257144Y-59707143D01*
X138185716Y-59992857D01*
X138114287Y-60135714D01*
X138042858Y-60207143D01*
X137900001Y-60278571D01*
X137757144Y-60278571D01*
X137614287Y-60207143D01*
X137542858Y-60135714D01*
X137471430Y-59992857D01*
X137400001Y-59707143D01*
X137400001Y-59350000D01*
X137471430Y-59064286D01*
X137542858Y-58921429D01*
X137614287Y-58850000D01*
X137757144Y-58778571D01*
X139685715Y-60278571D02*
X138828572Y-60278571D01*
X139257144Y-60278571D02*
X139257144Y-58778571D01*
X139114287Y-58992857D01*
X138971429Y-59135714D01*
X138828572Y-59207143D01*
X140542858Y-59421429D02*
X140400000Y-59350000D01*
X140328572Y-59278571D01*
X140257143Y-59135714D01*
X140257143Y-59064286D01*
X140328572Y-58921429D01*
X140400000Y-58850000D01*
X140542858Y-58778571D01*
X140828572Y-58778571D01*
X140971429Y-58850000D01*
X141042858Y-58921429D01*
X141114286Y-59064286D01*
X141114286Y-59135714D01*
X141042858Y-59278571D01*
X140971429Y-59350000D01*
X140828572Y-59421429D01*
X140542858Y-59421429D01*
X140400000Y-59492857D01*
X140328572Y-59564286D01*
X140257143Y-59707143D01*
X140257143Y-59992857D01*
X140328572Y-60135714D01*
X140400000Y-60207143D01*
X140542858Y-60278571D01*
X140828572Y-60278571D01*
X140971429Y-60207143D01*
X141042858Y-60135714D01*
X141114286Y-59992857D01*
X141114286Y-59707143D01*
X141042858Y-59564286D01*
X140971429Y-59492857D01*
X140828572Y-59421429D01*
X141757143Y-59707143D02*
X142900000Y-59707143D01*
X143900000Y-58778571D02*
X144042857Y-58778571D01*
X144185714Y-58850000D01*
X144257143Y-58921429D01*
X144328572Y-59064286D01*
X144400000Y-59350000D01*
X144400000Y-59707143D01*
X144328572Y-59992857D01*
X144257143Y-60135714D01*
X144185714Y-60207143D01*
X144042857Y-60278571D01*
X143900000Y-60278571D01*
X143757143Y-60207143D01*
X143685714Y-60135714D01*
X143614286Y-59992857D01*
X143542857Y-59707143D01*
X143542857Y-59350000D01*
X143614286Y-59064286D01*
X143685714Y-58921429D01*
X143757143Y-58850000D01*
X143900000Y-58778571D01*
X145757143Y-58778571D02*
X145042857Y-58778571D01*
X144971428Y-59492857D01*
X145042857Y-59421429D01*
X145185714Y-59350000D01*
X145542857Y-59350000D01*
X145685714Y-59421429D01*
X145757143Y-59492857D01*
X145828571Y-59635714D01*
X145828571Y-59992857D01*
X145757143Y-60135714D01*
X145685714Y-60207143D01*
X145542857Y-60278571D01*
X145185714Y-60278571D01*
X145042857Y-60207143D01*
X144971428Y-60135714D01*
X146471428Y-59707143D02*
X147614285Y-59707143D01*
X148257142Y-58921429D02*
X148328571Y-58850000D01*
X148471428Y-58778571D01*
X148828571Y-58778571D01*
X148971428Y-58850000D01*
X149042857Y-58921429D01*
X149114285Y-59064286D01*
X149114285Y-59207143D01*
X149042857Y-59421429D01*
X148185714Y-60278571D01*
X149114285Y-60278571D01*
X149614285Y-58778571D02*
X150614285Y-58778571D01*
X149971428Y-60278571D01*
D12*
X182305000Y-57845000D02*
X182305000Y-52645000D01*
X133985000Y-57845000D02*
X182305000Y-57845000D01*
X131385000Y-52645000D02*
X182305000Y-52645000D01*
X133985000Y-57845000D02*
X133985000Y-55245000D01*
X133985000Y-55245000D02*
X131385000Y-55245000D01*
X131385000Y-55245000D02*
X131385000Y-52645000D01*
X132715000Y-57845000D02*
X131385000Y-57845000D01*
X131385000Y-57845000D02*
X131385000Y-56515000D01*
X130455000Y-94103000D02*
X130455000Y-65663000D01*
X130455000Y-65663000D02*
X140055000Y-65663000D01*
X140055000Y-65663000D02*
X140055000Y-94103000D01*
X140055000Y-94103000D02*
X130455000Y-94103000D01*
X181421000Y-95058000D02*
X180021000Y-95058000D01*
X180021000Y-95058000D02*
X180021000Y-97858000D01*
X181421000Y-95058000D02*
X181421000Y-97858000D01*
X184062600Y-95058000D02*
X182662600Y-95058000D01*
X182662600Y-95058000D02*
X182662600Y-97858000D01*
X184062600Y-95058000D02*
X184062600Y-97858000D01*
X140869000Y-94103000D02*
X140869000Y-65663000D01*
X140869000Y-65663000D02*
X150469000Y-65663000D01*
X150469000Y-65663000D02*
X150469000Y-94103000D01*
X150469000Y-94103000D02*
X140869000Y-94103000D01*
X177606000Y-95571000D02*
X172406000Y-95571000D01*
X177606000Y-100711000D02*
X177606000Y-95571000D01*
X172406000Y-103311000D02*
X172406000Y-95571000D01*
X177606000Y-100711000D02*
X175006000Y-100711000D01*
X175006000Y-100711000D02*
X175006000Y-103311000D01*
X175006000Y-103311000D02*
X172406000Y-103311000D01*
X177606000Y-101981000D02*
X177606000Y-103311000D01*
X177606000Y-103311000D02*
X176276000Y-103311000D01*
D13*
X159832000Y-70845000D02*
X155382000Y-70845000D01*
X161357000Y-77745000D02*
X155382000Y-77745000D01*
X159578000Y-82275000D02*
X155128000Y-82275000D01*
X161103000Y-89175000D02*
X155128000Y-89175000D01*
D12*
X179986700Y-82052700D02*
X179986700Y-75652700D01*
X185036700Y-82052700D02*
X185036700Y-75652700D01*
X185036700Y-82052700D02*
G75*
G02X179986700Y-82052700I-2525000J0D01*
G01*
X185036700Y-75652700D02*
G75*
G03X179986700Y-75652700I-2525000J0D01*
G01*
D13*
X185975000Y-64881200D02*
X185975000Y-64831200D01*
X181825000Y-64881200D02*
X181825000Y-64736200D01*
X181825000Y-59731200D02*
X181825000Y-59876200D01*
X185975000Y-59731200D02*
X185975000Y-59876200D01*
X185975000Y-64881200D02*
X181825000Y-64881200D01*
X185975000Y-59731200D02*
X181825000Y-59731200D01*
X185975000Y-64831200D02*
X187375000Y-64831200D01*
D12*
X131510000Y-62484000D02*
G75*
G03X131510000Y-62484000I-700000J0D01*
G01*
X187390000Y-96012000D02*
G75*
G03X187390000Y-96012000I-700000J0D01*
G01*
X143961000Y-61919000D02*
X146361000Y-61919000D01*
X146361000Y-61919000D02*
X146361000Y-64319000D01*
X146361000Y-64319000D02*
X143961000Y-64319000D01*
X143961000Y-64319000D02*
X143961000Y-61919000D01*
X182442000Y-84652000D02*
X184842000Y-84652000D01*
X184842000Y-84652000D02*
X184842000Y-87052000D01*
X184842000Y-87052000D02*
X182442000Y-87052000D01*
X182442000Y-87052000D02*
X182442000Y-84652000D01*
X153900000Y-78800000D02*
X156300000Y-78800000D01*
X156300000Y-78800000D02*
X156300000Y-81200000D01*
X156300000Y-81200000D02*
X153900000Y-81200000D01*
X153900000Y-81200000D02*
X153900000Y-78800000D01*
X128400000Y-97300000D02*
X130800000Y-97300000D01*
X130800000Y-97300000D02*
X130800000Y-99700000D01*
X130800000Y-99700000D02*
X128400000Y-99700000D01*
X128400000Y-99700000D02*
X128400000Y-97300000D01*
X157340000Y-59170000D02*
X157340000Y-61830000D01*
X162480000Y-59170000D02*
X157340000Y-59170000D01*
X162480000Y-61830000D02*
X157340000Y-61830000D01*
X162480000Y-59170000D02*
X162480000Y-61830000D01*
X163750000Y-59170000D02*
X165080000Y-59170000D01*
X165080000Y-59170000D02*
X165080000Y-60500000D01*
D13*
X175515000Y-83205000D02*
X175515000Y-82205000D01*
X165165000Y-83205000D02*
X165165000Y-82130000D01*
X165165000Y-72855000D02*
X165165000Y-73930000D01*
X175515000Y-72855000D02*
X175515000Y-73930000D01*
X175515000Y-83205000D02*
X174440000Y-83205000D01*
X175515000Y-72855000D02*
X174440000Y-72855000D01*
X165165000Y-72855000D02*
X166240000Y-72855000D01*
X165165000Y-83205000D02*
X166240000Y-83205000D01*
X175515000Y-82205000D02*
X176540000Y-82205000D01*
D12*
X164400000Y-92300000D02*
X165100000Y-92300000D01*
X165100000Y-93500000D02*
X164400000Y-93500000D01*
X185980000Y-80890000D02*
X185980000Y-80190000D01*
X187180000Y-80190000D02*
X187180000Y-80890000D01*
X187180000Y-76820000D02*
X187180000Y-77520000D01*
X185980000Y-77520000D02*
X185980000Y-76820000D01*
X163410000Y-81210000D02*
X163410000Y-81910000D01*
X162210000Y-81910000D02*
X162210000Y-81210000D01*
X166400000Y-71090000D02*
X165700000Y-71090000D01*
X165700000Y-69890000D02*
X166400000Y-69890000D01*
X174200000Y-84900000D02*
X174900000Y-84900000D01*
X174900000Y-86100000D02*
X174200000Y-86100000D01*
X174600000Y-71100000D02*
X173900000Y-71100000D01*
X173900000Y-69900000D02*
X174600000Y-69900000D01*
X180100000Y-65900000D02*
X180800000Y-65900000D01*
X180800000Y-67100000D02*
X180100000Y-67100000D01*
X181375600Y-90512000D02*
X181375600Y-91512000D01*
X180015600Y-91512000D02*
X180015600Y-90512000D01*
X178850000Y-80980000D02*
X177850000Y-80980000D01*
X177850000Y-79620000D02*
X178850000Y-79620000D01*
X184017200Y-90512000D02*
X184017200Y-91512000D01*
X182657200Y-91512000D02*
X182657200Y-90512000D01*
X175080000Y-90512000D02*
X175080000Y-91512000D01*
X173720000Y-91512000D02*
X173720000Y-90512000D01*
X171920000Y-91512000D02*
X171920000Y-90512000D01*
X173280000Y-90512000D02*
X173280000Y-91512000D01*
X178680000Y-63050000D02*
X178680000Y-64050000D01*
X177320000Y-64050000D02*
X177320000Y-63050000D01*
X176380000Y-63050000D02*
X176380000Y-64050000D01*
X175020000Y-64050000D02*
X175020000Y-63050000D01*
X184350000Y-67180000D02*
X183350000Y-67180000D01*
X183350000Y-65820000D02*
X184350000Y-65820000D01*
X184450000Y-69180000D02*
X183450000Y-69180000D01*
X183450000Y-67820000D02*
X184450000Y-67820000D01*
X158750000Y-97450000D02*
X155850000Y-97450000D01*
X159200000Y-97000000D02*
X158750000Y-97450000D01*
X160000000Y-93750000D02*
X160000000Y-95750000D01*
X158750000Y-92050000D02*
X159200000Y-92500000D01*
X155850000Y-92050000D02*
X158750000Y-92050000D01*
X155400000Y-92500000D02*
X155850000Y-92050000D01*
X154600000Y-95750000D02*
X154600000Y-93750000D01*
X155850000Y-97450000D02*
X155400000Y-97000000D01*
X177400000Y-76400000D02*
X177400000Y-75700000D01*
X178600000Y-75700000D02*
X178600000Y-76400000D01*
X174200000Y-86400000D02*
X174900000Y-86400000D01*
X174900000Y-87600000D02*
X174200000Y-87600000D01*
X165700000Y-68400000D02*
X166400000Y-68400000D01*
X166400000Y-69600000D02*
X165700000Y-69600000D01*
X177400000Y-83200000D02*
X177400000Y-82500000D01*
X178600000Y-82500000D02*
X178600000Y-83200000D01*
D14*
X132523480Y-107329000D02*
X139381480Y-107329000D01*
X139381480Y-107329000D02*
X139381480Y-100471000D01*
X132523480Y-100471000D02*
X139381480Y-100471000D01*
X132523480Y-107329000D02*
X132523480Y-100471000D01*
D15*
X132454900Y-100402420D02*
X139450060Y-100402420D01*
X139450060Y-100402420D02*
X139450060Y-101801960D01*
X139450060Y-101801960D02*
X139450060Y-105998040D01*
X139450060Y-105998040D02*
X139450060Y-107397580D01*
X139450060Y-107397580D02*
X132454900Y-107397580D01*
X132454900Y-107397580D02*
X132454900Y-105998040D01*
X132454900Y-105998040D02*
X132454900Y-101801960D01*
X132454900Y-101801960D02*
X132454900Y-100402420D01*
X132454900Y-101801960D02*
X139450060Y-101801960D01*
X132454900Y-105998040D02*
X139450060Y-105998040D01*
D16*
X135282410Y-103900000D02*
G75*
G03X135282410Y-103900000I-1059670J0D01*
G01*
X138741890Y-103900000D02*
G75*
G03X138741890Y-103900000I-1059670J0D01*
G01*
D12*
X178850000Y-79380000D02*
X177850000Y-79380000D01*
X177850000Y-78020000D02*
X178850000Y-78020000D01*
X164470000Y-105930000D02*
X164470000Y-103270000D01*
X154250000Y-105930000D02*
X164470000Y-105930000D01*
X154250000Y-103270000D02*
X164470000Y-103270000D01*
X154250000Y-105930000D02*
X154250000Y-103270000D01*
X152980000Y-105930000D02*
X151650000Y-105930000D01*
X151650000Y-105930000D02*
X151650000Y-104600000D01*
X141440000Y-98770000D02*
X141440000Y-99700000D01*
X141440000Y-101930000D02*
X141440000Y-101000000D01*
X141440000Y-101930000D02*
X143600000Y-101930000D01*
X141440000Y-98770000D02*
X142900000Y-98770000D01*
X150250000Y-102280000D02*
X149250000Y-102280000D01*
X149250000Y-100920000D02*
X150250000Y-100920000D01*
X150250000Y-100080000D02*
X149250000Y-100080000D01*
X149250000Y-98720000D02*
X150250000Y-98720000D01*
X148110000Y-101400000D02*
X148110000Y-99600000D01*
X144890000Y-99600000D02*
X144890000Y-102050000D01*
D13*
X129837381Y-55578333D02*
X130551667Y-55578333D01*
X130694524Y-55625953D01*
X130789762Y-55721191D01*
X130837381Y-55864048D01*
X130837381Y-55959286D01*
X129932619Y-55149762D02*
X129885000Y-55102143D01*
X129837381Y-55006905D01*
X129837381Y-54768809D01*
X129885000Y-54673571D01*
X129932619Y-54625952D01*
X130027857Y-54578333D01*
X130123095Y-54578333D01*
X130265952Y-54625952D01*
X130837381Y-55197381D01*
X130837381Y-54578333D01*
X128357381Y-80216333D02*
X129071667Y-80216333D01*
X129214524Y-80263953D01*
X129309762Y-80359191D01*
X129357381Y-80502048D01*
X129357381Y-80597286D01*
X129357381Y-79216333D02*
X129357381Y-79787762D01*
X129357381Y-79502048D02*
X128357381Y-79502048D01*
X128500238Y-79597286D01*
X128595476Y-79692524D01*
X128643095Y-79787762D01*
D12*
X138697381Y-88467285D02*
X138697381Y-89038714D01*
X138697381Y-88753000D02*
X137697381Y-88753000D01*
X137840238Y-88848238D01*
X137935476Y-88943476D01*
X137983095Y-89038714D01*
D13*
X180109905Y-100083881D02*
X180109905Y-99083881D01*
X180348000Y-99083881D01*
X180490858Y-99131500D01*
X180586096Y-99226738D01*
X180633715Y-99321976D01*
X180681334Y-99512452D01*
X180681334Y-99655310D01*
X180633715Y-99845786D01*
X180586096Y-99941024D01*
X180490858Y-100036262D01*
X180348000Y-100083881D01*
X180109905Y-100083881D01*
X181633715Y-100083881D02*
X181062286Y-100083881D01*
X181348000Y-100083881D02*
X181348000Y-99083881D01*
X181252762Y-99226738D01*
X181157524Y-99321976D01*
X181062286Y-99369595D01*
X182649905Y-100083881D02*
X182649905Y-99083881D01*
X182888000Y-99083881D01*
X183030858Y-99131500D01*
X183126096Y-99226738D01*
X183173715Y-99321976D01*
X183221334Y-99512452D01*
X183221334Y-99655310D01*
X183173715Y-99845786D01*
X183126096Y-99941024D01*
X183030858Y-100036262D01*
X182888000Y-100083881D01*
X182649905Y-100083881D01*
X183602286Y-99179119D02*
X183649905Y-99131500D01*
X183745143Y-99083881D01*
X183983239Y-99083881D01*
X184078477Y-99131500D01*
X184126096Y-99179119D01*
X184173715Y-99274357D01*
X184173715Y-99369595D01*
X184126096Y-99512452D01*
X183554667Y-100083881D01*
X184173715Y-100083881D01*
X138771381Y-80216333D02*
X139485667Y-80216333D01*
X139628524Y-80263953D01*
X139723762Y-80359191D01*
X139771381Y-80502048D01*
X139771381Y-80597286D01*
X138771381Y-79835381D02*
X138771381Y-79216333D01*
X139152333Y-79549667D01*
X139152333Y-79406809D01*
X139199952Y-79311571D01*
X139247571Y-79263952D01*
X139342810Y-79216333D01*
X139580905Y-79216333D01*
X139676143Y-79263952D01*
X139723762Y-79311571D01*
X139771381Y-79406809D01*
X139771381Y-79692524D01*
X139723762Y-79787762D01*
X139676143Y-79835381D01*
D12*
X149111381Y-88467285D02*
X149111381Y-89038714D01*
X149111381Y-88753000D02*
X148111381Y-88753000D01*
X148254238Y-88848238D01*
X148349476Y-88943476D01*
X148397095Y-89038714D01*
D13*
X178766667Y-101452381D02*
X178766667Y-102166667D01*
X178719047Y-102309524D01*
X178623809Y-102404762D01*
X178480952Y-102452381D01*
X178385714Y-102452381D01*
X179671429Y-101785714D02*
X179671429Y-102452381D01*
X179433333Y-101404762D02*
X179195238Y-102119048D01*
X179814286Y-102119048D01*
X156845095Y-78047381D02*
X156845095Y-78856905D01*
X156892714Y-78952143D01*
X156940333Y-78999762D01*
X157035571Y-79047381D01*
X157226048Y-79047381D01*
X157321286Y-78999762D01*
X157368905Y-78952143D01*
X157416524Y-78856905D01*
X157416524Y-78047381D01*
X157845095Y-78142619D02*
X157892714Y-78095000D01*
X157987952Y-78047381D01*
X158226048Y-78047381D01*
X158321286Y-78095000D01*
X158368905Y-78142619D01*
X158416524Y-78237857D01*
X158416524Y-78333095D01*
X158368905Y-78475952D01*
X157797476Y-79047381D01*
X158416524Y-79047381D01*
X156591095Y-89477381D02*
X156591095Y-90286905D01*
X156638714Y-90382143D01*
X156686333Y-90429762D01*
X156781571Y-90477381D01*
X156972048Y-90477381D01*
X157067286Y-90429762D01*
X157114905Y-90382143D01*
X157162524Y-90286905D01*
X157162524Y-89477381D01*
X157543476Y-89477381D02*
X158162524Y-89477381D01*
X157829190Y-89858333D01*
X157972048Y-89858333D01*
X158067286Y-89905952D01*
X158114905Y-89953571D01*
X158162524Y-90048810D01*
X158162524Y-90286905D01*
X158114905Y-90382143D01*
X158067286Y-90429762D01*
X157972048Y-90477381D01*
X157686333Y-90477381D01*
X157591095Y-90429762D01*
X157543476Y-90382143D01*
X178962890Y-79328891D02*
X179439081Y-79328891D01*
X178439081Y-79662224D02*
X178962890Y-79328891D01*
X178439081Y-78995557D01*
X179439081Y-78138414D02*
X179439081Y-78709843D01*
X179439081Y-78424129D02*
X178439081Y-78424129D01*
X178581938Y-78519367D01*
X178677176Y-78614605D01*
X178724795Y-78709843D01*
X183138095Y-65258581D02*
X183138095Y-66068105D01*
X183185714Y-66163343D01*
X183233333Y-66210962D01*
X183328571Y-66258581D01*
X183519048Y-66258581D01*
X183614286Y-66210962D01*
X183661905Y-66163343D01*
X183709524Y-66068105D01*
X183709524Y-65258581D01*
X184614286Y-65591914D02*
X184614286Y-66258581D01*
X184376190Y-65210962D02*
X184138095Y-65925248D01*
X184757143Y-65925248D01*
X130000477Y-60488381D02*
X130000477Y-61202667D01*
X129952857Y-61345524D01*
X129857619Y-61440762D01*
X129714762Y-61488381D01*
X129619524Y-61488381D01*
X131000477Y-61488381D02*
X130429048Y-61488381D01*
X130714762Y-61488381D02*
X130714762Y-60488381D01*
X130619524Y-60631238D01*
X130524286Y-60726476D01*
X130429048Y-60774095D01*
X131952858Y-61488381D02*
X131381429Y-61488381D01*
X131667143Y-61488381D02*
X131667143Y-60488381D01*
X131571905Y-60631238D01*
X131476667Y-60726476D01*
X131381429Y-60774095D01*
X185880477Y-94016381D02*
X185880477Y-94730667D01*
X185832857Y-94873524D01*
X185737619Y-94968762D01*
X185594762Y-95016381D01*
X185499524Y-95016381D01*
X186880477Y-95016381D02*
X186309048Y-95016381D01*
X186594762Y-95016381D02*
X186594762Y-94016381D01*
X186499524Y-94159238D01*
X186404286Y-94254476D01*
X186309048Y-94302095D01*
X187261429Y-94111619D02*
X187309048Y-94064000D01*
X187404286Y-94016381D01*
X187642382Y-94016381D01*
X187737620Y-94064000D01*
X187785239Y-94111619D01*
X187832858Y-94206857D01*
X187832858Y-94302095D01*
X187785239Y-94444952D01*
X187213810Y-95016381D01*
X187832858Y-95016381D01*
X144351477Y-60573381D02*
X144351477Y-61287667D01*
X144303857Y-61430524D01*
X144208619Y-61525762D01*
X144065762Y-61573381D01*
X143970524Y-61573381D01*
X145351477Y-61573381D02*
X144780048Y-61573381D01*
X145065762Y-61573381D02*
X145065762Y-60573381D01*
X144970524Y-60716238D01*
X144875286Y-60811476D01*
X144780048Y-60859095D01*
X145684810Y-60573381D02*
X146303858Y-60573381D01*
X145970524Y-60954333D01*
X146113382Y-60954333D01*
X146208620Y-61001952D01*
X146256239Y-61049571D01*
X146303858Y-61144810D01*
X146303858Y-61382905D01*
X146256239Y-61478143D01*
X146208620Y-61525762D01*
X146113382Y-61573381D01*
X145827667Y-61573381D01*
X145732429Y-61525762D01*
X145684810Y-61478143D01*
X182832477Y-83306381D02*
X182832477Y-84020667D01*
X182784857Y-84163524D01*
X182689619Y-84258762D01*
X182546762Y-84306381D01*
X182451524Y-84306381D01*
X183832477Y-84306381D02*
X183261048Y-84306381D01*
X183546762Y-84306381D02*
X183546762Y-83306381D01*
X183451524Y-83449238D01*
X183356286Y-83544476D01*
X183261048Y-83592095D01*
X184689620Y-83639714D02*
X184689620Y-84306381D01*
X184451524Y-83258762D02*
X184213429Y-83973048D01*
X184832477Y-83973048D01*
X151056477Y-79442381D02*
X151056477Y-80156667D01*
X151008857Y-80299524D01*
X150913619Y-80394762D01*
X150770762Y-80442381D01*
X150675524Y-80442381D01*
X152056477Y-80442381D02*
X151485048Y-80442381D01*
X151770762Y-80442381D02*
X151770762Y-79442381D01*
X151675524Y-79585238D01*
X151580286Y-79680476D01*
X151485048Y-79728095D01*
X152961239Y-79442381D02*
X152485048Y-79442381D01*
X152437429Y-79918571D01*
X152485048Y-79870952D01*
X152580286Y-79823333D01*
X152818382Y-79823333D01*
X152913620Y-79870952D01*
X152961239Y-79918571D01*
X153008858Y-80013810D01*
X153008858Y-80251905D01*
X152961239Y-80347143D01*
X152913620Y-80394762D01*
X152818382Y-80442381D01*
X152580286Y-80442381D01*
X152485048Y-80394762D01*
X152437429Y-80347143D01*
X128790477Y-95954381D02*
X128790477Y-96668667D01*
X128742857Y-96811524D01*
X128647619Y-96906762D01*
X128504762Y-96954381D01*
X128409524Y-96954381D01*
X129790477Y-96954381D02*
X129219048Y-96954381D01*
X129504762Y-96954381D02*
X129504762Y-95954381D01*
X129409524Y-96097238D01*
X129314286Y-96192476D01*
X129219048Y-96240095D01*
X130647620Y-95954381D02*
X130457143Y-95954381D01*
X130361905Y-96002000D01*
X130314286Y-96049619D01*
X130219048Y-96192476D01*
X130171429Y-96382952D01*
X130171429Y-96763905D01*
X130219048Y-96859143D01*
X130266667Y-96906762D01*
X130361905Y-96954381D01*
X130552382Y-96954381D01*
X130647620Y-96906762D01*
X130695239Y-96859143D01*
X130742858Y-96763905D01*
X130742858Y-96525810D01*
X130695239Y-96430571D01*
X130647620Y-96382952D01*
X130552382Y-96335333D01*
X130361905Y-96335333D01*
X130266667Y-96382952D01*
X130219048Y-96430571D01*
X130171429Y-96525810D01*
X165532381Y-61309523D02*
X166246667Y-61309523D01*
X166389524Y-61357143D01*
X166484762Y-61452381D01*
X166532381Y-61595238D01*
X166532381Y-61690476D01*
X166532381Y-60309523D02*
X166532381Y-60880952D01*
X166532381Y-60595238D02*
X165532381Y-60595238D01*
X165675238Y-60690476D01*
X165770476Y-60785714D01*
X165818095Y-60880952D01*
X165960952Y-59738095D02*
X165913333Y-59833333D01*
X165865714Y-59880952D01*
X165770476Y-59928571D01*
X165722857Y-59928571D01*
X165627619Y-59880952D01*
X165580000Y-59833333D01*
X165532381Y-59738095D01*
X165532381Y-59547618D01*
X165580000Y-59452380D01*
X165627619Y-59404761D01*
X165722857Y-59357142D01*
X165770476Y-59357142D01*
X165865714Y-59404761D01*
X165913333Y-59452380D01*
X165960952Y-59547618D01*
X165960952Y-59738095D01*
X166008571Y-59833333D01*
X166056190Y-59880952D01*
X166151429Y-59928571D01*
X166341905Y-59928571D01*
X166437143Y-59880952D01*
X166484762Y-59833333D01*
X166532381Y-59738095D01*
X166532381Y-59547618D01*
X166484762Y-59452380D01*
X166437143Y-59404761D01*
X166341905Y-59357142D01*
X166151429Y-59357142D01*
X166056190Y-59404761D01*
X166008571Y-59452380D01*
X165960952Y-59547618D01*
X169578095Y-84682381D02*
X169578095Y-85491905D01*
X169625714Y-85587143D01*
X169673333Y-85634762D01*
X169768571Y-85682381D01*
X169959048Y-85682381D01*
X170054286Y-85634762D01*
X170101905Y-85587143D01*
X170149524Y-85491905D01*
X170149524Y-84682381D01*
X171149524Y-85682381D02*
X170578095Y-85682381D01*
X170863809Y-85682381D02*
X170863809Y-84682381D01*
X170768571Y-84825238D01*
X170673333Y-84920476D01*
X170578095Y-84968095D01*
X164583334Y-94757143D02*
X164535715Y-94804762D01*
X164392858Y-94852381D01*
X164297620Y-94852381D01*
X164154762Y-94804762D01*
X164059524Y-94709524D01*
X164011905Y-94614286D01*
X163964286Y-94423810D01*
X163964286Y-94280952D01*
X164011905Y-94090476D01*
X164059524Y-93995238D01*
X164154762Y-93900000D01*
X164297620Y-93852381D01*
X164392858Y-93852381D01*
X164535715Y-93900000D01*
X164583334Y-93947619D01*
X165535715Y-94852381D02*
X164964286Y-94852381D01*
X165250000Y-94852381D02*
X165250000Y-93852381D01*
X165154762Y-93995238D01*
X165059524Y-94090476D01*
X164964286Y-94138095D01*
X187913334Y-80897143D02*
X187865715Y-80944762D01*
X187722858Y-80992381D01*
X187627620Y-80992381D01*
X187484762Y-80944762D01*
X187389524Y-80849524D01*
X187341905Y-80754286D01*
X187294286Y-80563810D01*
X187294286Y-80420952D01*
X187341905Y-80230476D01*
X187389524Y-80135238D01*
X187484762Y-80040000D01*
X187627620Y-79992381D01*
X187722858Y-79992381D01*
X187865715Y-80040000D01*
X187913334Y-80087619D01*
X188294286Y-80087619D02*
X188341905Y-80040000D01*
X188437143Y-79992381D01*
X188675239Y-79992381D01*
X188770477Y-80040000D01*
X188818096Y-80087619D01*
X188865715Y-80182857D01*
X188865715Y-80278095D01*
X188818096Y-80420952D01*
X188246667Y-80992381D01*
X188865715Y-80992381D01*
X187933334Y-77557143D02*
X187885715Y-77604762D01*
X187742858Y-77652381D01*
X187647620Y-77652381D01*
X187504762Y-77604762D01*
X187409524Y-77509524D01*
X187361905Y-77414286D01*
X187314286Y-77223810D01*
X187314286Y-77080952D01*
X187361905Y-76890476D01*
X187409524Y-76795238D01*
X187504762Y-76700000D01*
X187647620Y-76652381D01*
X187742858Y-76652381D01*
X187885715Y-76700000D01*
X187933334Y-76747619D01*
X188266667Y-76652381D02*
X188885715Y-76652381D01*
X188552381Y-77033333D01*
X188695239Y-77033333D01*
X188790477Y-77080952D01*
X188838096Y-77128571D01*
X188885715Y-77223810D01*
X188885715Y-77461905D01*
X188838096Y-77557143D01*
X188790477Y-77604762D01*
X188695239Y-77652381D01*
X188409524Y-77652381D01*
X188314286Y-77604762D01*
X188266667Y-77557143D01*
X162633334Y-84157143D02*
X162585715Y-84204762D01*
X162442858Y-84252381D01*
X162347620Y-84252381D01*
X162204762Y-84204762D01*
X162109524Y-84109524D01*
X162061905Y-84014286D01*
X162014286Y-83823810D01*
X162014286Y-83680952D01*
X162061905Y-83490476D01*
X162109524Y-83395238D01*
X162204762Y-83300000D01*
X162347620Y-83252381D01*
X162442858Y-83252381D01*
X162585715Y-83300000D01*
X162633334Y-83347619D01*
X163490477Y-83585714D02*
X163490477Y-84252381D01*
X163252381Y-83204762D02*
X163014286Y-83919048D01*
X163633334Y-83919048D01*
X163333334Y-70857143D02*
X163285715Y-70904762D01*
X163142858Y-70952381D01*
X163047620Y-70952381D01*
X162904762Y-70904762D01*
X162809524Y-70809524D01*
X162761905Y-70714286D01*
X162714286Y-70523810D01*
X162714286Y-70380952D01*
X162761905Y-70190476D01*
X162809524Y-70095238D01*
X162904762Y-70000000D01*
X163047620Y-69952381D01*
X163142858Y-69952381D01*
X163285715Y-70000000D01*
X163333334Y-70047619D01*
X164238096Y-69952381D02*
X163761905Y-69952381D01*
X163714286Y-70428571D01*
X163761905Y-70380952D01*
X163857143Y-70333333D01*
X164095239Y-70333333D01*
X164190477Y-70380952D01*
X164238096Y-70428571D01*
X164285715Y-70523810D01*
X164285715Y-70761905D01*
X164238096Y-70857143D01*
X164190477Y-70904762D01*
X164095239Y-70952381D01*
X163857143Y-70952381D01*
X163761905Y-70904762D01*
X163714286Y-70857143D01*
X172033334Y-85857143D02*
X171985715Y-85904762D01*
X171842858Y-85952381D01*
X171747620Y-85952381D01*
X171604762Y-85904762D01*
X171509524Y-85809524D01*
X171461905Y-85714286D01*
X171414286Y-85523810D01*
X171414286Y-85380952D01*
X171461905Y-85190476D01*
X171509524Y-85095238D01*
X171604762Y-85000000D01*
X171747620Y-84952381D01*
X171842858Y-84952381D01*
X171985715Y-85000000D01*
X172033334Y-85047619D01*
X172890477Y-84952381D02*
X172700000Y-84952381D01*
X172604762Y-85000000D01*
X172557143Y-85047619D01*
X172461905Y-85190476D01*
X172414286Y-85380952D01*
X172414286Y-85761905D01*
X172461905Y-85857143D01*
X172509524Y-85904762D01*
X172604762Y-85952381D01*
X172795239Y-85952381D01*
X172890477Y-85904762D01*
X172938096Y-85857143D01*
X172985715Y-85761905D01*
X172985715Y-85523810D01*
X172938096Y-85428571D01*
X172890477Y-85380952D01*
X172795239Y-85333333D01*
X172604762Y-85333333D01*
X172509524Y-85380952D01*
X172461905Y-85428571D01*
X172414286Y-85523810D01*
X174083334Y-69357143D02*
X174035715Y-69404762D01*
X173892858Y-69452381D01*
X173797620Y-69452381D01*
X173654762Y-69404762D01*
X173559524Y-69309524D01*
X173511905Y-69214286D01*
X173464286Y-69023810D01*
X173464286Y-68880952D01*
X173511905Y-68690476D01*
X173559524Y-68595238D01*
X173654762Y-68500000D01*
X173797620Y-68452381D01*
X173892858Y-68452381D01*
X174035715Y-68500000D01*
X174083334Y-68547619D01*
X174416667Y-68452381D02*
X175083334Y-68452381D01*
X174654762Y-69452381D01*
X180233334Y-68357143D02*
X180185715Y-68404762D01*
X180042858Y-68452381D01*
X179947620Y-68452381D01*
X179804762Y-68404762D01*
X179709524Y-68309524D01*
X179661905Y-68214286D01*
X179614286Y-68023810D01*
X179614286Y-67880952D01*
X179661905Y-67690476D01*
X179709524Y-67595238D01*
X179804762Y-67500000D01*
X179947620Y-67452381D01*
X180042858Y-67452381D01*
X180185715Y-67500000D01*
X180233334Y-67547619D01*
X180804762Y-67880952D02*
X180709524Y-67833333D01*
X180661905Y-67785714D01*
X180614286Y-67690476D01*
X180614286Y-67642857D01*
X180661905Y-67547619D01*
X180709524Y-67500000D01*
X180804762Y-67452381D01*
X180995239Y-67452381D01*
X181090477Y-67500000D01*
X181138096Y-67547619D01*
X181185715Y-67642857D01*
X181185715Y-67690476D01*
X181138096Y-67785714D01*
X181090477Y-67833333D01*
X180995239Y-67880952D01*
X180804762Y-67880952D01*
X180709524Y-67928571D01*
X180661905Y-67976190D01*
X180614286Y-68071429D01*
X180614286Y-68261905D01*
X180661905Y-68357143D01*
X180709524Y-68404762D01*
X180804762Y-68452381D01*
X180995239Y-68452381D01*
X181090477Y-68404762D01*
X181138096Y-68357143D01*
X181185715Y-68261905D01*
X181185715Y-68071429D01*
X181138096Y-67976190D01*
X181090477Y-67928571D01*
X180995239Y-67880952D01*
X180533334Y-93452381D02*
X180200000Y-92976190D01*
X179961905Y-93452381D02*
X179961905Y-92452381D01*
X180342858Y-92452381D01*
X180438096Y-92500000D01*
X180485715Y-92547619D01*
X180533334Y-92642857D01*
X180533334Y-92785714D01*
X180485715Y-92880952D01*
X180438096Y-92928571D01*
X180342858Y-92976190D01*
X179961905Y-92976190D01*
X180914286Y-92547619D02*
X180961905Y-92500000D01*
X181057143Y-92452381D01*
X181295239Y-92452381D01*
X181390477Y-92500000D01*
X181438096Y-92547619D01*
X181485715Y-92642857D01*
X181485715Y-92738095D01*
X181438096Y-92880952D01*
X180866667Y-93452381D01*
X181485715Y-93452381D01*
X179633334Y-82352381D02*
X179300000Y-81876190D01*
X179061905Y-82352381D02*
X179061905Y-81352381D01*
X179442858Y-81352381D01*
X179538096Y-81400000D01*
X179585715Y-81447619D01*
X179633334Y-81542857D01*
X179633334Y-81685714D01*
X179585715Y-81780952D01*
X179538096Y-81828571D01*
X179442858Y-81876190D01*
X179061905Y-81876190D01*
X179966667Y-81352381D02*
X180585715Y-81352381D01*
X180252381Y-81733333D01*
X180395239Y-81733333D01*
X180490477Y-81780952D01*
X180538096Y-81828571D01*
X180585715Y-81923810D01*
X180585715Y-82161905D01*
X180538096Y-82257143D01*
X180490477Y-82304762D01*
X180395239Y-82352381D01*
X180109524Y-82352381D01*
X180014286Y-82304762D01*
X179966667Y-82257143D01*
X183233334Y-93452381D02*
X182900000Y-92976190D01*
X182661905Y-93452381D02*
X182661905Y-92452381D01*
X183042858Y-92452381D01*
X183138096Y-92500000D01*
X183185715Y-92547619D01*
X183233334Y-92642857D01*
X183233334Y-92785714D01*
X183185715Y-92880952D01*
X183138096Y-92928571D01*
X183042858Y-92976190D01*
X182661905Y-92976190D01*
X184090477Y-92785714D02*
X184090477Y-93452381D01*
X183852381Y-92404762D02*
X183614286Y-93119048D01*
X184233334Y-93119048D01*
X174233334Y-93552381D02*
X173900000Y-93076190D01*
X173661905Y-93552381D02*
X173661905Y-92552381D01*
X174042858Y-92552381D01*
X174138096Y-92600000D01*
X174185715Y-92647619D01*
X174233334Y-92742857D01*
X174233334Y-92885714D01*
X174185715Y-92980952D01*
X174138096Y-93028571D01*
X174042858Y-93076190D01*
X173661905Y-93076190D01*
X175138096Y-92552381D02*
X174661905Y-92552381D01*
X174614286Y-93028571D01*
X174661905Y-92980952D01*
X174757143Y-92933333D01*
X174995239Y-92933333D01*
X175090477Y-92980952D01*
X175138096Y-93028571D01*
X175185715Y-93123810D01*
X175185715Y-93361905D01*
X175138096Y-93457143D01*
X175090477Y-93504762D01*
X174995239Y-93552381D01*
X174757143Y-93552381D01*
X174661905Y-93504762D01*
X174614286Y-93457143D01*
X172433334Y-93552381D02*
X172100000Y-93076190D01*
X171861905Y-93552381D02*
X171861905Y-92552381D01*
X172242858Y-92552381D01*
X172338096Y-92600000D01*
X172385715Y-92647619D01*
X172433334Y-92742857D01*
X172433334Y-92885714D01*
X172385715Y-92980952D01*
X172338096Y-93028571D01*
X172242858Y-93076190D01*
X171861905Y-93076190D01*
X173290477Y-92552381D02*
X173100000Y-92552381D01*
X173004762Y-92600000D01*
X172957143Y-92647619D01*
X172861905Y-92790476D01*
X172814286Y-92980952D01*
X172814286Y-93361905D01*
X172861905Y-93457143D01*
X172909524Y-93504762D01*
X173004762Y-93552381D01*
X173195239Y-93552381D01*
X173290477Y-93504762D01*
X173338096Y-93457143D01*
X173385715Y-93361905D01*
X173385715Y-93123810D01*
X173338096Y-93028571D01*
X173290477Y-92980952D01*
X173195239Y-92933333D01*
X173004762Y-92933333D01*
X172909524Y-92980952D01*
X172861905Y-93028571D01*
X172814286Y-93123810D01*
X177833334Y-66352381D02*
X177500000Y-65876190D01*
X177261905Y-66352381D02*
X177261905Y-65352381D01*
X177642858Y-65352381D01*
X177738096Y-65400000D01*
X177785715Y-65447619D01*
X177833334Y-65542857D01*
X177833334Y-65685714D01*
X177785715Y-65780952D01*
X177738096Y-65828571D01*
X177642858Y-65876190D01*
X177261905Y-65876190D01*
X178166667Y-65352381D02*
X178833334Y-65352381D01*
X178404762Y-66352381D01*
X175533334Y-66352381D02*
X175200000Y-65876190D01*
X174961905Y-66352381D02*
X174961905Y-65352381D01*
X175342858Y-65352381D01*
X175438096Y-65400000D01*
X175485715Y-65447619D01*
X175533334Y-65542857D01*
X175533334Y-65685714D01*
X175485715Y-65780952D01*
X175438096Y-65828571D01*
X175342858Y-65876190D01*
X174961905Y-65876190D01*
X176104762Y-65780952D02*
X176009524Y-65733333D01*
X175961905Y-65685714D01*
X175914286Y-65590476D01*
X175914286Y-65542857D01*
X175961905Y-65447619D01*
X176009524Y-65400000D01*
X176104762Y-65352381D01*
X176295239Y-65352381D01*
X176390477Y-65400000D01*
X176438096Y-65447619D01*
X176485715Y-65542857D01*
X176485715Y-65590476D01*
X176438096Y-65685714D01*
X176390477Y-65733333D01*
X176295239Y-65780952D01*
X176104762Y-65780952D01*
X176009524Y-65828571D01*
X175961905Y-65876190D01*
X175914286Y-65971429D01*
X175914286Y-66161905D01*
X175961905Y-66257143D01*
X176009524Y-66304762D01*
X176104762Y-66352381D01*
X176295239Y-66352381D01*
X176390477Y-66304762D01*
X176438096Y-66257143D01*
X176485715Y-66161905D01*
X176485715Y-65971429D01*
X176438096Y-65876190D01*
X176390477Y-65828571D01*
X176295239Y-65780952D01*
X186133334Y-66952381D02*
X185800000Y-66476190D01*
X185561905Y-66952381D02*
X185561905Y-65952381D01*
X185942858Y-65952381D01*
X186038096Y-66000000D01*
X186085715Y-66047619D01*
X186133334Y-66142857D01*
X186133334Y-66285714D01*
X186085715Y-66380952D01*
X186038096Y-66428571D01*
X185942858Y-66476190D01*
X185561905Y-66476190D01*
X186609524Y-66952381D02*
X186800000Y-66952381D01*
X186895239Y-66904762D01*
X186942858Y-66857143D01*
X187038096Y-66714286D01*
X187085715Y-66523810D01*
X187085715Y-66142857D01*
X187038096Y-66047619D01*
X186990477Y-66000000D01*
X186895239Y-65952381D01*
X186704762Y-65952381D01*
X186609524Y-66000000D01*
X186561905Y-66047619D01*
X186514286Y-66142857D01*
X186514286Y-66380952D01*
X186561905Y-66476190D01*
X186609524Y-66523810D01*
X186704762Y-66571429D01*
X186895239Y-66571429D01*
X186990477Y-66523810D01*
X187038096Y-66476190D01*
X187085715Y-66380952D01*
X186057143Y-68952381D02*
X185723809Y-68476190D01*
X185485714Y-68952381D02*
X185485714Y-67952381D01*
X185866667Y-67952381D01*
X185961905Y-68000000D01*
X186009524Y-68047619D01*
X186057143Y-68142857D01*
X186057143Y-68285714D01*
X186009524Y-68380952D01*
X185961905Y-68428571D01*
X185866667Y-68476190D01*
X185485714Y-68476190D01*
X187009524Y-68952381D02*
X186438095Y-68952381D01*
X186723809Y-68952381D02*
X186723809Y-67952381D01*
X186628571Y-68095238D01*
X186533333Y-68190476D01*
X186438095Y-68238095D01*
X187628571Y-67952381D02*
X187723810Y-67952381D01*
X187819048Y-68000000D01*
X187866667Y-68047619D01*
X187914286Y-68142857D01*
X187961905Y-68333333D01*
X187961905Y-68571429D01*
X187914286Y-68761905D01*
X187866667Y-68857143D01*
X187819048Y-68904762D01*
X187723810Y-68952381D01*
X187628571Y-68952381D01*
X187533333Y-68904762D01*
X187485714Y-68857143D01*
X187438095Y-68761905D01*
X187390476Y-68571429D01*
X187390476Y-68333333D01*
X187438095Y-68142857D01*
X187485714Y-68047619D01*
X187533333Y-68000000D01*
X187628571Y-67952381D01*
X155966667Y-95204762D02*
X156109524Y-95252381D01*
X156347620Y-95252381D01*
X156442858Y-95204762D01*
X156490477Y-95157143D01*
X156538096Y-95061905D01*
X156538096Y-94966667D01*
X156490477Y-94871429D01*
X156442858Y-94823810D01*
X156347620Y-94776190D01*
X156157143Y-94728571D01*
X156061905Y-94680952D01*
X156014286Y-94633333D01*
X155966667Y-94538095D01*
X155966667Y-94442857D01*
X156014286Y-94347619D01*
X156061905Y-94300000D01*
X156157143Y-94252381D01*
X156395239Y-94252381D01*
X156538096Y-94300000D01*
X156871429Y-94252381D02*
X157109524Y-95252381D01*
X157300001Y-94538095D01*
X157490477Y-95252381D01*
X157728572Y-94252381D01*
X158633334Y-95252381D02*
X158061905Y-95252381D01*
X158347619Y-95252381D02*
X158347619Y-94252381D01*
X158252381Y-94395238D01*
X158157143Y-94490476D01*
X158061905Y-94538095D01*
X177833334Y-74157143D02*
X177785715Y-74204762D01*
X177642858Y-74252381D01*
X177547620Y-74252381D01*
X177404762Y-74204762D01*
X177309524Y-74109524D01*
X177261905Y-74014286D01*
X177214286Y-73823810D01*
X177214286Y-73680952D01*
X177261905Y-73490476D01*
X177309524Y-73395238D01*
X177404762Y-73300000D01*
X177547620Y-73252381D01*
X177642858Y-73252381D01*
X177785715Y-73300000D01*
X177833334Y-73347619D01*
X178309524Y-74252381D02*
X178500000Y-74252381D01*
X178595239Y-74204762D01*
X178642858Y-74157143D01*
X178738096Y-74014286D01*
X178785715Y-73823810D01*
X178785715Y-73442857D01*
X178738096Y-73347619D01*
X178690477Y-73300000D01*
X178595239Y-73252381D01*
X178404762Y-73252381D01*
X178309524Y-73300000D01*
X178261905Y-73347619D01*
X178214286Y-73442857D01*
X178214286Y-73680952D01*
X178261905Y-73776190D01*
X178309524Y-73823810D01*
X178404762Y-73871429D01*
X178595239Y-73871429D01*
X178690477Y-73823810D01*
X178738096Y-73776190D01*
X178785715Y-73680952D01*
X171057143Y-87357143D02*
X171009524Y-87404762D01*
X170866667Y-87452381D01*
X170771429Y-87452381D01*
X170628571Y-87404762D01*
X170533333Y-87309524D01*
X170485714Y-87214286D01*
X170438095Y-87023810D01*
X170438095Y-86880952D01*
X170485714Y-86690476D01*
X170533333Y-86595238D01*
X170628571Y-86500000D01*
X170771429Y-86452381D01*
X170866667Y-86452381D01*
X171009524Y-86500000D01*
X171057143Y-86547619D01*
X172009524Y-87452381D02*
X171438095Y-87452381D01*
X171723809Y-87452381D02*
X171723809Y-86452381D01*
X171628571Y-86595238D01*
X171533333Y-86690476D01*
X171438095Y-86738095D01*
X172628571Y-86452381D02*
X172723810Y-86452381D01*
X172819048Y-86500000D01*
X172866667Y-86547619D01*
X172914286Y-86642857D01*
X172961905Y-86833333D01*
X172961905Y-87071429D01*
X172914286Y-87261905D01*
X172866667Y-87357143D01*
X172819048Y-87404762D01*
X172723810Y-87452381D01*
X172628571Y-87452381D01*
X172533333Y-87404762D01*
X172485714Y-87357143D01*
X172438095Y-87261905D01*
X172390476Y-87071429D01*
X172390476Y-86833333D01*
X172438095Y-86642857D01*
X172485714Y-86547619D01*
X172533333Y-86500000D01*
X172628571Y-86452381D01*
X162457143Y-69357143D02*
X162409524Y-69404762D01*
X162266667Y-69452381D01*
X162171429Y-69452381D01*
X162028571Y-69404762D01*
X161933333Y-69309524D01*
X161885714Y-69214286D01*
X161838095Y-69023810D01*
X161838095Y-68880952D01*
X161885714Y-68690476D01*
X161933333Y-68595238D01*
X162028571Y-68500000D01*
X162171429Y-68452381D01*
X162266667Y-68452381D01*
X162409524Y-68500000D01*
X162457143Y-68547619D01*
X163409524Y-69452381D02*
X162838095Y-69452381D01*
X163123809Y-69452381D02*
X163123809Y-68452381D01*
X163028571Y-68595238D01*
X162933333Y-68690476D01*
X162838095Y-68738095D01*
X164361905Y-69452381D02*
X163790476Y-69452381D01*
X164076190Y-69452381D02*
X164076190Y-68452381D01*
X163980952Y-68595238D01*
X163885714Y-68690476D01*
X163790476Y-68738095D01*
X177357143Y-85457143D02*
X177309524Y-85504762D01*
X177166667Y-85552381D01*
X177071429Y-85552381D01*
X176928571Y-85504762D01*
X176833333Y-85409524D01*
X176785714Y-85314286D01*
X176738095Y-85123810D01*
X176738095Y-84980952D01*
X176785714Y-84790476D01*
X176833333Y-84695238D01*
X176928571Y-84600000D01*
X177071429Y-84552381D01*
X177166667Y-84552381D01*
X177309524Y-84600000D01*
X177357143Y-84647619D01*
X178309524Y-85552381D02*
X177738095Y-85552381D01*
X178023809Y-85552381D02*
X178023809Y-84552381D01*
X177928571Y-84695238D01*
X177833333Y-84790476D01*
X177738095Y-84838095D01*
X178690476Y-84647619D02*
X178738095Y-84600000D01*
X178833333Y-84552381D01*
X179071429Y-84552381D01*
X179166667Y-84600000D01*
X179214286Y-84647619D01*
X179261905Y-84742857D01*
X179261905Y-84838095D01*
X179214286Y-84980952D01*
X178642857Y-85552381D01*
X179261905Y-85552381D01*
D17*
X131056147Y-103413167D02*
X131056147Y-104048167D01*
X131013813Y-104175167D01*
X130929147Y-104259833D01*
X130802147Y-104302167D01*
X130717480Y-104302167D01*
X131860480Y-103413167D02*
X131691146Y-103413167D01*
X131606480Y-103455500D01*
X131564146Y-103497833D01*
X131479480Y-103624833D01*
X131437146Y-103794167D01*
X131437146Y-104132833D01*
X131479480Y-104217500D01*
X131521813Y-104259833D01*
X131606480Y-104302167D01*
X131775813Y-104302167D01*
X131860480Y-104259833D01*
X131902813Y-104217500D01*
X131945146Y-104132833D01*
X131945146Y-103921167D01*
X131902813Y-103836500D01*
X131860480Y-103794167D01*
X131775813Y-103751833D01*
X131606480Y-103751833D01*
X131521813Y-103794167D01*
X131479480Y-103836500D01*
X131437146Y-103921167D01*
D13*
X179433334Y-77752381D02*
X179100000Y-77276190D01*
X178861905Y-77752381D02*
X178861905Y-76752381D01*
X179242858Y-76752381D01*
X179338096Y-76800000D01*
X179385715Y-76847619D01*
X179433334Y-76942857D01*
X179433334Y-77085714D01*
X179385715Y-77180952D01*
X179338096Y-77228571D01*
X179242858Y-77276190D01*
X178861905Y-77276190D01*
X180385715Y-77752381D02*
X179814286Y-77752381D01*
X180100000Y-77752381D02*
X180100000Y-76752381D01*
X180004762Y-76895238D01*
X179909524Y-76990476D01*
X179814286Y-77038095D01*
X150102381Y-104933333D02*
X150816667Y-104933333D01*
X150959524Y-104980953D01*
X151054762Y-105076191D01*
X151102381Y-105219048D01*
X151102381Y-105314286D01*
X150102381Y-103980952D02*
X150102381Y-104457143D01*
X150578571Y-104504762D01*
X150530952Y-104457143D01*
X150483333Y-104361905D01*
X150483333Y-104123809D01*
X150530952Y-104028571D01*
X150578571Y-103980952D01*
X150673810Y-103933333D01*
X150911905Y-103933333D01*
X151007143Y-103980952D01*
X151054762Y-104028571D01*
X151102381Y-104123809D01*
X151102381Y-104361905D01*
X151054762Y-104457143D01*
X151007143Y-104504762D01*
X142104762Y-103397619D02*
X142009524Y-103350000D01*
X141914286Y-103254762D01*
X141771429Y-103111905D01*
X141676190Y-103064286D01*
X141580952Y-103064286D01*
X141628571Y-103302381D02*
X141533333Y-103254762D01*
X141438095Y-103159524D01*
X141390476Y-102969048D01*
X141390476Y-102635714D01*
X141438095Y-102445238D01*
X141533333Y-102350000D01*
X141628571Y-102302381D01*
X141819048Y-102302381D01*
X141914286Y-102350000D01*
X142009524Y-102445238D01*
X142057143Y-102635714D01*
X142057143Y-102969048D01*
X142009524Y-103159524D01*
X141914286Y-103254762D01*
X141819048Y-103302381D01*
X141628571Y-103302381D01*
X143009524Y-103302381D02*
X142438095Y-103302381D01*
X142723809Y-103302381D02*
X142723809Y-102302381D01*
X142628571Y-102445238D01*
X142533333Y-102540476D01*
X142438095Y-102588095D01*
X149107143Y-103552381D02*
X148773809Y-103076190D01*
X148535714Y-103552381D02*
X148535714Y-102552381D01*
X148916667Y-102552381D01*
X149011905Y-102600000D01*
X149059524Y-102647619D01*
X149107143Y-102742857D01*
X149107143Y-102885714D01*
X149059524Y-102980952D01*
X149011905Y-103028571D01*
X148916667Y-103076190D01*
X148535714Y-103076190D01*
X150059524Y-103552381D02*
X149488095Y-103552381D01*
X149773809Y-103552381D02*
X149773809Y-102552381D01*
X149678571Y-102695238D01*
X149583333Y-102790476D01*
X149488095Y-102838095D01*
X151011905Y-103552381D02*
X150440476Y-103552381D01*
X150726190Y-103552381D02*
X150726190Y-102552381D01*
X150630952Y-102695238D01*
X150535714Y-102790476D01*
X150440476Y-102838095D01*
X149107143Y-98452381D02*
X148773809Y-97976190D01*
X148535714Y-98452381D02*
X148535714Y-97452381D01*
X148916667Y-97452381D01*
X149011905Y-97500000D01*
X149059524Y-97547619D01*
X149107143Y-97642857D01*
X149107143Y-97785714D01*
X149059524Y-97880952D01*
X149011905Y-97928571D01*
X148916667Y-97976190D01*
X148535714Y-97976190D01*
X150059524Y-98452381D02*
X149488095Y-98452381D01*
X149773809Y-98452381D02*
X149773809Y-97452381D01*
X149678571Y-97595238D01*
X149583333Y-97690476D01*
X149488095Y-97738095D01*
X150440476Y-97547619D02*
X150488095Y-97500000D01*
X150583333Y-97452381D01*
X150821429Y-97452381D01*
X150916667Y-97500000D01*
X150964286Y-97547619D01*
X151011905Y-97642857D01*
X151011905Y-97738095D01*
X150964286Y-97880952D01*
X150392857Y-98452381D01*
X151011905Y-98452381D01*
X145738095Y-102752381D02*
X145738095Y-103561905D01*
X145785714Y-103657143D01*
X145833333Y-103704762D01*
X145928571Y-103752381D01*
X146119048Y-103752381D01*
X146214286Y-103704762D01*
X146261905Y-103657143D01*
X146309524Y-103561905D01*
X146309524Y-102752381D01*
X147261905Y-102752381D02*
X146785714Y-102752381D01*
X146738095Y-103228571D01*
X146785714Y-103180952D01*
X146880952Y-103133333D01*
X147119048Y-103133333D01*
X147214286Y-103180952D01*
X147261905Y-103228571D01*
X147309524Y-103323810D01*
X147309524Y-103561905D01*
X147261905Y-103657143D01*
X147214286Y-103704762D01*
X147119048Y-103752381D01*
X146880952Y-103752381D01*
X146785714Y-103704762D01*
X146738095Y-103657143D01*
M02*
