G04 #@! TF.FileFunction,Soldermask,Bot*
%FSLAX46Y46*%
G04 Gerber Fmt 4.6, Leading zero omitted, Abs format (unit mm)*
G04 Created by KiCad (PCBNEW 4.0.7-e2-6376~58~ubuntu16.04.1) date Sun May 27 17:23:26 2018*
%MOMM*%
%LPD*%
G01*
G04 APERTURE LIST*
%ADD10C,0.100000*%
%ADD11R,1.900000X1.900000*%
%ADD12O,1.900000X1.900000*%
%ADD13R,1.927200X1.927200*%
%ADD14O,1.927200X1.927200*%
%ADD15C,1.700000*%
%ADD16R,2.049120X2.049120*%
%ADD17C,2.049120*%
G04 APERTURE END LIST*
D10*
D11*
X132715000Y-56515000D03*
D12*
X132715000Y-53975000D03*
X135255000Y-56515000D03*
X135255000Y-53975000D03*
X137795000Y-56515000D03*
X137795000Y-53975000D03*
X140335000Y-56515000D03*
X140335000Y-53975000D03*
X142875000Y-56515000D03*
X142875000Y-53975000D03*
X145415000Y-56515000D03*
X145415000Y-53975000D03*
X147955000Y-56515000D03*
X147955000Y-53975000D03*
X150495000Y-56515000D03*
X150495000Y-53975000D03*
X153035000Y-56515000D03*
X153035000Y-53975000D03*
X155575000Y-56515000D03*
X155575000Y-53975000D03*
X158115000Y-56515000D03*
X158115000Y-53975000D03*
X160655000Y-56515000D03*
X160655000Y-53975000D03*
X163195000Y-56515000D03*
X163195000Y-53975000D03*
X165735000Y-56515000D03*
X165735000Y-53975000D03*
X168275000Y-56515000D03*
X168275000Y-53975000D03*
X170815000Y-56515000D03*
X170815000Y-53975000D03*
X173355000Y-56515000D03*
X173355000Y-53975000D03*
X175895000Y-56515000D03*
X175895000Y-53975000D03*
X178435000Y-56515000D03*
X178435000Y-53975000D03*
X180975000Y-56515000D03*
X180975000Y-53975000D03*
D13*
X136525000Y-88773000D03*
D14*
X133985000Y-88773000D03*
X136525000Y-86233000D03*
X133985000Y-86233000D03*
X136525000Y-83693000D03*
X133985000Y-83693000D03*
X136525000Y-81153000D03*
X133985000Y-81153000D03*
X136525000Y-78613000D03*
X133985000Y-78613000D03*
X136525000Y-76073000D03*
X133985000Y-76073000D03*
X136525000Y-73533000D03*
X133985000Y-73533000D03*
X136525000Y-70993000D03*
X133985000Y-70993000D03*
D13*
X146939000Y-88773000D03*
D14*
X144399000Y-88773000D03*
X146939000Y-86233000D03*
X144399000Y-86233000D03*
X146939000Y-83693000D03*
X144399000Y-83693000D03*
X146939000Y-81153000D03*
X144399000Y-81153000D03*
X146939000Y-78613000D03*
X144399000Y-78613000D03*
X146939000Y-76073000D03*
X144399000Y-76073000D03*
X146939000Y-73533000D03*
X144399000Y-73533000D03*
X146939000Y-70993000D03*
X144399000Y-70993000D03*
D11*
X176276000Y-101981000D03*
D12*
X173736000Y-101981000D03*
X176276000Y-99441000D03*
X173736000Y-99441000D03*
X176276000Y-96901000D03*
X173736000Y-96901000D03*
D15*
X182511700Y-81292700D03*
X182511700Y-76412700D03*
D11*
X163750000Y-60500000D03*
D12*
X161210000Y-60500000D03*
X158670000Y-60500000D03*
D16*
X134204960Y-103900000D03*
D17*
X137700000Y-103900000D03*
D11*
X152980000Y-104600000D03*
D12*
X155520000Y-104600000D03*
X158060000Y-104600000D03*
X160600000Y-104600000D03*
X163140000Y-104600000D03*
M02*
