G04 #@! TF.FileFunction,Profile,NP*
%FSLAX46Y46*%
G04 Gerber Fmt 4.6, Leading zero omitted, Abs format (unit mm)*
G04 Created by KiCad (PCBNEW 4.0.7-e2-6376~58~ubuntu16.04.1) date Sun May 27 17:23:26 2018*
%MOMM*%
%LPD*%
G01*
G04 APERTURE LIST*
%ADD10C,0.100000*%
%ADD11C,0.010000*%
G04 APERTURE END LIST*
D10*
D11*
X129500000Y-55000000D02*
G75*
G03X129500000Y-55000000I-1500000J0D01*
G01*
X187500000Y-55000000D02*
G75*
G03X187500000Y-55000000I-1500000J0D01*
G01*
X187500000Y-104500000D02*
G75*
G03X187500000Y-104500000I-1500000J0D01*
G01*
X129500000Y-104500000D02*
G75*
G03X129500000Y-104500000I-1500000J0D01*
G01*
X168460000Y-88950000D02*
X168460000Y-103950000D01*
X170460000Y-88950000D02*
X170460000Y-103950000D01*
X169460000Y-87950000D02*
G75*
G03X168460000Y-88950000I0J-1000000D01*
G01*
X170460000Y-88950000D02*
G75*
G03X169460000Y-87950000I-1000000J0D01*
G01*
X169460000Y-104950000D02*
G75*
G03X170460000Y-103950000I0J1000000D01*
G01*
X168460000Y-103950000D02*
G75*
G03X169460000Y-104950000I1000000J0D01*
G01*
X124460000Y-70450000D02*
X124460000Y-54450000D01*
X128460000Y-71450000D02*
X125460000Y-71450000D01*
X129460000Y-87450000D02*
X129460000Y-72450000D01*
X124460000Y-89450000D02*
X124460000Y-104950000D01*
X125460000Y-88450000D02*
X128460000Y-88450000D01*
X124460000Y-70450000D02*
G75*
G03X125460000Y-71450000I1000000J0D01*
G01*
X129460000Y-72450000D02*
G75*
G03X128460000Y-71450000I-1000000J0D01*
G01*
X128460000Y-88450000D02*
G75*
G03X129460000Y-87450000I0J1000000D01*
G01*
X125460000Y-88450000D02*
G75*
G03X124460000Y-89450000I0J-1000000D01*
G01*
X186460000Y-107950000D02*
X127460000Y-107950000D01*
X189460000Y-54450000D02*
X189460000Y-104950000D01*
X127460000Y-51450000D02*
X186460000Y-51450000D01*
X186460000Y-107950000D02*
G75*
G03X189460000Y-104950000I0J3000000D01*
G01*
X189460000Y-54450000D02*
G75*
G03X186460000Y-51450000I-3000000J0D01*
G01*
X127460000Y-51450000D02*
G75*
G03X124460000Y-54450000I0J-3000000D01*
G01*
X124460000Y-104950000D02*
G75*
G03X127460000Y-107950000I3000000J0D01*
G01*
M02*
