G04 #@! TF.FileFunction,Soldermask,Top*
%FSLAX46Y46*%
G04 Gerber Fmt 4.6, Leading zero omitted, Abs format (unit mm)*
G04 Created by KiCad (PCBNEW 4.0.7-e2-6376~58~ubuntu16.04.1) date Sun May 27 17:23:26 2018*
%MOMM*%
%LPD*%
G01*
G04 APERTURE LIST*
%ADD10C,0.100000*%
%ADD11R,1.900000X1.900000*%
%ADD12O,1.900000X1.900000*%
%ADD13R,1.927200X1.927200*%
%ADD14O,1.927200X1.927200*%
%ADD15R,1.400000X1.400000*%
%ADD16R,1.650000X0.650000*%
%ADD17C,1.700000*%
%ADD18R,1.750000X0.800000*%
%ADD19C,1.200000*%
%ADD20R,2.200000X2.200000*%
%ADD21R,1.200000X0.450000*%
%ADD22R,0.450000X1.200000*%
%ADD23R,1.000000X0.950000*%
%ADD24R,0.950000X1.000000*%
%ADD25R,1.100000X0.700000*%
%ADD26R,0.700000X1.100000*%
%ADD27R,2.000000X1.300000*%
%ADD28R,2.049120X2.049120*%
%ADD29C,2.049120*%
%ADD30R,1.100000X1.000000*%
%ADD31R,0.850000X1.260000*%
G04 APERTURE END LIST*
D10*
D11*
X132715000Y-56515000D03*
D12*
X132715000Y-53975000D03*
X135255000Y-56515000D03*
X135255000Y-53975000D03*
X137795000Y-56515000D03*
X137795000Y-53975000D03*
X140335000Y-56515000D03*
X140335000Y-53975000D03*
X142875000Y-56515000D03*
X142875000Y-53975000D03*
X145415000Y-56515000D03*
X145415000Y-53975000D03*
X147955000Y-56515000D03*
X147955000Y-53975000D03*
X150495000Y-56515000D03*
X150495000Y-53975000D03*
X153035000Y-56515000D03*
X153035000Y-53975000D03*
X155575000Y-56515000D03*
X155575000Y-53975000D03*
X158115000Y-56515000D03*
X158115000Y-53975000D03*
X160655000Y-56515000D03*
X160655000Y-53975000D03*
X163195000Y-56515000D03*
X163195000Y-53975000D03*
X165735000Y-56515000D03*
X165735000Y-53975000D03*
X168275000Y-56515000D03*
X168275000Y-53975000D03*
X170815000Y-56515000D03*
X170815000Y-53975000D03*
X173355000Y-56515000D03*
X173355000Y-53975000D03*
X175895000Y-56515000D03*
X175895000Y-53975000D03*
X178435000Y-56515000D03*
X178435000Y-53975000D03*
X180975000Y-56515000D03*
X180975000Y-53975000D03*
D13*
X136525000Y-88773000D03*
D14*
X133985000Y-88773000D03*
X136525000Y-86233000D03*
X133985000Y-86233000D03*
X136525000Y-83693000D03*
X133985000Y-83693000D03*
X136525000Y-81153000D03*
X133985000Y-81153000D03*
X136525000Y-78613000D03*
X133985000Y-78613000D03*
X136525000Y-76073000D03*
X133985000Y-76073000D03*
X136525000Y-73533000D03*
X133985000Y-73533000D03*
X136525000Y-70993000D03*
X133985000Y-70993000D03*
D15*
X180721000Y-97958000D03*
X180721000Y-95758000D03*
X183362600Y-97958000D03*
X183362600Y-95758000D03*
D13*
X146939000Y-88773000D03*
D14*
X144399000Y-88773000D03*
X146939000Y-86233000D03*
X144399000Y-86233000D03*
X146939000Y-83693000D03*
X144399000Y-83693000D03*
X146939000Y-81153000D03*
X144399000Y-81153000D03*
X146939000Y-78613000D03*
X144399000Y-78613000D03*
X146939000Y-76073000D03*
X144399000Y-76073000D03*
X146939000Y-73533000D03*
X144399000Y-73533000D03*
X146939000Y-70993000D03*
X144399000Y-70993000D03*
D11*
X176276000Y-101981000D03*
D12*
X173736000Y-101981000D03*
X176276000Y-99441000D03*
X173736000Y-99441000D03*
X176276000Y-96901000D03*
X173736000Y-96901000D03*
D16*
X160557000Y-77220000D03*
X160557000Y-76570000D03*
X160557000Y-75920000D03*
X160557000Y-75270000D03*
X160557000Y-74620000D03*
X160557000Y-73970000D03*
X160557000Y-73320000D03*
X160557000Y-72670000D03*
X160557000Y-72020000D03*
X160557000Y-71370000D03*
X154657000Y-71370000D03*
X154657000Y-72020000D03*
X154657000Y-72670000D03*
X154657000Y-73320000D03*
X154657000Y-73970000D03*
X154657000Y-74620000D03*
X154657000Y-75270000D03*
X154657000Y-75920000D03*
X154657000Y-76570000D03*
X154657000Y-77220000D03*
X160303000Y-88650000D03*
X160303000Y-88000000D03*
X160303000Y-87350000D03*
X160303000Y-86700000D03*
X160303000Y-86050000D03*
X160303000Y-85400000D03*
X160303000Y-84750000D03*
X160303000Y-84100000D03*
X160303000Y-83450000D03*
X160303000Y-82800000D03*
X154403000Y-82800000D03*
X154403000Y-83450000D03*
X154403000Y-84100000D03*
X154403000Y-84750000D03*
X154403000Y-85400000D03*
X154403000Y-86050000D03*
X154403000Y-86700000D03*
X154403000Y-87350000D03*
X154403000Y-88000000D03*
X154403000Y-88650000D03*
D17*
X182511700Y-81292700D03*
X182511700Y-76412700D03*
D18*
X186600000Y-64211200D03*
X186600000Y-62941200D03*
X186600000Y-61671200D03*
X186600000Y-60401200D03*
X181200000Y-60401200D03*
X181200000Y-61671200D03*
X181200000Y-62941200D03*
X181200000Y-64211200D03*
D19*
X130810000Y-62484000D03*
X186690000Y-96012000D03*
D20*
X145161000Y-63119000D03*
X183642000Y-85852000D03*
X155100000Y-80000000D03*
X129600000Y-98500000D03*
D11*
X163750000Y-60500000D03*
D12*
X161210000Y-60500000D03*
X158670000Y-60500000D03*
D21*
X176040000Y-81780000D03*
X176040000Y-81280000D03*
X176040000Y-80780000D03*
X176040000Y-80280000D03*
X176040000Y-79780000D03*
X176040000Y-79280000D03*
X176040000Y-78780000D03*
X176040000Y-78280000D03*
X176040000Y-77780000D03*
X176040000Y-77280000D03*
X176040000Y-76780000D03*
X176040000Y-76280000D03*
X176040000Y-75780000D03*
X176040000Y-75280000D03*
X176040000Y-74780000D03*
X176040000Y-74280000D03*
D22*
X174090000Y-72330000D03*
X173590000Y-72330000D03*
X173090000Y-72330000D03*
X172590000Y-72330000D03*
X172090000Y-72330000D03*
X171590000Y-72330000D03*
X171090000Y-72330000D03*
X170590000Y-72330000D03*
X170090000Y-72330000D03*
X169590000Y-72330000D03*
X169090000Y-72330000D03*
X168590000Y-72330000D03*
X168090000Y-72330000D03*
X167590000Y-72330000D03*
X167090000Y-72330000D03*
X166590000Y-72330000D03*
D21*
X164640000Y-74280000D03*
X164640000Y-74780000D03*
X164640000Y-75280000D03*
X164640000Y-75780000D03*
X164640000Y-76280000D03*
X164640000Y-76780000D03*
X164640000Y-77280000D03*
X164640000Y-77780000D03*
X164640000Y-78280000D03*
X164640000Y-78780000D03*
X164640000Y-79280000D03*
X164640000Y-79780000D03*
X164640000Y-80280000D03*
X164640000Y-80780000D03*
X164640000Y-81280000D03*
X164640000Y-81780000D03*
D22*
X166590000Y-83730000D03*
X167090000Y-83730000D03*
X167590000Y-83730000D03*
X168090000Y-83730000D03*
X168590000Y-83730000D03*
X169090000Y-83730000D03*
X169590000Y-83730000D03*
X170090000Y-83730000D03*
X170590000Y-83730000D03*
X171090000Y-83730000D03*
X171590000Y-83730000D03*
X172090000Y-83730000D03*
X172590000Y-83730000D03*
X173090000Y-83730000D03*
X173590000Y-83730000D03*
X174090000Y-83730000D03*
D23*
X164000000Y-92900000D03*
X165500000Y-92900000D03*
D24*
X186580000Y-81290000D03*
X186580000Y-79790000D03*
X186580000Y-76420000D03*
X186580000Y-77920000D03*
X162810000Y-80810000D03*
X162810000Y-82310000D03*
D23*
X166800000Y-70490000D03*
X165300000Y-70490000D03*
X173800000Y-85500000D03*
X175300000Y-85500000D03*
X175000000Y-70500000D03*
X173500000Y-70500000D03*
X179700000Y-66500000D03*
X181200000Y-66500000D03*
D25*
X180695600Y-91762000D03*
X180695600Y-90262000D03*
D26*
X177600000Y-80300000D03*
X179100000Y-80300000D03*
D25*
X183337200Y-91762000D03*
X183337200Y-90262000D03*
X174400000Y-91762000D03*
X174400000Y-90262000D03*
X172600000Y-90262000D03*
X172600000Y-91762000D03*
X178000000Y-64300000D03*
X178000000Y-62800000D03*
X175700000Y-64300000D03*
X175700000Y-62800000D03*
D26*
X183100000Y-66500000D03*
X184600000Y-66500000D03*
X183200000Y-68500000D03*
X184700000Y-68500000D03*
D27*
X160400000Y-96600000D03*
X154200000Y-96600000D03*
X160400000Y-92900000D03*
X154200000Y-92900000D03*
D24*
X178000000Y-76800000D03*
X178000000Y-75300000D03*
D23*
X173800000Y-87000000D03*
X175300000Y-87000000D03*
X165300000Y-69000000D03*
X166800000Y-69000000D03*
D24*
X178000000Y-83600000D03*
X178000000Y-82100000D03*
D28*
X134204960Y-103900000D03*
D29*
X137700000Y-103900000D03*
D26*
X177600000Y-78700000D03*
X179100000Y-78700000D03*
D11*
X152980000Y-104600000D03*
D12*
X155520000Y-104600000D03*
X158060000Y-104600000D03*
X160600000Y-104600000D03*
X163140000Y-104600000D03*
D30*
X143200000Y-101300000D03*
X143200000Y-99400000D03*
X141200000Y-100350000D03*
D26*
X149000000Y-101600000D03*
X150500000Y-101600000D03*
X149000000Y-99400000D03*
X150500000Y-99400000D03*
D31*
X145550000Y-101600000D03*
X146500000Y-101600000D03*
X147450000Y-101600000D03*
X147450000Y-99400000D03*
X145550000Y-99400000D03*
X146500000Y-99400000D03*
M02*
